<svg width="15" height="10" viewBox="0 0 15 10" fill="none" xmlns="http://www.w3.org/2000/svg">
<path d="M13.6267 3.97161H1.43584C1.21298 3.97161 1.03125 3.7912 1.03125 3.56702C1.03125 3.34284 1.21298 3.16243 1.43584 3.16243H12.6464L10.7056 1.22039C10.5478 1.06253 10.5478 0.805181 10.7056 0.647324C10.8635 0.489466 11.1209 0.489466 11.2787 0.647324L13.9119 3.28049C14.0273 3.3959 14.0631 3.571 13.9994 3.72222C13.9371 3.87345 13.7898 3.97161 13.6267 3.97161Z" fill="#0261A3" stroke="#0261A3" stroke-width="0.5"/>
<path d="M4.07036 9.47113C3.96689 9.47113 3.86342 9.43133 3.78383 9.35306L1.15066 6.71857C1.03525 6.60316 0.999436 6.42806 1.06311 6.27684C1.12546 6.12561 1.27403 6.02612 1.43719 6.02612H13.6267C13.8509 6.02612 14.0313 6.20786 14.0313 6.43072C14.0313 6.6549 13.8495 6.83531 13.6267 6.83531H2.41484L4.35689 8.77602C4.51474 8.93388 4.51474 9.19123 4.35689 9.34909C4.2773 9.43133 4.17383 9.47113 4.07036 9.47113Z" fill="#0261A3" stroke="#0261A3" stroke-width="0.5"/>
</svg>
