<svg width="32" height="26" viewBox="0 0 32 26" fill="none" xmlns="http://www.w3.org/2000/svg">
<g id="Group 4">
<path id="Vector" d="M11.8723 20.0686C10.5606 19.168 10.2669 17.6604 9.73829 16.3291C8.916 14.2342 8.93558 14.2146 11.1871 14.2146C15.651 14.2146 20.1148 14.2146 24.5983 14.2146C25.0682 14.2146 25.5185 14.2146 25.8904 13.9014C26.4386 13.4315 26.7911 12.7267 26.6932 12.1002C26.6149 11.6499 25.8513 11.924 25.401 11.924C19.9386 11.924 14.4958 11.924 9.05305 11.924C8.30907 11.924 7.29099 10.6905 7.42804 9.94656C7.48678 9.59415 7.78045 9.7312 7.97624 9.7312C9.58166 9.71162 11.1675 9.71162 12.7729 9.71162C17.4326 9.71162 22.0922 9.71162 26.7715 9.71162C27.5938 9.71162 28.3769 8.85017 28.2986 8.02788C28.2399 7.47968 27.7896 7.7342 27.535 7.7342C23.2669 7.71462 18.9989 7.7342 14.7112 7.7342C12.2639 7.7342 9.8166 7.71462 7.36931 7.75378C6.78196 7.75378 6.48828 7.57758 6.31208 7.02938C6.03798 6.12878 5.66599 5.24775 5.35273 4.36672C5.07864 3.60317 4.5696 3.19202 3.74731 3.23118C3.02291 3.25076 2.31809 3.25076 1.59369 3.23118C0.83013 3.23118 0.301514 2.89834 0.301514 2.07605C0.301514 1.29292 0.849708 0.999243 1.53495 0.979664C2.41598 0.960086 3.297 0.920929 4.17803 0.999243C5.70514 1.13629 6.78196 1.939 7.34973 3.3878C7.58467 3.99473 7.42804 5.18901 8.07413 5.18901C8.72021 5.18901 10.0907 5.18901 10.0907 5.18901C10.0907 5.18901 11.1412 5.18901 11.657 5.18901C12.3422 5.18901 12.9296 5.18901 13.7127 5.18901C14.5307 5.18901 15.1811 5.18901 15.9642 5.18901C16.7473 5.18901 17.5501 5.16944 18.3136 5.18901C19.3121 5.18901 20.2715 5.18901 21.2504 5.18901C21.6419 5.18901 21.9356 5.18901 22.3272 5.18901C22.7567 5.18901 23.2082 5.18901 23.6977 5.18901C24.3829 5.18901 25.0682 5.18901 25.7534 5.18901C26.2835 5.18901 26.7323 5.18901 27.3197 5.18901C27.9317 5.18901 28.3965 5.18901 29.1796 5.18901C29.2574 5.18901 29.3154 5.19054 29.3754 5.18901C31.6856 5.13028 31.6073 5.69805 30.8242 7.69505C30.0019 9.80951 29.2579 11.9631 28.4552 14.0972C27.8287 15.7809 26.9477 16.4074 25.1465 16.4074C20.8784 16.4074 16.6103 16.4074 12.3422 16.4074C12.4988 17.9541 12.9296 18.3653 14.4175 18.3653C17.9025 18.3653 21.3874 18.3653 24.8724 18.3653C25.91 18.3653 26.4191 18.8351 26.3408 19.6183C26.282 20.2448 25.8121 20.4601 25.3227 20.6559C24.1871 20.8517 23.3061 20.9496 21.7398 20.9496C20.4672 20.9496 19.1946 20.9496 17.8242 20.9496C16.7865 20.9888 15.7293 20.9888 14.6916 21.0475C13.6735 21.1258 12.7338 20.6364 11.8723 20.0686Z" fill="#F5F5F5"/>
<path id="Vector_2" d="M22.6796 25.5584C21.4853 25.5584 20.5847 24.6382 20.6043 23.444C20.6239 22.2301 21.5245 21.3687 22.7384 21.3687C23.9522 21.3882 24.8332 22.2693 24.8137 23.4831C24.7941 24.7166 23.9131 25.578 22.6796 25.5584Z" fill="#F5F5F5"/>
<path id="Vector_3" d="M14.6133 25.578C13.4386 25.578 12.4989 24.6774 12.4793 23.5027C12.4597 22.328 13.4191 21.3687 14.6525 21.3882C15.8272 21.4078 16.7474 22.328 16.7278 23.4831C16.7082 24.6774 15.788 25.578 14.6133 25.578Z" fill="#F5F5F5"/>
</g>
</svg>
