<svg width="29" height="23" viewBox="0 0 29 23" fill="none" xmlns="http://www.w3.org/2000/svg">
<path d="M10.7712 17.8544C9.5501 17.0133 9.27672 15.6052 8.78463 14.3618C8.01917 12.4052 8.03739 12.3869 10.1333 12.3869C14.2887 12.3869 18.4441 12.3869 22.6177 12.3869C23.0551 12.3869 23.4743 12.3869 23.8206 12.0943C24.3309 11.6554 24.6589 10.9971 24.5678 10.412C24.4949 9.99139 23.7841 10.2474 23.3649 10.2474C18.2801 10.2474 13.2134 10.2474 8.14674 10.2474C7.45418 10.2474 6.50646 9.09538 6.63404 8.4005C6.68871 8.07135 6.9621 8.19936 7.14435 8.19936C8.63883 8.18107 10.1151 8.18107 11.6096 8.18107C15.9472 8.18107 20.2848 8.18107 24.6407 8.18107C25.4062 8.18107 26.1352 7.37648 26.0623 6.60847C26.0076 6.09646 25.5884 6.33417 25.3515 6.33417C21.3784 6.31589 17.4052 6.33417 13.4139 6.33417C11.1357 6.33417 8.85753 6.31589 6.57936 6.35246C6.0326 6.35246 5.75922 6.18789 5.59519 5.67588C5.34004 4.83471 4.99375 4.01184 4.70215 3.18897C4.44699 2.47581 3.97313 2.0918 3.20767 2.12837C2.53333 2.14666 1.87721 2.14666 1.20288 2.12837C0.492085 2.12837 0 1.81751 0 1.04949C0 0.318049 0.510311 0.0437578 1.1482 0.0254717C1.96834 0.00718563 2.78848 -0.0293866 3.60862 0.0437578C5.0302 0.17176 6.0326 0.92149 6.56114 2.27466C6.77984 2.84153 6.63404 3.95698 7.23548 3.95698C7.83691 3.95698 9.11269 3.95698 9.11269 3.95698C9.11269 3.95698 10.0906 3.95698 10.5707 3.95698C11.2086 3.95698 11.7554 3.95698 12.4844 3.95698C13.2459 3.95698 13.8513 3.95698 14.5803 3.95698C15.3093 3.95698 16.0566 3.9387 16.7673 3.95698C17.6968 3.95698 18.5899 3.95698 19.5012 3.95698C19.8657 3.95698 20.139 3.95698 20.5036 3.95698C20.9034 3.95698 21.3237 3.95698 21.7793 3.95698C22.4172 3.95698 23.0551 3.95698 23.693 3.95698C24.1865 3.95698 24.6043 3.95698 25.151 3.95698C25.7207 3.95698 26.1534 3.95698 26.8824 3.95698C26.9549 3.95698 27.0088 3.9584 27.0647 3.95698C29.2153 3.90212 29.1424 4.43242 28.4134 6.2976C27.6479 8.2725 26.9553 10.284 26.2081 12.2772C25.6249 13.8498 24.8047 14.4349 23.128 14.4349C19.1549 14.4349 15.1817 14.4349 11.2086 14.4349C11.3544 15.8795 11.7554 16.2635 13.1405 16.2635C16.3846 16.2635 19.6287 16.2635 22.8729 16.2635C23.8388 16.2635 24.3127 16.7024 24.2398 17.4338C24.1851 18.019 23.7477 18.2201 23.292 18.403C22.235 18.5859 21.4148 18.6773 19.9568 18.6773C18.7721 18.6773 17.5875 18.6773 16.3117 18.6773C15.3458 18.7139 14.3616 18.7139 13.3957 18.7687C12.4479 18.8419 11.5731 18.3847 10.7712 17.8544Z" fill="#0261A3"/>
<path d="M20.8316 22.9817C19.7198 22.9817 18.8815 22.1223 18.8997 21.0068C18.9179 19.8731 19.7563 19.0685 20.8863 19.0685C22.0162 19.0868 22.8364 19.9097 22.8182 21.0434C22.7999 22.1954 21.9798 23 20.8316 22.9817Z" fill="#0261A3"/>
<path d="M13.3228 22.9999C12.2293 22.9999 11.3544 22.1588 11.3362 21.0616C11.318 19.9644 12.211 19.0684 13.3592 19.0867C14.4528 19.105 15.3093 19.9644 15.2911 21.0433C15.2729 22.1588 14.4163 22.9999 13.3228 22.9999Z" fill="#0261A3"/>
</svg>
