<svg width="18" height="18" viewBox="0 0 18 18" fill="none" xmlns="http://www.w3.org/2000/svg">
<path d="M3.10627 0.473955C2.5136 0.704437 2.01239 1.01175 1.51119 1.51296C1.00998 2.01051 0.702667 2.51537 0.472185 3.10438C0.249019 3.6751 0.0990224 4.32997 0.0551209 5.28848C0.0112195 6.24699 0.000244141 6.55431 0.000244141 8.99815C0.000244141 11.442 0.0112195 11.7493 0.0551209 12.7078C0.0990224 13.6663 0.252677 14.3212 0.472185 14.8919C0.702667 15.4846 1.00998 15.9858 1.51119 16.487C2.01239 16.9882 2.5136 17.2955 3.10627 17.526C3.67699 17.7492 4.33185 17.8992 5.29037 17.9431C6.24888 17.987 6.55619 17.9979 9.00004 17.9979C11.4439 17.9979 11.7512 17.987 12.7097 17.9431C13.6682 17.8992 14.3231 17.7455 14.8938 17.526C15.4865 17.2955 15.9877 16.9882 16.4889 16.487C16.9901 15.9858 17.2974 15.4846 17.5279 14.8919C17.7511 14.3212 17.9011 13.6663 17.945 12.7078C17.9889 11.7493 17.9998 11.442 17.9998 8.99815C17.9998 6.55431 17.9889 6.24699 17.945 5.28848C17.9011 4.32997 17.7474 3.6751 17.5279 3.10438C17.2974 2.51537 16.9901 2.01051 16.4926 1.51296C15.9913 1.01175 15.4901 0.704437 14.8975 0.473955C14.3267 0.250789 13.6719 0.100792 12.7134 0.056891C11.7549 0.0129895 11.4475 0.00201416 9.0037 0.00201416C6.55985 0.00201416 6.25254 0.0129895 5.29403 0.056891C4.33185 0.097134 3.67699 0.250789 3.10627 0.473955ZM12.6365 1.67393C13.5146 1.71417 13.9902 1.86051 14.3085 1.9849C14.7292 2.14953 15.0292 2.34342 15.3438 2.65805C15.6584 2.97268 15.8523 3.27267 16.017 3.69339C16.1413 4.01168 16.2877 4.48728 16.3279 5.36531C16.3718 6.31285 16.3791 6.59821 16.3791 9.00181C16.3791 11.4054 16.3682 11.6908 16.3279 12.6383C16.2877 13.5163 16.1413 13.9919 16.017 14.3102C15.8523 14.7309 15.6584 15.0309 15.3438 15.3456C15.0292 15.6602 14.7292 15.8541 14.3085 16.0187C13.9902 16.1431 13.5146 16.2895 12.6365 16.3297C11.689 16.3736 11.4036 16.3809 9.00004 16.3809C6.59644 16.3809 6.31108 16.3699 5.36354 16.3297C4.48551 16.2895 4.00991 16.1431 3.69162 16.0187C3.2709 15.8541 2.97091 15.6602 2.65628 15.3456C2.34165 15.0309 2.14776 14.7309 1.98313 14.3102C1.85874 13.9919 1.7124 13.5163 1.67216 12.6383C1.62826 11.6908 1.62094 11.4054 1.62094 9.00181C1.62094 6.59821 1.63191 6.31285 1.67216 5.36531C1.7124 4.48728 1.85874 4.01168 1.98313 3.69339C2.14776 3.27267 2.34165 2.97268 2.65628 2.65805C2.97091 2.34342 3.2709 2.14953 3.69162 1.9849C4.00991 1.86051 4.48551 1.71417 5.36354 1.67393C6.31108 1.63003 6.59644 1.62271 9.00004 1.62271C11.4036 1.62271 11.689 1.63003 12.6365 1.67393Z" fill="white"/>
<path d="M4.37939 9.00179C4.37939 11.5554 6.45008 13.6224 9.00002 13.6224C11.55 13.6224 13.6206 11.5517 13.6206 9.00179C13.6206 6.45185 11.5536 4.38116 9.00002 4.38116C6.44642 4.38116 4.37939 6.44819 4.37939 9.00179ZM12 9.00179C12 10.6591 10.6573 12.0017 9.00002 12.0017C7.34274 12.0017 6.00009 10.6591 6.00009 9.00179C6.00009 7.34451 7.34274 6.00186 9.00002 6.00186C10.6573 6.00186 12 7.34451 12 9.00179Z" fill="white"/>
<path d="M13.8073 5.27751C14.4033 5.27751 14.8865 4.79431 14.8865 4.19826C14.8865 3.60221 14.4033 3.11902 13.8073 3.11902C13.2112 3.11902 12.728 3.60221 12.728 4.19826C12.728 4.79431 13.2112 5.27751 13.8073 5.27751Z" fill="white"/>
</svg>
