<svg width="318" height="48" viewBox="0 0 318 48" fill="none" xmlns="http://www.w3.org/2000/svg">
<g clip-path="url(#clip0_148_1385)">
<path d="M49.9782 17.5668C49.3677 17.5668 48.8158 17.4674 48.3225 17.2686C47.8375 17.0697 47.4528 16.7834 47.1685 16.4096C46.8842 16.0358 46.7379 15.5944 46.7295 15.0854H48.611C48.6361 15.4274 48.7615 15.6978 48.9873 15.8966C49.2214 16.0955 49.5392 16.1949 49.9405 16.1949C50.3503 16.1949 50.6722 16.1034 50.9064 15.9205C51.1405 15.7296 51.2576 15.4831 51.2576 15.1809C51.2576 14.9343 51.1781 14.7315 51.0192 14.5724C50.8604 14.4134 50.6597 14.2901 50.4172 14.2026C50.183 14.1072 49.8569 14.0038 49.4388 13.8924C48.8702 13.7334 48.4061 13.5783 48.0465 13.4272C47.6953 13.2681 47.3901 13.0335 47.1309 12.7233C46.88 12.4052 46.7546 11.9837 46.7546 11.4588C46.7546 10.9657 46.8842 10.5362 47.1434 10.1704C47.4026 9.8045 47.7664 9.52615 48.2347 9.33527C48.7029 9.13644 49.2381 9.03703 49.8402 9.03703C50.7433 9.03703 51.475 9.24778 52.0352 9.6693C52.6039 10.0829 52.9174 10.6634 52.976 11.411H51.0443C51.0276 11.1247 50.898 10.8901 50.6555 10.7072C50.4214 10.5163 50.1078 10.4209 49.7148 10.4209C49.3719 10.4209 49.096 10.5044 48.8869 10.6714C48.6862 10.8384 48.5859 11.081 48.5859 11.3991C48.5859 11.6218 48.6611 11.8087 48.8117 11.9598C48.9705 12.103 49.1629 12.2223 49.3886 12.3177C49.6228 12.4052 49.9489 12.5086 50.367 12.6279C50.9356 12.7869 51.3997 12.946 51.7593 13.1051C52.1189 13.2641 52.4283 13.5027 52.6875 13.8209C52.9467 14.139 53.0763 14.5565 53.0763 15.0735C53.0763 15.5189 52.9551 15.9324 52.7126 16.3142C52.4701 16.6959 52.1147 17.0022 51.6464 17.2328C51.1781 17.4555 50.622 17.5668 49.9782 17.5668ZM61.1588 10.8742V17.4833H59.3902V16.6482C59.1645 16.9345 58.8676 17.1612 58.4997 17.3282C58.1401 17.4873 57.7471 17.5668 57.3206 17.5668C56.7771 17.5668 56.2962 17.4594 55.8781 17.2447C55.4601 17.022 55.1297 16.6999 54.8872 16.2784C54.6531 15.8489 54.536 15.3399 54.536 14.7514V10.8742H56.2921V14.5128C56.2921 15.0377 56.43 15.4433 56.706 15.7296C56.9819 16.008 57.3582 16.1472 57.8349 16.1472C58.3199 16.1472 58.7004 16.008 58.9763 15.7296C59.2523 15.4433 59.3902 15.0377 59.3902 14.5128V10.8742H61.1588ZM64.6475 11.8286C64.8732 11.5264 65.1827 11.2758 65.5756 11.077C65.977 10.8702 66.4328 10.7668 66.9429 10.7668C67.5366 10.7668 68.0717 10.906 68.5484 11.1844C69.0334 11.4627 69.4138 11.8604 69.6898 12.3774C69.9741 12.8864 70.1163 13.4789 70.1163 14.1549C70.1163 14.8309 69.9741 15.4314 69.6898 15.9563C69.4138 16.4732 69.0334 16.8749 68.5484 17.1612C68.0717 17.4475 67.5366 17.5907 66.9429 17.5907C66.4328 17.5907 65.9813 17.4913 65.5882 17.2924C65.2036 17.0936 64.89 16.843 64.6475 16.5408V20.6328H62.8914V10.8742H64.6475V11.8286ZM68.3226 14.1549C68.3226 13.7572 68.2348 13.4153 68.0592 13.1289C67.892 12.8347 67.6662 12.612 67.3819 12.4609C67.1059 12.3098 66.8049 12.2342 66.4788 12.2342C66.161 12.2342 65.86 12.3137 65.5756 12.4728C65.2997 12.6239 65.0739 12.8466 64.8983 13.1409C64.7311 13.4351 64.6475 13.7811 64.6475 14.1788C64.6475 14.5764 64.7311 14.9224 64.8983 15.2166C65.0739 15.5109 65.2997 15.7376 65.5756 15.8966C65.86 16.0478 66.161 16.1233 66.4788 16.1233C66.8049 16.1233 67.1059 16.0438 67.3819 15.8847C67.6662 15.7257 67.892 15.499 68.0592 15.2047C68.2348 14.9104 68.3226 14.5605 68.3226 14.1549ZM77.8521 14.0356C77.8521 14.2742 77.8353 14.4889 77.8019 14.6798H72.7219C72.7637 15.157 72.9393 15.5308 73.2488 15.8012C73.5581 16.0716 73.9386 16.2068 74.3902 16.2068C75.0424 16.2068 75.5065 15.9404 75.7825 15.4075H77.6765C77.4758 16.0438 77.0911 16.5687 76.5225 16.9823C75.9538 17.3879 75.2557 17.5907 74.4278 17.5907C73.7588 17.5907 73.1567 17.4515 72.6216 17.1731C72.0948 16.8868 71.6809 16.4852 71.3798 15.9682C71.0871 15.4513 70.9408 14.8548 70.9408 14.1788C70.9408 13.4948 71.0871 12.8943 71.3798 12.3774C71.6725 11.8604 72.0822 11.4627 72.6091 11.1844C73.1359 10.906 73.7421 10.7668 74.4278 10.7668C75.0884 10.7668 75.6779 10.902 76.1964 11.1725C76.7232 11.4429 77.1287 11.8286 77.4131 12.3296C77.7057 12.8227 77.8521 13.3914 77.8521 14.0356ZM76.0333 13.5584C76.025 13.1289 75.8619 12.7869 75.5442 12.5324C75.2263 12.27 74.8375 12.1388 74.3776 12.1388C73.9428 12.1388 73.5749 12.266 73.2738 12.5205C72.9811 12.7671 72.8014 13.113 72.7345 13.5584H76.0333ZM80.8899 11.9002C81.1157 11.5502 81.4083 11.2758 81.7679 11.077C82.1358 10.8782 82.5539 10.7788 83.0222 10.7788V12.5324H82.5581C82.0062 12.5324 81.5881 12.6557 81.3038 12.9023C81.0279 13.1488 80.8899 13.5783 80.8899 14.1907V17.4833H79.1338V10.8742H80.8899V11.9002ZM92.8346 10.7788C93.6876 10.7788 94.3733 11.0293 94.8917 11.5303C95.4185 12.0234 95.6819 12.7154 95.6819 13.6061V17.4833H93.9259V13.8328C93.9259 13.3158 93.7879 12.9222 93.512 12.6517C93.236 12.3734 92.8597 12.2342 92.3831 12.2342C91.9065 12.2342 91.526 12.3734 91.2417 12.6517C90.9657 12.9222 90.8277 13.3158 90.8277 13.8328V17.4833H89.0717V13.8328C89.0717 13.3158 88.9337 12.9222 88.6578 12.6517C88.3818 12.3734 88.0055 12.2342 87.5289 12.2342C87.0439 12.2342 86.6593 12.3734 86.3749 12.6517C86.099 12.9222 85.961 13.3158 85.961 13.8328V17.4833H84.205V10.8742H85.961V11.6735C86.1868 11.3951 86.4753 11.1764 86.8265 11.0174C87.1861 10.8583 87.5791 10.7788 88.0055 10.7788C88.5491 10.7788 89.0341 10.8901 89.4605 11.1128C89.887 11.3275 90.2174 11.6377 90.4515 12.0433C90.6772 11.6616 91.0033 11.3554 91.4298 11.1247C91.8647 10.8941 92.3329 10.7788 92.8346 10.7788ZM103.808 14.0356C103.808 14.2742 103.791 14.4889 103.758 14.6798H98.6779C98.7197 15.157 98.8953 15.5308 99.2048 15.8012C99.5141 16.0716 99.8946 16.2068 100.346 16.2068C100.998 16.2068 101.463 15.9404 101.738 15.4075H103.632C103.432 16.0438 103.047 16.5687 102.479 16.9823C101.91 17.3879 101.212 17.5907 100.384 17.5907C99.7148 17.5907 99.1127 17.4515 98.5776 17.1731C98.0508 16.8868 97.6369 16.4852 97.3358 15.9682C97.0431 15.4513 96.8967 14.8548 96.8967 14.1788C96.8967 13.4948 97.0431 12.8943 97.3358 12.3774C97.6285 11.8604 98.0382 11.4627 98.5651 11.1844C99.0919 10.906 99.6981 10.7668 100.384 10.7668C101.044 10.7668 101.634 10.902 102.152 11.1725C102.679 11.4429 103.085 11.8286 103.369 12.3296C103.662 12.8227 103.808 13.3914 103.808 14.0356ZM101.989 13.5584C101.981 13.1289 101.818 12.7869 101.5 12.5324C101.182 12.27 100.794 12.1388 100.334 12.1388C99.8988 12.1388 99.5309 12.266 99.2299 12.5205C98.9371 12.7671 98.7574 13.113 98.6905 13.5584H101.989ZM106.846 11.9002C107.072 11.5502 107.364 11.2758 107.724 11.077C108.092 10.8782 108.51 10.7788 108.978 10.7788V12.5324H108.514C107.962 12.5324 107.544 12.6557 107.26 12.9023C106.984 13.1488 106.846 13.5783 106.846 14.1907V17.4833H105.09V10.8742H106.846V11.9002ZM109.709 14.1788C109.709 13.4948 109.856 12.8983 110.148 12.3893C110.441 11.8723 110.847 11.4747 111.365 11.1963C111.884 10.91 112.477 10.7668 113.146 10.7668C114.008 10.7668 114.718 10.9736 115.279 11.3872C115.847 11.7928 116.228 12.3654 116.42 13.1051H114.526C114.426 12.8188 114.254 12.5961 114.012 12.437C113.778 12.27 113.485 12.1865 113.134 12.1865C112.632 12.1865 112.235 12.3615 111.942 12.7114C111.649 13.0534 111.503 13.5425 111.503 14.1788C111.503 14.8071 111.649 15.2962 111.942 15.6461C112.235 15.9881 112.632 16.1591 113.134 16.1591C113.844 16.1591 114.309 15.8569 114.526 15.2524H116.42C116.228 15.9682 115.847 16.5369 115.279 16.9584C114.71 17.3799 113.999 17.5907 113.146 17.5907C112.477 17.5907 111.884 17.4515 111.365 17.1731C110.847 16.8868 110.441 16.4892 110.148 15.9802C109.856 15.4632 109.709 14.8627 109.709 14.1788ZM117.255 14.1549C117.255 13.4868 117.393 12.8943 117.669 12.3774C117.953 11.8604 118.334 11.4627 118.81 11.1844C119.295 10.906 119.835 10.7668 120.428 10.7668C120.947 10.7668 121.398 10.8663 121.783 11.0651C122.176 11.2639 122.49 11.5144 122.724 11.8167V10.8742H124.492V17.4833H122.724V16.517C122.498 16.8272 122.184 17.0857 121.783 17.2924C121.39 17.4913 120.934 17.5907 120.416 17.5907C119.83 17.5907 119.295 17.4475 118.81 17.1612C118.334 16.8749 117.953 16.4732 117.669 15.9563C117.393 15.4314 117.255 14.8309 117.255 14.1549ZM122.724 14.1788C122.724 13.7731 122.64 13.4272 122.473 13.1409C122.306 12.8466 122.08 12.6239 121.796 12.4728C121.511 12.3137 121.206 12.2342 120.88 12.2342C120.554 12.2342 120.253 12.3098 119.977 12.4609C119.701 12.612 119.475 12.8347 119.299 13.1289C119.132 13.4153 119.049 13.7572 119.049 14.1549C119.049 14.5526 119.132 14.9025 119.299 15.2047C119.475 15.499 119.701 15.7257 119.977 15.8847C120.261 16.0438 120.562 16.1233 120.88 16.1233C121.206 16.1233 121.511 16.0478 121.796 15.8966C122.08 15.7376 122.306 15.5149 122.473 15.2286C122.64 14.9343 122.724 14.5844 122.724 14.1788ZM125.756 14.1549C125.756 13.4868 125.894 12.8943 126.17 12.3774C126.454 11.8604 126.839 11.4627 127.324 11.1844C127.808 10.906 128.348 10.7668 128.942 10.7668C129.394 10.7668 129.824 10.8623 130.234 11.0532C130.643 11.2361 130.969 11.4826 131.212 11.7928V8.65527H132.993V17.4833H131.212V16.5051C130.994 16.8311 130.689 17.0936 130.297 17.2924C129.903 17.4913 129.448 17.5907 128.929 17.5907C128.344 17.5907 127.808 17.4475 127.324 17.1612C126.839 16.8749 126.454 16.4732 126.17 15.9563C125.894 15.4314 125.756 14.8309 125.756 14.1549ZM131.225 14.1788C131.225 13.7731 131.141 13.4272 130.974 13.1409C130.806 12.8466 130.58 12.6239 130.297 12.4728C130.012 12.3137 129.707 12.2342 129.381 12.2342C129.055 12.2342 128.754 12.3098 128.478 12.4609C128.202 12.612 127.976 12.8347 127.801 13.1289C127.633 13.4153 127.55 13.7572 127.55 14.1549C127.55 14.5526 127.633 14.9025 127.801 15.2047C127.976 15.499 128.202 15.7257 128.478 15.8847C128.762 16.0438 129.063 16.1233 129.381 16.1233C129.707 16.1233 130.012 16.0478 130.297 15.8966C130.58 15.7376 130.806 15.5149 130.974 15.2286C131.141 14.9343 131.225 14.5844 131.225 14.1788ZM137.794 17.5907C137.125 17.5907 136.523 17.4515 135.988 17.1731C135.453 16.8868 135.03 16.4852 134.721 15.9682C134.42 15.4513 134.27 14.8548 134.27 14.1788C134.27 13.5027 134.424 12.9062 134.734 12.3893C135.051 11.8723 135.482 11.4747 136.026 11.1963C136.569 10.91 137.175 10.7668 137.844 10.7668C138.513 10.7668 139.119 10.91 139.663 11.1963C140.207 11.4747 140.633 11.8723 140.943 12.3893C141.26 12.9062 141.419 13.5027 141.419 14.1788C141.419 14.8548 141.256 15.4513 140.929 15.9682C140.612 16.4852 140.177 16.8868 139.626 17.1731C139.082 17.4515 138.472 17.5907 137.794 17.5907ZM137.794 16.1352C138.112 16.1352 138.409 16.0637 138.685 15.9205C138.969 15.7694 139.194 15.5467 139.362 15.2524C139.529 14.9582 139.613 14.6003 139.613 14.1788C139.613 13.5505 139.437 13.0693 139.086 12.7353C138.743 12.3933 138.321 12.2223 137.819 12.2223C137.318 12.2223 136.895 12.3933 136.553 12.7353C136.218 13.0693 136.051 13.5505 136.051 14.1788C136.051 14.8071 136.214 15.2922 136.54 15.6342C136.874 15.9682 137.293 16.1352 137.794 16.1352Z" fill="#0261A3"/>
</g>
<g clip-path="url(#clip1_148_1385)">
<rect width="271.106" height="24.175" transform="translate(46.6582 22.8276)" fill="white"/>
<path d="M163.725 34.8608C163.671 34.5341 163.671 34.2074 163.617 33.8262C163.239 33.8807 161.789 27.7991 162.539 33.6085C162.215 34.3707 162.593 35.2419 162.108 35.9497C162 38.6721 161.784 41.3946 161.73 44.117C161.73 45.696 161.084 46.186 159.628 46.0771C158.712 45.9682 157.85 46.0227 156.933 46.0227C155.64 46.0771 155.263 45.5871 155.316 44.2803C155.64 38.2366 155.855 32.1383 156.071 26.0946C156.125 24.1344 157.041 23.3177 158.928 23.3722C160.006 23.4266 161.084 23.3722 162.161 23.3722C167.012 23.3722 167.012 23.3722 167.875 28.1092C168.36 30.886 168.845 33.6085 169.599 36.4942C170.138 33.4996 170.731 30.4505 171.216 27.4558C171.809 23.6989 172.079 23.4266 175.852 23.4266C183.774 23.4811 182.912 22.6099 183.182 30.4505C183.343 34.9152 183.451 39.3255 183.721 43.7358C183.828 45.4782 183.397 46.2949 181.565 46.0771C180.972 45.9682 180.325 45.9682 179.678 46.0771C177.738 46.3494 177.253 45.4782 177.253 43.6269C177.199 38.8899 176.929 34.1529 176.229 29.3615C175.69 32.0839 175.097 34.8063 174.612 37.5287C173.588 42.8102 170.084 44.2803 165.341 41.449C164.048 39.38 164.21 37.0387 163.725 34.8608Z" fill="#0261A3"/>
<path d="M115.809 33.772C115.809 37.3111 115.701 40.578 115.862 43.8449C115.916 45.6962 115.108 45.9802 113.545 46.0773C113.068 46.0773 112.669 46.0773 112.197 46.0773C110.046 45.9802 109.125 45.6417 109.233 43.1371C109.449 37.91 109.287 32.6286 109.287 27.3471C109.287 25.877 108.802 23.8079 110.904 23.5357C113.06 23.2635 115.593 22.4467 117.156 25.1692C119.204 28.6538 121.36 32.0296 123.516 35.4599C123.516 32.0841 123.624 28.7627 123.462 25.4958C123.408 23.7535 124.001 23.3724 125.618 23.3724C130.091 23.3179 130.091 23.2635 130.091 27.7282C130.091 32.5197 130.091 37.3656 130.091 42.157C130.091 43.6271 130.415 45.5873 128.367 45.8595C126.265 46.1317 123.839 46.894 122.33 44.3349C120.228 40.8503 118.072 37.42 115.809 33.772Z" fill="#0261A3"/>
<path d="M287.581 35.4594C287.581 31.8114 287.635 28.599 287.527 25.3865C287.527 23.9164 287.851 23.3719 289.468 23.3719C294.103 23.3175 294.103 23.263 294.103 28.0545C294.103 32.737 294.157 37.474 294.103 42.1566C294.103 43.6267 294.588 45.5868 292.432 45.8591C290.33 46.1313 287.905 46.8391 286.395 44.3345C284.401 41.0676 282.353 37.8007 279.982 33.9893C279.982 37.5829 279.928 40.6865 280.036 43.79C280.089 45.4779 279.766 46.1858 277.826 46.1313C273.406 46.0224 273.406 46.1313 273.406 41.721C273.406 36.8206 273.406 31.9203 273.406 27.0744C273.406 25.6587 273.083 23.7531 275.077 23.5897C277.071 23.4264 279.443 22.4463 280.952 24.842C283.054 28.2178 285.156 31.5936 287.581 35.4594Z" fill="#0261A3"/>
<path d="M204.039 35.5139C206.249 37.8552 206.141 40.632 205.171 43.3545C204.255 45.8591 201.776 46.1858 199.566 46.2402C196.063 46.3491 192.559 46.1858 189.056 46.2402C187.385 46.2947 186.684 45.8046 186.738 43.8989C186.846 37.7463 186.846 31.5936 186.738 25.441C186.738 23.862 187.062 23.1541 188.786 23.1541C192.074 23.2086 195.416 22.9363 198.704 23.1541C204.686 23.5897 206.573 27.0744 204.093 32.6826C203.285 33.6082 202.8 34.5338 204.039 35.5139Z" fill="#0261A3"/>
<path d="M317.764 34.5884C317.71 44.988 311.62 49.235 302.026 45.8592C299.493 44.988 297.983 43.2457 297.391 40.7411C296.474 36.8208 296.42 32.8461 297.337 28.9258C297.983 25.9311 299.762 24.0255 302.834 23.3176C305.475 22.7187 308.17 22.7731 310.811 23.0998C314.53 23.5899 316.686 25.7678 317.387 29.5792C317.764 31.376 317.71 33.1728 317.764 34.5884Z" fill="#0261A3"/>
<path d="M102.604 35.46C106.431 37.8013 105.73 41.8849 106.97 45.1518C107.185 45.6419 106.808 46.023 106.269 46.023C104.383 46.023 102.496 46.0774 100.61 46.023C99.6396 46.023 99.5857 45.2063 99.4779 44.4984C99.1006 42.9194 98.7233 41.3404 98.3999 39.707C98.0765 37.9646 96.9447 37.638 95.4355 37.6924C93.603 37.7468 94.3037 39.1625 94.1959 40.0881C94.142 40.5237 94.1959 41.0137 94.1959 41.4493C94.1959 46.1319 94.1959 46.023 89.4529 46.023C87.6742 46.023 87.1353 45.4785 87.1892 43.7362C87.297 37.5835 87.2431 31.4308 87.1892 25.2782C87.1892 24.0259 87.3509 23.1547 88.8061 23.1547C92.9023 23.0458 97.0525 22.6102 101.149 23.3725C104.436 24.0259 105.73 25.3871 106.161 28.4906C106.646 32.0842 105.892 33.6088 102.604 35.46Z" fill="#0261A3"/>
<path d="M215.305 31.5395C215.305 33.6085 215.305 35.6776 215.305 37.8011C215.305 39.7612 215.897 41.1769 218.161 41.1769C220.533 41.1769 220.91 39.5979 220.91 37.6922C220.91 33.8263 221.018 29.9061 220.91 26.0402C220.856 24.1345 221.179 23.3178 223.389 23.3723C228.186 23.5356 228.186 23.3723 228.186 28.2726C228.186 31.8662 228.294 35.5142 228.024 39.1078C227.593 44.0626 225.33 46.1317 220.425 46.4583C220.155 46.4583 219.886 46.5128 219.616 46.5128C210.777 46.8395 208.19 44.3349 208.244 35.3509C208.244 31.9751 208.298 28.6537 208.244 25.278C208.244 23.8623 208.729 23.4812 210.13 23.4267C215.412 23.2089 215.412 23.1545 215.412 28.3271C215.305 29.3616 215.305 30.4505 215.305 31.5395Z" fill="#0261A3"/>
<path d="M46.6582 34.5884C46.6582 31.4304 46.7121 28.218 46.6582 25.06C46.6582 23.8621 46.8738 23.2087 48.2212 23.1543C52.4253 22.9365 56.6293 22.6098 60.8333 23.3721C63.4743 23.8621 64.9834 25.3866 65.3607 28.0546C65.5224 29.3069 65.6302 30.5592 65.5763 31.8115C65.3068 36.1674 63.5821 37.8553 59.2164 38.2909C57.4378 38.4542 55.3381 37.9097 54.3679 39.1621C53.5055 40.3599 53.7188 42.2112 53.7727 44.008C53.8266 45.4781 53.4493 46.0226 51.8324 46.077C46.6582 46.1859 46.6582 46.2403 46.6582 41.0678C46.6582 38.9443 46.6582 36.7663 46.6582 34.5884Z" fill="#0261A3"/>
<path d="M260.416 28.9801C259.338 33.7715 258.153 38.563 257.182 43.4089C256.751 45.5324 255.943 46.1857 253.787 46.0768C249.259 45.9135 249.259 46.0224 250.445 41.5576C251.847 36.4395 253.356 31.2669 254.703 26.1488C255.242 24.2431 256.212 23.3174 258.314 23.3719C267.207 23.5897 265.267 22.174 267.746 30.5591C269.04 34.9149 270.064 39.3252 271.465 43.6267C272.058 45.5324 271.897 46.1857 269.741 46.1857C264.836 46.1313 264.89 46.2402 263.758 41.3943C262.842 37.2562 261.872 33.1726 260.901 29.0345C260.794 28.9256 260.632 28.9256 260.416 28.9801Z" fill="#0261A3"/>
<path d="M142.596 28.8713C142.057 31.1037 141.572 33.3361 141.033 35.5684C140.386 38.3998 139.578 41.1766 139.092 44.0079C138.823 45.5869 138.122 46.0225 136.613 46.0225C131.331 46.1314 131.331 46.1859 132.786 40.9044C134.134 36.0585 135.535 31.1581 136.829 26.2578C137.422 24.0799 138.554 23.2087 140.871 23.2631C149.064 23.4809 147.662 22.2286 149.818 30.0147C151.112 34.6428 152.351 39.2709 153.753 43.8446C154.292 45.5869 153.86 46.077 152.082 46.0225C145.937 45.8047 147.447 47.1659 145.937 41.1766C144.913 37.093 144.051 32.9549 143.081 28.8713C142.919 28.8713 142.758 28.8713 142.596 28.8713Z" fill="#0261A3"/>
<path d="M67.6242 34.5885C67.6242 32.5195 67.5703 30.396 67.6242 28.327C67.732 25.169 69.295 23.3722 72.4211 23.2633C75.9245 23.1544 79.2661 23.4029 82.7695 23.3485C84.0138 23.3485 84.1755 24.8293 84.1755 26.0946C84.1755 27.2617 84.1755 28.7081 82.7695 28.7081C80.7753 28.7081 78.8349 28.7626 76.8407 28.7081C75.4394 28.6537 74.6848 29.0892 74.6848 30.6682C74.6848 32.3017 75.8167 31.975 76.7329 32.0295C77.9726 32.0839 79.2661 32.1928 80.5058 32.0295C82.9312 31.7028 83.3085 32.9006 83.2007 34.9697C83.1468 36.4398 82.6078 36.8753 81.2603 36.8209C79.7512 36.7665 78.1882 36.8209 76.679 36.7665C75.4394 36.712 74.6309 36.8753 74.6848 38.4544C74.7387 39.87 75.116 40.6867 76.679 40.6323C78.296 40.5778 79.9129 40.6323 81.5298 40.6323C84.1169 40.6323 85.3027 42.4291 84.4942 44.9881C84.2786 45.696 83.7935 45.696 83.3085 45.7504C79.6762 45.98 76.0068 45.7504 72.3649 45.7504C69.131 45.5326 67.732 44.0081 67.6242 40.7956C67.5703 39.7067 67.6242 38.6177 67.5703 37.5287C67.6242 36.6031 67.6242 35.623 67.6242 34.5885Z" fill="#0261A3"/>
<path d="M241.499 46.2951C240.529 46.2951 239.505 46.3495 238.534 46.2951C234.492 45.9684 232.121 43.9538 231.15 39.9791C230.342 36.4944 230.342 32.9552 231.096 29.4705C231.905 25.6592 234.169 23.5357 238.103 23.1001C240.582 22.7734 243.116 22.8823 245.595 23.209C247.481 23.4812 248.452 23.9713 248.128 26.2036C247.859 28.2182 247.374 29.4705 245.056 28.9805C244.948 28.9805 244.894 28.9805 244.787 28.9805C242.738 29.2527 240.044 27.8915 238.804 30.1239C237.349 32.7919 237.834 35.9499 238.534 38.8901C238.804 40.0335 239.72 40.3602 240.798 40.3602C242.523 40.3602 244.248 40.5235 245.918 40.3057C248.398 39.9246 248.29 41.5581 248.613 43.1371C248.937 44.9883 248.344 45.6961 246.511 46.0228C244.84 46.2406 243.17 46.2951 241.499 46.2951Z" fill="#0261A3"/>
<path d="M162.107 35.9496C162.107 33.7716 162.107 31.5393 162.107 29.3613C163.347 30.7225 163.401 32.3015 163.617 33.8261C162.323 33.9894 162.808 35.4051 162.107 35.9496Z" fill="white"/>
<path d="M163.724 34.8608C164.263 37.0388 164.748 39.2712 165.287 41.4491C163.616 39.4889 163.724 37.1477 163.724 34.8608Z" fill="white"/>
<path d="M204.04 35.5139C203.339 35.1328 202.639 34.7517 201.83 34.2616C202.639 33.7171 203.339 33.1727 204.094 32.6826C204.04 33.6082 204.04 34.5883 204.04 35.5139Z" fill="white"/>
<path d="M193.799 39.0531C193.638 37.4741 193.584 36.1674 195.848 36.3307C197.626 36.4396 198.758 36.7663 198.704 38.8898C198.704 41.0133 197.572 41.34 195.794 41.4489C193.799 41.6122 193.53 40.6321 193.799 39.0531Z" fill="white"/>
<path d="M195.578 27.8913C197.518 27.7279 198.219 28.4902 198.219 30.2325C198.165 32.3016 196.817 32.0838 195.416 32.1927C193.584 32.356 193.745 31.2126 193.691 30.0147C193.691 28.4902 193.961 27.4557 195.578 27.8913Z" fill="white"/>
<path d="M310.327 34.5887C310.273 35.9499 310.273 37.2567 310.111 38.509C309.895 40.088 309.087 41.177 307.308 41.177C305.691 41.177 304.883 40.3058 304.613 38.7268C304.182 36.0044 304.182 33.3364 304.613 30.614C304.883 29.035 305.745 28.2183 307.362 28.2183C309.033 28.2183 309.842 29.1439 310.111 30.614C310.219 31.9752 310.219 33.3364 310.327 34.5887Z" fill="white"/>
<path d="M94.1956 30.1237C93.9261 28.5992 94.4651 27.8369 96.1898 28.0002C97.7529 28.1636 99.2081 28.1091 99.1542 30.4504C99.1003 32.7372 97.6451 32.6284 96.082 32.7917C93.8722 32.955 94.0878 31.5394 94.1956 30.1237Z" fill="white"/>
<path d="M53.7731 30.505C53.8809 29.3616 53.2341 27.8371 55.4439 27.946C57.2764 28.0548 58.57 28.4904 58.5161 30.7228C58.4622 32.683 57.5459 33.2819 55.6595 33.3363C53.0724 33.4997 53.8809 31.7573 53.7731 30.505Z" fill="white"/>
</g>
<path d="M15.4092 39.996C13.6623 38.7811 13.2712 36.7474 12.5673 34.9514C11.4722 32.1254 11.4983 32.099 14.4967 32.099C20.4413 32.099 26.386 32.099 32.3568 32.099C32.9825 32.099 33.5822 32.099 34.0776 31.6764C34.8076 31.0425 35.277 30.0917 35.1466 29.2465C35.0423 28.6391 34.0254 29.0088 33.4258 29.0088C26.1514 29.0088 18.903 29.0088 11.6547 29.0088C10.6639 29.0088 9.30811 27.3449 9.49062 26.3413C9.56884 25.8659 9.95994 26.0508 10.2207 26.0508C12.3587 26.0243 14.4706 26.0243 16.6086 26.0243C22.814 26.0243 29.0194 26.0243 35.2509 26.0243C36.3459 26.0243 37.3889 24.8622 37.2846 23.7529C37.2064 23.0134 36.6067 23.3568 36.2677 23.3568C30.5838 23.3304 24.8998 23.3568 19.1898 23.3568C15.9307 23.3568 12.6715 23.3304 9.4124 23.3832C8.63021 23.3832 8.23911 23.1455 8.00445 22.406C7.63943 21.191 7.14404 20.0025 6.72687 18.814C6.36184 17.7839 5.68394 17.2293 4.58887 17.2821C3.62417 17.3085 2.68553 17.3085 1.72083 17.2821C0.703975 17.2821 0 16.8331 0 15.7238C0 14.6674 0.730048 14.2712 1.64261 14.2448C2.8159 14.2184 3.98919 14.1656 5.16248 14.2712C7.19618 14.4561 8.63021 15.539 9.38633 17.4934C9.69921 18.3122 9.49062 19.9233 10.351 19.9233C11.2114 19.9233 13.0366 19.9233 13.0366 19.9233C13.0366 19.9233 14.4356 19.9233 15.1224 19.9233C16.035 19.9233 16.8172 19.9233 17.8601 19.9233C18.9495 19.9233 19.8156 19.9233 20.8585 19.9233C21.9014 19.9233 22.9704 19.8969 23.9873 19.9233C25.317 19.9233 26.5946 19.9233 27.8983 19.9233C28.4197 19.9233 28.8108 19.9233 29.3323 19.9233C29.9043 19.9233 30.5056 19.9233 31.1574 19.9233C32.07 19.9233 32.9825 19.9233 33.8951 19.9233C34.601 19.9233 35.1987 19.9233 35.9809 19.9233C36.7959 19.9233 37.4149 19.9233 38.4579 19.9233C38.5615 19.9233 38.6387 19.9253 38.7186 19.9233C41.7952 19.844 41.6909 20.61 40.648 23.304C39.5529 26.1564 38.5622 29.0617 37.4932 31.9405C36.6588 34.2119 35.4855 35.0571 33.0868 35.0571C27.4029 35.0571 21.7189 35.0571 16.035 35.0571C16.2436 37.1436 16.8172 37.6982 18.7987 37.6982C23.4397 37.6982 28.0808 37.6982 32.7218 37.6982C34.1037 37.6982 34.7816 38.3321 34.6773 39.3886C34.599 40.2337 33.9733 40.5243 33.3215 40.7884C31.8092 41.0525 30.6359 41.1846 28.5501 41.1846C26.8553 41.1846 25.1606 41.1846 23.3355 41.1846C21.9536 41.2374 20.5456 41.2374 19.1638 41.3166C17.808 41.4223 16.5564 40.762 15.4092 39.996Z" fill="#0261A3"/>
<path d="M29.8013 47.4011C28.2108 47.4011 27.0115 46.1597 27.0375 44.5486C27.0636 42.9111 28.263 41.749 29.8795 41.749C31.496 41.7754 32.6693 42.964 32.6432 44.6015C32.6172 46.2654 31.4439 47.4275 29.8013 47.4011Z" fill="#0261A3"/>
<path d="M19.0582 47.4274C17.4938 47.4274 16.2423 46.2124 16.2162 44.6277C16.1901 43.0431 17.4677 41.7489 19.1103 41.7753C20.6747 41.8017 21.9002 43.0431 21.8741 44.6013C21.848 46.2124 20.6226 47.4274 19.0582 47.4274Z" fill="#0261A3"/>
<path d="M10.7852 19.9433C11.0579 12.5083 16.8197 6.5878 23.6725 6.1059C31.2072 5.58958 38.1623 11.751 38.5032 19.9433" fill="#BE0A13"/>
<path d="M12.9678 19.9445C13.2064 13.7142 18.0477 8.68869 23.8095 8.31006C30.1509 7.86258 36.015 13.0602 36.2878 19.9445" fill="#EFCD07"/>
<path d="M15.5244 19.9445C15.6949 15.0567 19.4793 11.1671 23.9796 10.8573C28.9232 10.5131 33.4917 14.5748 33.7304 19.9445" fill="#63A43F"/>
<path d="M18.2188 19.9094C18.5256 17.3278 19.5825 15.1936 22.0713 14.0921C26.2989 12.199 30.4583 14.8838 31.1061 19.9438C30.3561 19.9438 29.5719 19.9438 28.8219 19.9438C26.0944 19.9438 23.3328 19.9438 20.6053 19.9438C19.7871 19.9094 19.0029 19.9094 18.2188 19.9094Z" fill="white"/>
<path d="M21.7958 19.8748H27.4894C27.7281 19.8748 27.8304 19.565 27.6258 19.4274L27.0121 18.9799C26.9099 18.911 26.8758 18.7734 26.9439 18.6357L27.5235 17.7751C27.6258 17.603 27.5235 17.3965 27.319 17.3965L26.2962 17.4998C26.1598 17.4998 26.0575 17.4309 26.0575 17.2932L25.9552 16.2606C25.9211 16.054 25.6825 15.9852 25.5461 16.1229L24.8301 16.8457C24.7279 16.949 24.5915 16.949 24.4892 16.8457L23.7732 16.1229C23.6369 15.9852 23.3982 16.054 23.3641 16.2606L23.2618 17.2932C23.2618 17.4309 23.1255 17.5342 23.0232 17.4998L22.0004 17.3965C21.7958 17.3965 21.6594 17.603 21.7958 17.7751L22.3754 18.6357C22.4436 18.7389 22.4095 18.8766 22.3072 18.9799L21.6935 19.4274C21.489 19.565 21.5913 19.8748 21.7958 19.8748Z" fill="#EECF10"/>
<path d="M24.7982 0.702385L25.4119 1.94156C25.446 1.97598 25.4801 2.0104 25.5483 2.04482L26.8779 2.25135C27.0143 2.28577 27.0825 2.45787 26.9802 2.56114L26.0256 3.52494C25.9915 3.55937 25.9574 3.62821 25.9915 3.66263L26.2301 5.00506C26.2642 5.14275 26.0937 5.24602 25.9915 5.17718L24.7982 4.52316C24.7641 4.48874 24.6959 4.48874 24.6277 4.52316L23.4344 5.17718C23.2981 5.24602 23.1617 5.14275 23.1958 5.00506L23.4344 3.66263C23.4344 3.59378 23.4344 3.55937 23.4003 3.52494L22.4457 2.56114C22.3435 2.45787 22.4116 2.28577 22.548 2.25135L23.8777 2.04482C23.9458 2.04482 23.9799 2.0104 24.014 1.94156L24.6277 0.702385C24.5595 0.5647 24.73 0.5647 24.7982 0.702385Z" fill="#EECF10"/>
<defs>
<clipPath id="clip0_148_1385">
<rect width="95.6415" height="12.6754" fill="white" transform="translate(46.0898 8.53564)"/>
</clipPath>
<clipPath id="clip1_148_1385">
<rect width="271.106" height="24.175" fill="white" transform="translate(46.6582 22.8276)"/>
</clipPath>
</defs>
</svg>
