<svg width="349" height="71" viewBox="0 0 349 71" fill="none" xmlns="http://www.w3.org/2000/svg">
<g clip-path="url(#clip0_161_79)">
<path d="M66.6764 40.8363C66.2362 40.8363 65.8383 40.7607 65.4826 40.6095C65.1329 40.4582 64.8555 40.2404 64.6505 39.9561C64.4455 39.6718 64.34 39.3361 64.334 38.9489H65.6906C65.7087 39.209 65.7991 39.4147 65.9619 39.5659C66.1307 39.7172 66.3598 39.7928 66.6492 39.7928C66.9447 39.7928 67.1768 39.7232 67.3456 39.5841C67.5144 39.4389 67.5988 39.2514 67.5988 39.0215C67.5988 38.834 67.5416 38.6797 67.427 38.5587C67.3125 38.4377 67.1678 38.344 66.9929 38.2774C66.8241 38.2048 66.5889 38.1262 66.2875 38.0415C65.8775 37.9205 65.5429 37.8026 65.2836 37.6876C65.0304 37.5666 64.8103 37.3882 64.6234 37.1522C64.4425 36.9103 64.3521 36.5896 64.3521 36.1904C64.3521 35.8153 64.4455 35.4887 64.6324 35.2104C64.8193 34.9321 65.0816 34.7204 65.4193 34.5752C65.7569 34.424 66.1428 34.3484 66.5769 34.3484C67.228 34.3484 67.7556 34.5087 68.1596 34.8293C68.5696 35.1438 68.7957 35.5854 68.8379 36.1541H67.4451C67.433 35.9363 67.3396 35.7579 67.1647 35.6187C66.9959 35.4735 66.7698 35.4009 66.4864 35.4009C66.2392 35.4009 66.0403 35.4645 65.8895 35.5915C65.7448 35.7185 65.6725 35.903 65.6725 36.145C65.6725 36.3144 65.7268 36.4566 65.8353 36.5715C65.9498 36.6804 66.0885 36.7711 66.2513 36.8437C66.4201 36.9103 66.6553 36.9889 66.9567 37.0796C67.3667 37.2006 67.7013 37.3216 67.9606 37.4426C68.2199 37.5636 68.4429 37.7451 68.6299 37.9871C68.8168 38.229 68.9102 38.5466 68.9102 38.9398C68.9102 39.2786 68.8228 39.5932 68.6479 39.8835C68.4731 40.1739 68.2168 40.4068 67.8792 40.5822C67.5416 40.7516 67.1406 40.8363 66.6764 40.8363ZM74.7379 35.7458V40.7728H73.4627V40.1376C73.2999 40.3554 73.0859 40.5278 72.8206 40.6548C72.5613 40.7758 72.278 40.8363 71.9705 40.8363C71.5786 40.8363 71.2319 40.7546 70.9304 40.5913C70.629 40.4219 70.3908 40.1769 70.2159 39.8563C70.0471 39.5296 69.9627 39.1425 69.9627 38.6948V35.7458H71.2289V38.5134C71.2289 38.9126 71.3283 39.2211 71.5273 39.4389C71.7263 39.6506 71.9976 39.7565 72.3413 39.7565C72.691 39.7565 72.9653 39.6506 73.1643 39.4389C73.3632 39.2211 73.4627 38.9126 73.4627 38.5134V35.7458H74.7379ZM77.2533 36.4717C77.4161 36.2418 77.6392 36.0513 77.9226 35.9C78.212 35.7427 78.5406 35.6641 78.9084 35.6641C79.3365 35.6641 79.7223 35.77 80.066 35.9817C80.4157 36.1934 80.69 36.4959 80.889 36.8891C81.094 37.2763 81.1965 37.7269 81.1965 38.2411C81.1965 38.7553 81.094 39.2121 80.889 39.6113C80.69 40.0045 80.4157 40.31 80.066 40.5278C79.7223 40.7456 79.3365 40.8545 78.9084 40.8545C78.5406 40.8545 78.215 40.7789 77.9316 40.6276C77.6543 40.4764 77.4282 40.2858 77.2533 40.0559V43.1684H75.9872V35.7458H77.2533V36.4717ZM79.9032 38.2411C79.9032 37.9387 79.8399 37.6785 79.7133 37.4608C79.5927 37.2369 79.4299 37.0676 79.2249 36.9526C79.0259 36.8377 78.8089 36.7802 78.5737 36.7802C78.3446 36.7802 78.1276 36.8407 77.9226 36.9617C77.7236 37.0766 77.5608 37.246 77.4342 37.4698C77.3136 37.6937 77.2533 37.9568 77.2533 38.2593C77.2533 38.5617 77.3136 38.8249 77.4342 39.0487C77.5608 39.2726 77.7236 39.445 77.9226 39.5659C78.1276 39.6809 78.3446 39.7384 78.5737 39.7384C78.8089 39.7384 79.0259 39.6778 79.2249 39.5569C79.4299 39.4359 79.5927 39.2635 79.7133 39.0396C79.8399 38.8158 79.9032 38.5496 79.9032 38.2411ZM86.7742 38.1504C86.7742 38.3319 86.7621 38.4952 86.738 38.6404H83.0752C83.1054 39.0034 83.232 39.2877 83.4551 39.4934C83.6781 39.699 83.9525 39.8019 84.2781 39.8019C84.7484 39.8019 85.083 39.5992 85.282 39.1939H86.6476C86.5029 39.6778 86.2255 40.0771 85.8155 40.3917C85.4055 40.7002 84.9021 40.8545 84.3052 40.8545C83.8228 40.8545 83.3887 40.7486 83.0029 40.5369C82.623 40.3191 82.3246 40.0136 82.1075 39.6204C81.8965 39.2272 81.791 38.7735 81.791 38.2593C81.791 37.739 81.8965 37.2823 82.1075 36.8891C82.3185 36.4959 82.614 36.1934 82.9938 35.9817C83.3737 35.77 83.8108 35.6641 84.3052 35.6641C84.7815 35.6641 85.2066 35.7669 85.5804 35.9726C85.9602 36.1783 86.2527 36.4717 86.4577 36.8528C86.6687 37.2279 86.7742 37.6604 86.7742 38.1504ZM85.4628 37.7874C85.4568 37.4608 85.3392 37.2006 85.1101 37.0071C84.881 36.8074 84.6006 36.7076 84.269 36.7076C83.9555 36.7076 83.6902 36.8044 83.4732 36.998C83.2621 37.1855 83.1325 37.4487 83.0843 37.7874H85.4628ZM88.9645 36.5261C89.1273 36.26 89.3383 36.0513 89.5976 35.9C89.8629 35.7488 90.1643 35.6732 90.502 35.6732V37.0071H90.1674C89.7694 37.0071 89.4679 37.1008 89.263 37.2884C89.064 37.4759 88.9645 37.8026 88.9645 38.2684V40.7728H87.6984V35.7458H88.9645V36.5261ZM97.577 35.6732C98.192 35.6732 98.6864 35.8637 99.0602 36.2448C99.4401 36.6199 99.63 37.1462 99.63 37.8237V40.7728H98.3638V37.9961C98.3638 37.6029 98.2644 37.3035 98.0654 37.0978C97.8664 36.8861 97.5951 36.7802 97.2514 36.7802C96.9078 36.7802 96.6335 36.8861 96.4284 37.0978C96.2295 37.3035 96.13 37.6029 96.13 37.9961V40.7728H94.8638V37.9961C94.8638 37.6029 94.7644 37.3035 94.5654 37.0978C94.3664 36.8861 94.0951 36.7802 93.7514 36.7802C93.4018 36.7802 93.1244 36.8861 92.9194 37.0978C92.7204 37.3035 92.6209 37.6029 92.6209 37.9961V40.7728H91.3548V35.7458H92.6209V36.3537C92.7837 36.142 92.9917 35.9756 93.245 35.8546C93.5043 35.7337 93.7876 35.6732 94.0951 35.6732C94.487 35.6732 94.8367 35.7579 95.1442 35.9272C95.4517 36.0906 95.6899 36.3265 95.8587 36.635C96.0215 36.3446 96.2566 36.1117 96.5641 35.9363C96.8776 35.7609 97.2153 35.6732 97.577 35.6732ZM105.489 38.1504C105.489 38.3319 105.477 38.4952 105.453 38.6404H101.79C101.82 39.0034 101.947 39.2877 102.17 39.4934C102.393 39.699 102.667 39.8019 102.993 39.8019C103.463 39.8019 103.798 39.5992 103.997 39.1939H105.363C105.218 39.6778 104.94 40.0771 104.531 40.3917C104.12 40.7002 103.617 40.8545 103.02 40.8545C102.538 40.8545 102.104 40.7486 101.718 40.5369C101.338 40.3191 101.04 40.0136 100.822 39.6204C100.611 39.2272 100.506 38.7735 100.506 38.2593C100.506 37.739 100.611 37.2823 100.822 36.8891C101.034 36.4959 101.329 36.1934 101.709 35.9817C102.089 35.77 102.526 35.6641 103.02 35.6641C103.496 35.6641 103.922 35.7669 104.295 35.9726C104.675 36.1783 104.968 36.4717 105.173 36.8528C105.384 37.2279 105.489 37.6604 105.489 38.1504ZM104.178 37.7874C104.172 37.4608 104.054 37.2006 103.825 37.0071C103.596 36.8074 103.316 36.7076 102.984 36.7076C102.67 36.7076 102.405 36.8044 102.188 36.998C101.977 37.1855 101.847 37.4487 101.799 37.7874H104.178ZM107.679 36.5261C107.842 36.26 108.053 36.0513 108.313 35.9C108.578 35.7488 108.879 35.6732 109.217 35.6732V37.0071H108.882C108.484 37.0071 108.183 37.1008 107.978 37.2884C107.779 37.4759 107.679 37.8026 107.679 38.2684V40.7728H106.413V35.7458H107.679V36.5261ZM109.744 38.2593C109.744 37.739 109.85 37.2853 110.061 36.8982C110.272 36.505 110.564 36.2025 110.938 35.9908C111.312 35.773 111.74 35.6641 112.222 35.6641C112.843 35.6641 113.356 35.8214 113.76 36.1359C114.17 36.4445 114.444 36.88 114.583 37.4426H113.217C113.145 37.2248 113.021 37.0554 112.846 36.9345C112.677 36.8074 112.466 36.7439 112.213 36.7439C111.851 36.7439 111.565 36.877 111.354 37.1432C111.143 37.4033 111.037 37.7753 111.037 38.2593C111.037 38.7372 111.143 39.1092 111.354 39.3754C111.565 39.6355 111.851 39.7656 112.213 39.7656C112.726 39.7656 113.06 39.5357 113.217 39.0759H114.583C114.444 39.6204 114.17 40.0529 113.76 40.3735C113.35 40.6941 112.837 40.8545 112.222 40.8545C111.74 40.8545 111.312 40.7486 110.938 40.5369C110.564 40.3191 110.272 40.0166 110.061 39.6295C109.85 39.2363 109.744 38.7795 109.744 38.2593ZM115.185 38.2411C115.185 37.733 115.284 37.2823 115.483 36.8891C115.688 36.4959 115.962 36.1934 116.306 35.9817C116.656 35.77 117.045 35.6641 117.473 35.6641C117.847 35.6641 118.172 35.7397 118.45 35.8909C118.733 36.0422 118.959 36.2327 119.128 36.4626V35.7458H120.403V40.7728H119.128V40.0378C118.965 40.2737 118.739 40.4703 118.45 40.6276C118.166 40.7789 117.838 40.8545 117.464 40.8545C117.042 40.8545 116.656 40.7456 116.306 40.5278C115.962 40.31 115.688 40.0045 115.483 39.6113C115.284 39.2121 115.185 38.7553 115.185 38.2411ZM119.128 38.2593C119.128 37.9508 119.068 37.6876 118.947 37.4698C118.826 37.246 118.664 37.0766 118.459 36.9617C118.254 36.8407 118.034 36.7802 117.798 36.7802C117.563 36.7802 117.346 36.8377 117.147 36.9526C116.948 37.0676 116.785 37.2369 116.659 37.4608C116.538 37.6785 116.478 37.9387 116.478 38.2411C116.478 38.5436 116.538 38.8098 116.659 39.0396C116.785 39.2635 116.948 39.4359 117.147 39.5569C117.352 39.6778 117.569 39.7384 117.798 39.7384C118.034 39.7384 118.254 39.6809 118.459 39.5659C118.664 39.445 118.826 39.2756 118.947 39.0578C119.068 38.834 119.128 38.5678 119.128 38.2593ZM121.314 38.2411C121.314 37.733 121.414 37.2823 121.613 36.8891C121.817 36.4959 122.095 36.1934 122.445 35.9817C122.794 35.77 123.183 35.6641 123.611 35.6641C123.937 35.6641 124.247 35.7367 124.543 35.8819C124.838 36.021 125.073 36.2085 125.248 36.4445V34.058H126.533V40.7728H125.248V40.0287C125.091 40.2767 124.871 40.4764 124.588 40.6276C124.304 40.7789 123.976 40.8545 123.602 40.8545C123.18 40.8545 122.794 40.7456 122.445 40.5278C122.095 40.31 121.817 40.0045 121.613 39.6113C121.414 39.2121 121.314 38.7553 121.314 38.2411ZM125.257 38.2593C125.257 37.9508 125.197 37.6876 125.076 37.4698C124.956 37.246 124.793 37.0766 124.588 36.9617C124.383 36.8407 124.163 36.7802 123.928 36.7802C123.693 36.7802 123.476 36.8377 123.277 36.9526C123.078 37.0676 122.915 37.2369 122.788 37.4608C122.667 37.6785 122.607 37.9387 122.607 38.2411C122.607 38.5436 122.667 38.8098 122.788 39.0396C122.915 39.2635 123.078 39.4359 123.277 39.5569C123.481 39.6778 123.698 39.7384 123.928 39.7384C124.163 39.7384 124.383 39.6809 124.588 39.5659C124.793 39.445 124.956 39.2756 125.076 39.0578C125.197 38.834 125.257 38.5678 125.257 38.2593ZM129.994 40.8545C129.511 40.8545 129.077 40.7486 128.692 40.5369C128.306 40.3191 128.001 40.0136 127.778 39.6204C127.561 39.2272 127.453 38.7735 127.453 38.2593C127.453 37.7451 127.564 37.2914 127.787 36.8982C128.016 36.505 128.327 36.2025 128.719 35.9908C129.111 35.773 129.548 35.6641 130.03 35.6641C130.512 35.6641 130.949 35.773 131.342 35.9908C131.733 36.2025 132.041 36.505 132.264 36.8982C132.493 37.2914 132.608 37.7451 132.608 38.2593C132.608 38.7735 132.49 39.2272 132.255 39.6204C132.026 40.0136 131.712 40.3191 131.315 40.5369C130.922 40.7486 130.482 40.8545 129.994 40.8545ZM129.994 39.7474C130.223 39.7474 130.437 39.693 130.636 39.5841C130.841 39.4692 131.004 39.2998 131.125 39.0759C131.245 38.8521 131.305 38.5799 131.305 38.2593C131.305 37.7814 131.179 37.4154 130.926 37.1613C130.678 36.9012 130.374 36.7711 130.012 36.7711C129.65 36.7711 129.346 36.9012 129.099 37.1613C128.857 37.4154 128.737 37.7814 128.737 38.2593C128.737 38.7372 128.855 39.1062 129.09 39.3663C129.331 39.6204 129.632 39.7474 129.994 39.7474Z" fill="#0261A3"/>
</g>
<g clip-path="url(#clip1_161_79)">
<rect width="284.319" height="25.1805" transform="translate(63.8728 44.7426)" fill="white"/>
<path d="M186.644 57.2761C186.588 56.9358 186.588 56.5956 186.531 56.1986C186.136 56.2553 184.614 49.9207 185.401 55.9717C185.062 56.7657 185.457 57.6731 184.949 58.4104C184.836 61.246 184.609 64.0817 184.553 66.9173C184.553 68.562 183.875 69.0724 182.348 68.959C181.388 68.8456 180.483 68.9023 179.522 68.9023C178.166 68.959 177.77 68.4486 177.826 67.0875C178.166 60.7923 178.392 54.4405 178.618 48.1453C178.674 46.1037 179.635 45.253 181.614 45.3097C182.744 45.3664 183.875 45.3097 185.005 45.3097C190.092 45.3097 190.092 45.3097 190.997 50.2437C191.505 53.1361 192.014 55.9717 192.805 58.9775C193.371 55.8583 193.993 52.6824 194.501 49.5632C195.123 45.65 195.406 45.3664 199.362 45.3664C207.671 45.4231 206.767 44.5157 207.05 52.6824C207.219 57.3328 207.332 61.9266 207.615 66.5203C207.728 68.3351 207.276 69.1858 205.354 68.959C204.732 68.8456 204.054 68.8456 203.376 68.959C201.341 69.2425 200.832 68.3351 200.832 66.4069C200.775 61.4729 200.493 56.5388 199.758 51.5481C199.193 54.3838 198.571 57.2194 198.062 60.055C196.988 65.5562 193.314 67.0875 188.34 64.1384C186.983 61.9833 187.153 59.5446 186.644 57.2761Z" fill="#0261A3"/>
<path d="M136.394 56.1419C136.394 59.8282 136.281 63.231 136.45 66.6337C136.507 68.562 135.659 68.8579 134.02 68.959C133.52 68.959 133.101 68.959 132.607 68.959C130.351 68.8579 129.385 68.5053 129.498 65.8965C129.724 60.452 129.554 54.9509 129.554 49.4497C129.554 47.9185 129.046 45.7634 131.25 45.4798C133.511 45.1963 136.168 44.3456 137.807 47.1812C139.955 50.8108 142.216 54.327 144.477 57.9C144.477 54.3838 144.59 50.9243 144.42 47.5215C144.364 45.7067 144.986 45.3097 146.681 45.3097C151.373 45.253 151.373 45.1963 151.373 49.8467C151.373 54.8375 151.373 59.8849 151.373 64.8756C151.373 66.4069 151.712 68.4486 149.564 68.7321C147.36 69.0157 144.816 69.8097 143.233 67.1442C141.029 63.5145 138.768 59.9416 136.394 56.1419Z" fill="#0261A3"/>
<path d="M316.538 57.9C316.538 54.1002 316.594 50.7541 316.481 47.4081C316.481 45.8768 316.821 45.3097 318.516 45.3097C323.377 45.253 323.377 45.1963 323.377 50.187C323.377 55.0643 323.434 59.9983 323.377 64.8756C323.377 66.4069 323.886 68.4486 321.625 68.7321C319.421 69.0157 316.877 69.753 315.294 67.1442C313.203 63.7414 311.055 60.3386 308.568 56.3687C308.568 60.1118 308.511 63.3444 308.624 66.577C308.681 68.3351 308.342 69.0724 306.307 69.0157C301.672 68.9023 301.672 69.0157 301.672 64.4219C301.672 59.3178 301.672 54.2136 301.672 49.1662C301.672 47.6916 301.333 45.7067 303.424 45.5365C305.516 45.3664 308.003 44.3456 309.585 46.8409C311.79 50.3571 313.994 53.8733 316.538 57.9Z" fill="#0261A3"/>
<path d="M228.925 57.9567C231.242 60.3953 231.129 63.2877 230.112 66.1233C229.151 68.7321 226.551 69.0724 224.233 69.1291C220.559 69.2426 216.885 69.0724 213.211 69.1291C211.459 69.1858 210.724 68.6754 210.78 66.6905C210.893 60.2819 210.893 53.8734 210.78 47.4648C210.78 45.8201 211.12 45.0828 212.928 45.0828C216.376 45.1396 219.881 44.856 223.329 45.0828C229.603 45.5365 231.581 49.1662 228.981 55.0076C228.133 55.9717 227.625 56.9358 228.925 57.9567Z" fill="#0261A3"/>
<path d="M348.192 56.9926C348.135 67.8248 341.748 72.2484 331.686 68.7322C329.03 67.8248 327.447 66.01 326.825 63.4012C325.864 59.3178 325.808 55.1778 326.769 51.0945C327.447 47.9752 329.312 45.9903 332.534 45.253C335.304 44.6292 338.13 44.6859 340.9 45.0262C344.8 45.5366 347.061 47.8051 347.796 51.775C348.192 53.6465 348.135 55.5181 348.192 56.9926Z" fill="#0261A3"/>
<path d="M122.545 57.9002C126.559 60.3388 125.824 64.5923 127.124 67.9951C127.35 68.5055 126.954 68.9025 126.389 68.9025C124.411 68.9025 122.432 68.9592 120.454 68.9025C119.436 68.9025 119.38 68.0518 119.267 67.3145C118.871 65.6699 118.476 64.0252 118.136 62.3238C117.797 60.509 116.61 60.1687 115.028 60.2254C113.106 60.2821 113.841 61.7567 113.727 62.7208C113.671 63.1745 113.727 63.6849 113.727 64.1386C113.727 69.0159 113.727 68.9025 108.753 68.9025C106.888 68.9025 106.323 68.3354 106.379 66.5206C106.492 60.112 106.436 53.7034 106.379 47.2949C106.379 45.9905 106.549 45.0831 108.075 45.0831C112.371 44.9696 116.723 44.5159 121.019 45.3099C124.467 45.9905 125.824 47.4083 126.276 50.6409C126.785 54.384 125.993 55.9719 122.545 57.9002Z" fill="#0261A3"/>
<path d="M240.738 53.8166C240.738 55.9717 240.738 58.1268 240.738 60.3386C240.738 62.3803 241.36 63.8548 243.734 63.8548C246.221 63.8548 246.617 62.2101 246.617 60.2252C246.617 56.1986 246.73 52.1152 246.617 48.0886C246.56 46.1037 246.9 45.253 249.217 45.3097C254.248 45.4798 254.248 45.3097 254.248 50.4138C254.248 54.1569 254.361 57.9567 254.078 61.6997C253.626 66.8606 251.252 69.0157 246.108 69.356C245.826 69.356 245.543 69.4127 245.26 69.4127C235.99 69.753 233.277 67.1442 233.334 57.7865C233.334 54.2703 233.39 50.8108 233.334 47.2946C233.334 45.8201 233.842 45.4231 235.312 45.3664C240.851 45.1395 240.851 45.0828 240.851 50.4706C240.738 51.5481 240.738 52.6824 240.738 53.8166Z" fill="#0261A3"/>
<path d="M63.8728 56.9927C63.8728 53.7033 63.9293 50.3573 63.8728 47.0679C63.8728 45.8202 64.0989 45.1397 65.512 45.083C69.9209 44.8561 74.3299 44.5159 78.7388 45.3098C81.5085 45.8202 83.0912 47.4082 83.4868 50.1871C83.6564 51.4915 83.7695 52.7959 83.7129 54.1003C83.4303 58.6374 81.6215 60.3955 77.043 60.8492C75.1777 61.0193 72.9757 60.4522 71.9583 61.7566C71.0539 63.0043 71.2775 64.9325 71.3341 66.804C71.3906 68.3353 70.9949 68.9024 69.2992 68.9591C63.8728 69.0726 63.8728 69.1293 63.8728 63.7415C63.8728 61.5297 63.8728 59.2612 63.8728 56.9927Z" fill="#0261A3"/>
<path d="M288.05 51.1511C286.919 56.1418 285.676 61.1326 284.658 66.18C284.206 68.3918 283.358 69.0724 281.097 68.959C276.349 68.7888 276.349 68.9023 277.592 64.2518C279.062 58.9208 280.645 53.5331 282.058 48.202C282.623 46.2171 283.641 45.253 285.845 45.3097C295.172 45.5365 293.137 44.062 295.737 52.7958C297.093 57.3328 298.167 61.9266 299.637 66.4069C300.259 68.3918 300.089 69.0724 297.828 69.0724C292.685 69.0157 292.741 69.1291 291.554 64.0817C290.593 59.7715 289.576 55.518 288.558 51.2078C288.445 51.0944 288.276 51.0944 288.05 51.1511Z" fill="#0261A3"/>
<path d="M164.487 51.0377C163.921 53.3629 163.413 55.6881 162.847 58.0134C162.169 60.9624 161.321 63.8548 160.813 66.8039C160.53 68.4486 159.795 68.9023 158.212 68.9023C152.673 69.0157 152.673 69.0724 154.199 63.5712C155.612 58.5238 157.082 53.4196 158.439 48.3155C159.06 46.0469 160.247 45.1395 162.678 45.1962C171.27 45.4231 169.8 44.1187 172.061 52.2287C173.418 57.0493 174.718 61.8699 176.187 66.6337C176.752 68.4485 176.3 68.959 174.435 68.9023C167.991 68.6754 169.574 70.0932 167.991 63.8548C166.917 59.6013 166.013 55.2912 164.995 51.0377C164.826 51.0377 164.656 51.0377 164.487 51.0377Z" fill="#0261A3"/>
<path d="M85.861 56.9925C85.861 54.8375 85.8044 52.6257 85.861 50.4706C85.974 47.1812 87.6132 45.3097 90.8917 45.1963C94.5658 45.0828 98.0703 45.3417 101.744 45.285C103.049 45.285 103.219 46.8274 103.219 48.1453C103.219 49.361 103.219 50.8676 101.744 50.8676C99.653 50.8676 97.6181 50.9243 95.5267 50.8676C94.057 50.8108 93.2657 51.2645 93.2657 52.9092C93.2657 54.6106 94.4527 54.2703 95.4136 54.327C96.7137 54.3838 98.0703 54.4972 99.3704 54.327C101.914 53.9868 102.31 55.2344 102.197 57.3895C102.14 58.9208 101.575 59.3745 100.162 59.3178C98.579 59.2611 96.9398 59.3178 95.3571 59.2611C94.057 59.2044 93.2092 59.3745 93.2657 61.0192C93.3222 62.4937 93.7179 63.3444 95.3571 63.2877C97.0528 63.231 98.7486 63.2877 100.444 63.2877C103.157 63.2877 104.401 65.1592 103.553 67.8247C103.327 68.562 102.818 68.562 102.31 68.6187C98.5003 68.8579 94.6521 68.6187 90.8327 68.6187C87.4412 68.3918 85.974 66.8039 85.861 63.4578C85.8044 62.3236 85.861 61.1893 85.8044 60.055C85.861 59.0909 85.861 58.0701 85.861 56.9925Z" fill="#0261A3"/>
<path d="M268.209 69.186C267.192 69.186 266.118 69.2427 265.1 69.186C260.861 68.8457 258.374 66.7473 257.357 62.6073C256.509 58.9777 256.509 55.2913 257.3 51.6617C258.148 47.6918 260.522 45.48 264.648 45.0263C267.248 44.686 269.905 44.7994 272.505 45.1397C274.483 45.4233 275.501 45.9337 275.162 48.2589C274.879 50.3573 274.37 51.6617 271.94 51.1513C271.827 51.1513 271.77 51.1513 271.657 51.1513C269.509 51.4349 266.683 50.017 265.383 52.3423C263.857 55.1212 264.366 58.4105 265.1 61.473C265.383 62.664 266.344 63.0043 267.474 63.0043C269.283 63.0043 271.092 63.1744 272.844 62.9476C275.444 62.5506 275.331 64.252 275.671 65.8966C276.01 67.8249 275.388 68.5622 273.466 68.9024C271.714 69.1293 269.962 69.186 268.209 69.186Z" fill="#0261A3"/>
<path d="M184.948 58.4104C184.948 56.1418 184.948 53.8166 184.948 51.5481C186.249 52.9659 186.305 54.6106 186.531 56.1986C185.175 56.3687 185.683 57.8432 184.948 58.4104Z" fill="white"/>
<path d="M186.644 57.2761C187.21 59.5446 187.718 61.8699 188.284 64.1384C186.531 62.0967 186.644 59.6581 186.644 57.2761Z" fill="white"/>
<path d="M228.925 57.9567C228.19 57.5597 227.455 57.1627 226.607 56.6523C227.455 56.0851 228.19 55.518 228.981 55.0076C228.925 55.9717 228.925 56.9926 228.925 57.9567Z" fill="white"/>
<path d="M218.185 61.643C218.016 59.9983 217.959 58.6372 220.333 58.8074C222.198 58.9208 223.385 59.2611 223.329 61.4729C223.329 63.6847 222.142 64.025 220.277 64.1384C218.185 64.3085 217.902 63.2877 218.185 61.643Z" fill="white"/>
<path d="M220.05 50.0169C222.085 49.8467 222.82 50.6407 222.82 52.4555C222.764 54.6106 221.35 54.3838 219.881 54.4972C217.959 54.6673 218.129 53.4763 218.072 52.2287C218.072 50.6407 218.355 49.5632 220.05 50.0169Z" fill="white"/>
<path d="M340.391 56.9926C340.335 58.4104 340.335 59.7715 340.165 61.0759C339.939 62.7206 339.091 63.8548 337.226 63.8548C335.53 63.8548 334.682 62.9474 334.4 61.3027C333.947 58.4671 333.947 55.6882 334.4 52.8525C334.682 51.2078 335.587 50.3571 337.282 50.3571C339.035 50.3571 339.883 51.3213 340.165 52.8525C340.278 54.2703 340.278 55.6882 340.391 56.9926Z" fill="white"/>
<path d="M113.728 52.3421C113.445 50.7541 114.01 49.9601 115.819 50.1303C117.458 50.3004 118.984 50.2437 118.928 52.6824C118.871 55.0643 117.345 54.9509 115.706 55.121C113.388 55.2911 113.615 53.8166 113.728 52.3421Z" fill="white"/>
<path d="M71.3341 52.7391C71.4471 51.5481 70.7688 49.9601 73.0863 50.0736C75.0082 50.187 76.3647 50.6407 76.3082 52.9659C76.2517 55.0076 75.2908 55.6314 73.3124 55.6881C70.5992 55.8583 71.4471 54.0435 71.3341 52.7391Z" fill="white"/>
</g>
<path d="M23.0848 59.0214C20.4677 57.2013 19.8818 54.1546 18.8272 51.464C17.1866 47.2303 17.2257 47.1907 21.7176 47.1907C30.6234 47.1907 39.5292 47.1907 48.4741 47.1907C49.4115 47.1907 50.3099 47.1907 51.0521 46.5576C52.1458 45.608 52.8489 44.1836 52.6536 42.9174C52.4973 42.0074 50.974 42.5613 50.0756 42.5613C39.1777 42.5613 28.3189 42.5613 17.46 42.5613C15.9757 42.5613 13.9446 40.0686 14.218 38.565C14.3352 37.8528 14.9211 38.1298 15.3117 38.1298C18.5147 38.0902 21.6786 38.0902 24.8815 38.0902C34.1779 38.0902 43.4743 38.0902 52.8098 38.0902C54.4503 38.0902 56.0128 36.3492 55.8565 34.6874C55.7393 33.5795 54.841 34.0939 54.3332 34.0939C45.818 34.0543 37.3028 34.0939 28.7485 34.0939C23.866 34.0939 18.9834 34.0543 14.1008 34.1335C12.929 34.1335 12.3431 33.7774 11.9916 32.6695C11.4447 30.8494 10.7026 29.0688 10.0776 27.2883C9.53076 25.7452 8.51519 24.9142 6.87465 24.9934C5.42941 25.0329 4.02323 25.0329 2.57799 24.9934C1.05463 24.9934 0 24.3207 0 22.6589C0 21.0762 1.09369 20.4827 2.46081 20.4431C4.21853 20.4035 5.97626 20.3244 7.73398 20.4827C10.7807 20.7597 12.929 22.3819 14.0618 25.3099C14.5305 26.5365 14.218 28.9501 15.507 28.9501C16.796 28.9501 19.5303 28.9501 19.5303 28.9501C19.5303 28.9501 21.6261 28.9501 22.6551 28.9501C24.0222 28.9501 25.194 28.9501 26.7564 28.9501C28.3885 28.9501 29.686 28.9501 31.2484 28.9501C32.8108 28.9501 34.4123 28.9106 35.9357 28.9501C37.9278 28.9501 39.8417 28.9501 41.7947 28.9501C42.576 28.9501 43.1619 28.9501 43.9431 28.9501C44.8 28.9501 45.7008 28.9501 46.6773 28.9501C48.0444 28.9501 49.4115 28.9501 50.7787 28.9501C51.8363 28.9501 52.7317 28.9501 53.9035 28.9501C55.1245 28.9501 56.0518 28.9501 57.6143 28.9501C57.7695 28.9501 57.8852 28.9532 58.0049 28.9501C62.614 28.8314 62.4578 29.9789 60.8953 34.0148C59.2548 38.288 57.7705 42.6405 56.169 46.9533C54.9191 50.3561 53.1614 51.6223 49.5678 51.6223C41.0526 51.6223 32.5374 51.6223 24.0222 51.6223C24.3347 54.7481 25.194 55.579 28.1626 55.579C35.1154 55.579 42.0682 55.579 49.0209 55.579C51.0911 55.579 52.1067 56.5287 51.9505 58.1114C51.8333 59.3775 50.8958 59.8128 49.9193 60.2084C47.6538 60.6041 45.8961 60.8019 42.7713 60.8019C40.2323 60.8019 37.6934 60.8019 34.9592 60.8019C32.889 60.8811 30.7797 60.8811 28.7095 60.9998C26.6783 61.158 24.8034 60.1689 23.0848 59.0214Z" fill="#0261A3"/>
<path d="M44.6462 70.1159C42.2635 70.1159 40.4667 68.2562 40.5058 65.8426C40.5448 63.3894 42.3416 61.6485 44.7633 61.6485C47.1851 61.688 48.9428 63.4686 48.9038 65.9218C48.8647 68.4145 47.107 70.1555 44.6462 70.1159Z" fill="#0261A3"/>
<path d="M28.5533 70.1555C26.2097 70.1555 24.3348 68.3354 24.2958 65.9613C24.2567 63.5873 26.1707 61.6485 28.6315 61.688C30.9751 61.7276 32.8109 63.5873 32.7719 65.9218C32.7328 68.3354 30.897 70.1555 28.5533 70.1555Z" fill="#0261A3"/>
<path d="M16.155 28.9807C16.5636 17.8422 25.1955 8.97265 35.4618 8.25071C46.7496 7.4772 57.1691 16.7077 57.6799 28.9807" fill="#BE0A13"/>
<path d="M19.4238 28.9808C19.7814 19.6471 27.0342 12.1183 35.666 11.5511C45.1662 10.8807 53.9512 18.6674 54.3599 28.9808" fill="#EFCD07"/>
<path d="M23.2546 28.9807C23.51 21.6582 29.1795 15.8311 35.9215 15.367C43.3275 14.8513 50.1717 20.9362 50.5293 28.9807" fill="#63A43F"/>
<path d="M27.2896 28.9292C27.7492 25.0617 29.3326 21.8645 33.0611 20.2143C39.3946 17.3781 45.6259 21.4004 46.5963 28.9808C45.4726 28.9808 44.2979 28.9808 43.1742 28.9808C39.0881 28.9808 34.951 28.9808 30.8649 28.9808C29.639 28.9292 28.4643 28.9292 27.2896 28.9292Z" fill="#FBFCF8"/>
<path d="M32.6525 28.8777H41.1822C41.5398 28.8777 41.693 28.4136 41.3865 28.2073L40.4672 27.5369C40.314 27.4338 40.2629 27.2275 40.365 27.0213L41.2333 25.7321C41.3866 25.4742 41.2333 25.1648 40.9269 25.1648L39.3946 25.3195C39.1903 25.3195 39.0371 25.2164 39.0371 25.0101L38.8838 23.4631C38.8328 23.1537 38.4752 23.0506 38.2709 23.2569L37.1983 24.3398C37.0451 24.4945 36.8408 24.4945 36.6876 24.3398L35.615 23.2569C35.4107 23.0506 35.0531 23.1537 35.0021 23.4631L34.8488 25.0101C34.8488 25.2164 34.6445 25.3711 34.4913 25.3195L32.959 25.1648C32.6526 25.1648 32.4482 25.4742 32.6525 25.7321L33.5208 27.0213C33.623 27.176 33.5719 27.3822 33.4187 27.5369L32.4993 28.2073C32.1929 28.4136 32.3461 28.8777 32.6525 28.8777Z" fill="#EECF10"/>
<path d="M37.1473 0.154702L38.0667 2.01112C38.1178 2.06269 38.1689 2.11425 38.271 2.16582L40.263 2.47522C40.4673 2.52679 40.5694 2.78462 40.4162 2.93933L38.9861 4.38322C38.935 4.43478 38.8839 4.53791 38.935 4.58948L39.2925 6.6006C39.3436 6.80687 39.0882 6.96158 38.935 6.85845L37.1473 5.87866C37.0963 5.82709 36.9941 5.82709 36.892 5.87866L35.1043 6.85845C34.9 6.96158 34.6957 6.80687 34.7468 6.6006L35.1043 4.58948C35.1043 4.48635 35.1043 4.43478 35.0532 4.38322L33.6231 2.93933C33.4699 2.78462 33.572 2.52679 33.7763 2.47522L35.7683 2.16582C35.8704 2.16582 35.9215 2.11426 35.9726 2.01112L36.892 0.154702C36.7898 -0.0515672 37.0452 -0.0515672 37.1473 0.154702Z" fill="#EECF10"/>
<defs>
<clipPath id="clip0_161_79">
<rect width="68.96" height="9.6412" fill="white" transform="translate(63.8728 33.967)"/>
</clipPath>
<clipPath id="clip1_161_79">
<rect width="284.319" height="25.1805" fill="white" transform="translate(63.8728 44.7426)"/>
</clipPath>
</defs>
</svg>
