<svg width="14" height="14" viewBox="0 0 14 14" fill="none" xmlns="http://www.w3.org/2000/svg">
<path d="M6.65999 1.01283C4.73142 1.15219 3.01921 2.13733 1.98268 3.69909C1.48014 4.45838 1.17463 5.27297 1.04239 6.19804C0.98704 6.59212 0.984714 7.34419 1.04239 7.74781C1.37667 10.1747 3.07921 12.1497 5.38542 12.784C7.06395 13.2454 8.83396 12.9619 10.3152 11.9887C11.0006 11.5418 11.645 10.8859 12.078 10.2034C12.8524 8.98046 13.1553 7.50507 12.9245 6.08022C12.5421 3.7183 10.8059 1.79121 8.52857 1.20015C7.89612 1.03681 7.23232 0.969522 6.65999 1.01283ZM7.56906 1.40679C8.20151 1.47408 8.89653 1.67828 9.48563 1.96665C11.1233 2.77158 12.2319 4.24929 12.5565 6.06101C12.6287 6.4743 12.6359 7.39937 12.5685 7.80788C12.3328 9.21353 11.6859 10.3958 10.6711 11.2679C9.88469 11.9454 8.92996 12.3899 7.88632 12.5654C7.56648 12.6207 6.83301 12.6399 6.4795 12.6038C4.92844 12.4452 3.49039 11.6643 2.55733 10.4725C1.92965 9.67234 1.50402 8.63189 1.39578 7.62277C1.3621 7.32241 1.3621 6.73135 1.39578 6.43099C1.54002 5.09263 2.22059 3.73506 3.18011 2.8604C4.06272 2.05548 5.19293 1.53648 6.33526 1.40911C6.60954 1.37804 7.29489 1.37559 7.56906 1.40679Z" fill="#606060" stroke="#606060"/>
<path d="M6.69076 3.42485C6.59998 3.48803 6.59998 3.49017 6.59998 5.30373V7.06474L6.65355 7.11107C6.77455 7.21854 10.3078 9.7714 10.3567 9.78824C10.4451 9.81988 10.5313 9.78609 10.5731 9.70608C10.6081 9.64077 10.6081 9.62607 10.5778 9.57127C10.5568 9.53126 9.88883 9.03414 8.76457 8.21686L6.98409 6.92145L6.97248 5.20055L6.96086 3.47752L6.90504 3.43751C6.84448 3.39332 6.7467 3.38699 6.69076 3.42485Z" fill="#606060" stroke="#606060"/>
</svg>
