<svg width="23" height="24" viewBox="0 0 23 24" fill="none" xmlns="http://www.w3.org/2000/svg">
<path d="M12.154 1.36953L14.9672 8.27632L22.1024 8.94747C22.4173 8.97601 22.6502 9.26681 22.6228 9.59685C22.6097 9.75774 22.5371 9.89798 22.4296 9.99654L22.43 9.99673L17.032 14.9392L18.6285 22.2649C18.6992 22.5883 18.5062 22.9105 18.1977 22.9846C18.0397 23.0227 17.8821 22.988 17.7562 22.9018L11.6251 19.0583L5.47452 22.9142C5.2031 23.0843 4.85147 22.9916 4.68908 22.707C4.61013 22.5688 4.59061 22.4104 4.6223 22.2649H4.62176L6.21841 14.9392L0.820461 9.99691C0.582521 9.77858 0.558531 9.39935 0.766571 9.14985C0.872382 9.02294 1.01812 8.95423 1.16672 8.94578L8.28306 8.27632L11.0977 1.36578C11.2216 1.06033 11.5582 0.918216 11.8495 1.04813C11.9927 1.11196 12.0983 1.22986 12.154 1.36953ZM14.0468 9.07682L11.6251 3.13087L9.20331 9.07682L9.20259 9.07663C9.12238 9.27394 8.94353 9.41944 8.72546 9.43934L2.58343 10.0172L7.20598 14.2497C7.37588 14.3886 7.46343 14.6229 7.41223 14.8579L6.0383 21.1617L11.321 17.8499C11.4975 17.7341 11.7281 17.7237 11.9193 17.8437L17.2121 21.1617L15.8384 14.8579L15.8389 14.8576C15.7938 14.6494 15.8561 14.4224 16.0201 14.272L20.667 10.0172L14.5567 9.44234C14.3404 9.43521 14.1372 9.29929 14.0468 9.07682Z" fill="#0261A3" stroke="#0261A3" stroke-width="0.5"/>
</svg>
