<svg width="15" height="16" viewBox="0 0 15 16" fill="none" xmlns="http://www.w3.org/2000/svg">
<path d="M8.65385 1.65385C8.65385 1.01562 8.13822 0.5 7.5 0.5C6.86178 0.5 6.34615 1.01562 6.34615 1.65385V6.84615H1.15385C0.515625 6.84615 0 7.36178 0 8C0 8.63822 0.515625 9.15385 1.15385 9.15385H6.34615V14.3462C6.34615 14.9844 6.86178 15.5 7.5 15.5C8.13822 15.5 8.65385 14.9844 8.65385 14.3462V9.15385H13.8462C14.4844 9.15385 15 8.63822 15 8C15 7.36178 14.4844 6.84615 13.8462 6.84615H8.65385V1.65385Z" fill="white"/>
</svg>
