<svg width="24" height="24" viewBox="0 0 24 24" fill="none" xmlns="http://www.w3.org/2000/svg">
<path d="M21.0787 12.7111H13.9146C13.1128 12.7111 12.4612 13.3769 12.4612 14.1961V21.516C12.4612 22.3342 13.1128 23 13.9146 23H21.0787C21.8795 23 22.5311 22.3342 22.5311 21.516V14.1961C22.5311 13.3779 21.8795 12.7111 21.0787 12.7111ZM21.7756 21.516C21.7756 21.9087 21.464 22.2271 21.0796 22.2271H13.9155C13.5312 22.2271 13.2186 21.9087 13.2186 21.516V14.1961C13.2186 13.8034 13.5312 13.484 13.9155 13.484H21.0796C21.464 13.484 21.7756 13.8034 21.7756 14.1961V21.516Z" fill="#0261A3" stroke="#0261A3"/>
<path d="M21.0787 1H13.9146C13.1128 1 12.4612 1.66579 12.4612 2.485V9.80483C12.4612 10.6231 13.1128 11.2879 13.9146 11.2879H21.0787C21.8795 11.2879 22.5311 10.6231 22.5311 9.80483V2.485C22.5311 1.66579 21.8795 1 21.0787 1ZM21.7756 9.80483C21.7756 10.1966 21.464 10.515 21.0796 10.515H13.9155C13.5312 10.515 13.2186 10.1966 13.2186 9.80483V2.485C13.2186 2.09228 13.5312 1.77289 13.9155 1.77289H21.0796C21.464 1.77289 21.7756 2.09228 21.7756 2.485V9.80483Z" fill="#0261A3" stroke="#0261A3"/>
<path d="M9.14874 12.7111H1.98465C1.18287 12.7111 0.53125 13.3769 0.53125 14.1961V21.516C0.53125 22.3342 1.18287 23 1.98465 23H9.14874C9.94958 23 10.6003 22.3342 10.6003 21.516V14.1961C10.6003 13.3779 9.94863 12.7111 9.14874 12.7111ZM9.84381 21.516C9.84381 21.9087 9.53216 22.2271 9.14874 22.2271H1.98465C1.60029 22.2271 1.2877 21.9087 1.2877 21.516V14.1961C1.2877 13.8034 1.60029 13.484 1.98465 13.484H9.14874C9.53216 13.484 9.84381 13.8034 9.84381 14.1961V21.516Z" fill="#0261A3" stroke="#0261A3"/>
<path d="M9.14874 1H1.98465C1.18287 1 0.53125 1.66579 0.53125 2.485V9.80483C0.53125 10.6231 1.18287 11.2879 1.98465 11.2879H9.14874C9.94958 11.2879 10.6003 10.6231 10.6003 9.80483V2.485C10.6003 1.66579 9.94863 1 9.14874 1ZM9.84381 9.80483C9.84381 10.1966 9.53216 10.515 9.14874 10.515H1.98465C1.60029 10.515 1.2877 10.1966 1.2877 9.80483V2.485C1.28676 2.09132 1.59935 1.77193 1.98465 1.77193H9.14874C9.53216 1.77193 9.84381 2.09132 9.84381 2.48404V9.80483Z" fill="#0261A3" stroke="#0261A3"/>
</svg>
