<svg width="39" height="40" viewBox="0 0 39 40" fill="none" xmlns="http://www.w3.org/2000/svg">
<path d="M1.90743 25.0223C2.059 25.721 2.45151 26.344 3.01615 26.7822C3.53736 27.1673 4.16513 27.3812 4.81291 27.3943L5.23331 27.356L6.39932 27.1838C7.18396 27.0748 7.89366 26.6597 8.37351 26.0289C8.85336 25.3982 9.06438 24.6031 8.9605 23.8172L8.11854 17.8684C8.0635 17.4795 7.93214 17.1053 7.73203 16.7674C7.53192 16.4295 7.267 16.1345 6.95253 15.8994C6.57051 15.6088 6.12546 15.4123 5.65342 15.3258C5.86685 11.7953 7.4187 8.47947 9.99219 6.05515C12.5657 3.63083 15.9667 2.28088 19.501 2.28088C23.0354 2.28088 26.4364 3.63083 29.0099 6.05515C31.5834 8.47947 33.1352 11.7953 33.3487 15.3258C32.8764 15.4123 32.4311 15.6089 32.049 15.8997C31.7316 16.1319 31.4646 16.4261 31.2642 16.7645C31.0638 17.103 30.9341 17.4786 30.883 17.8687L30.0419 23.8175C29.9861 24.2069 30.008 24.6035 30.1065 24.9844C30.2049 25.3652 30.3779 25.7228 30.6153 26.0363C31.067 26.6262 31.7204 27.0284 32.4503 27.1655C32.0049 30.2413 30.4057 33.0318 27.9778 34.9698C26.0864 36.5066 23.7739 37.4336 21.3454 37.6284C21.5939 37.286 21.7457 36.8829 21.7849 36.4615C21.8265 36.1054 21.7973 35.7447 21.6988 35.4C21.6004 35.0553 21.4348 34.7335 21.2114 34.4532C20.9915 34.1734 20.7172 33.941 20.4051 33.7701C20.0931 33.5992 19.7497 33.4932 19.3956 33.4586C19.0398 33.4169 18.6793 33.4462 18.3348 33.5447C17.9904 33.6432 17.6689 33.809 17.3888 34.0325C17.1075 34.251 16.8741 34.5251 16.7031 34.8377C16.5322 35.1503 16.4273 35.4948 16.3949 35.8497C16.3514 36.2044 16.379 36.5642 16.476 36.9082C16.573 37.2521 16.7375 37.5733 16.96 37.8528C17.1824 38.1324 17.4583 38.3648 17.7716 38.5365C18.0848 38.7081 18.429 38.8156 18.7842 38.8526C19.2909 38.9219 19.802 38.9539 20.3133 38.9482C23.561 38.9396 26.6976 37.7649 29.153 35.6377C31.6083 33.5104 33.2192 30.572 33.6927 27.3566H33.7506L34.171 27.3948C34.8198 27.3879 35.4494 27.1734 35.9677 26.7827C36.5578 26.348 36.9611 25.7054 37.0961 24.9846C38.1088 19.8393 37.993 18.6533 37.993 18.6533C38.0447 17.8955 37.8071 17.1462 37.3282 16.5569C36.8493 15.9675 36.1647 15.582 35.4128 15.4781L34.6099 15.3444C34.4059 11.472 32.7251 7.82549 29.914 5.15664C27.1028 2.48778 23.3756 1 19.5008 1C15.6259 1 11.8987 2.48778 9.08756 5.15664C6.27642 7.82549 4.59561 11.472 4.39164 15.3444L3.56965 15.4781C2.81702 15.5848 2.13327 15.9744 1.65757 16.5677C1.18186 17.161 0.949958 17.9135 1.00905 18.6719C1.0722 20.8154 1.37302 22.9452 1.90598 25.0223" fill="white"/>
<path d="M1.90743 25.0223C2.059 25.721 2.45151 26.3441 3.01615 26.7822C3.53736 27.1673 4.16513 27.3812 4.81291 27.3943L5.23331 27.356L6.39932 27.1838C7.18396 27.0748 7.89366 26.6597 8.37351 26.0289C8.85336 25.3982 9.06438 24.6031 8.9605 23.8172L8.11854 17.8684C8.0635 17.4795 7.93214 17.1053 7.73203 16.7674C7.53192 16.4295 7.267 16.1345 6.95253 15.8994C6.57051 15.6088 6.12546 15.4123 5.65342 15.3258C5.86685 11.7953 7.4187 8.47947 9.99219 6.05515C12.5657 3.63083 15.9667 2.28088 19.501 2.28088C23.0354 2.28088 26.4364 3.63083 29.0099 6.05515C31.5834 8.47947 33.1352 11.7953 33.3487 15.3258C32.8764 15.4123 32.4311 15.6089 32.049 15.8997C31.7316 16.1319 31.4646 16.4261 31.2642 16.7645C31.0638 17.103 30.9341 17.4786 30.883 17.8687L30.0419 23.8175C29.9861 24.2069 30.008 24.6035 30.1065 24.9844C30.2049 25.3652 30.3779 25.7228 30.6153 26.0363C31.067 26.6262 31.7204 27.0284 32.4503 27.1655C32.0049 30.2413 30.4057 33.0318 27.9778 34.9698C26.0864 36.5066 23.7739 37.4336 21.3454 37.6284C21.5939 37.286 21.7457 36.8829 21.7849 36.4615C21.8265 36.1054 21.7973 35.7447 21.6988 35.4C21.6004 35.0553 21.4348 34.7335 21.2114 34.4532C20.9915 34.1734 20.7172 33.941 20.4051 33.7701C20.0931 33.5992 19.7497 33.4932 19.3956 33.4586C19.0398 33.4169 18.6793 33.4462 18.3348 33.5447C17.9904 33.6432 17.6689 33.809 17.3888 34.0325C17.1075 34.251 16.8741 34.5251 16.7031 34.8377C16.5322 35.1503 16.4273 35.4948 16.3949 35.8497C16.3514 36.2044 16.379 36.5642 16.476 36.9082C16.573 37.2521 16.7375 37.5733 16.96 37.8528C17.1824 38.1324 17.4583 38.3648 17.7716 38.5365C18.0848 38.7081 18.429 38.8156 18.7842 38.8526C19.2909 38.9219 19.802 38.9539 20.3133 38.9482C23.561 38.9396 26.6976 37.7649 29.153 35.6377C31.6083 33.5104 33.2192 30.572 33.6927 27.3566H33.7506L34.171 27.3948C34.8198 27.3879 35.4494 27.1734 35.9677 26.7827C36.5578 26.348 36.9611 25.7054 37.0961 24.9846C38.1088 19.8393 37.993 18.6533 37.993 18.6533C38.0447 17.8955 37.8071 17.1462 37.3282 16.5569C36.8493 15.9675 36.1647 15.582 35.4128 15.4781L34.6099 15.3444C34.4059 11.472 32.7251 7.82549 29.914 5.15664C27.1028 2.48778 23.3756 1 19.5008 1C15.6259 1 11.8987 2.48778 9.08756 5.15664C6.27642 7.82549 4.59561 11.472 4.39164 15.3444L3.56965 15.4781C2.81702 15.5848 2.13327 15.9744 1.65757 16.5677C1.18186 17.161 0.949958 17.9135 1.00905 18.6719C1.0722 20.8154 1.37302 22.9452 1.90598 25.0223" stroke="white"/>
</svg>
