<svg width="442" height="97" viewBox="0 0 442 97" fill="none" xmlns="http://www.w3.org/2000/svg">
<path fill-rule="evenodd" clip-rule="evenodd" d="M354.634 0C354.815 0.248533 355.018 0.486271 355.243 0.710659L389.184 34.6518C391.527 36.9949 395.326 36.9949 397.669 34.6518L432.316 0.00489568C435.793 0.112812 438.823 1.99601 440.53 4.77849C438.974 4.76247 437.413 5.34815 436.225 6.53553L378.243 64.5183C375.9 66.8614 375.9 70.6604 378.243 73.0036L402.239 97H387.175L370.711 80.5356C368.368 78.1924 364.569 78.1924 362.225 80.5356L345.761 97H335.614L381.652 50.9619C383.995 48.6188 383.995 44.8198 381.652 42.4767L347.711 8.53553C345.368 6.19238 341.569 6.19238 339.225 8.53553L281.243 66.5183C278.9 68.8614 278.9 72.6604 281.243 75.0036L303.239 97H288.175L273.711 82.5356C271.368 80.1924 267.569 80.1924 265.225 82.5356L250.761 97H10C4.47715 97 0 92.5229 0 87V10C0 4.47715 4.47715 0 10 0H252.468L209.243 43.2254C206.899 45.5686 206.899 49.3675 209.243 51.7107L243.184 85.6518C245.527 87.995 249.326 87.995 251.669 85.6518L309.652 27.6691C311.995 25.3259 311.995 21.5269 309.652 19.1838L290.468 0H303.532L316.184 12.6518C318.527 14.9949 322.326 14.9949 324.669 12.6518L337.321 0H354.634ZM442 85.6137L430.614 97H432C437.523 97 442 92.5229 442 87V85.6137Z" fill="#0261A3"/>
</svg>
