<svg width="236" height="265" viewBox="0 0 236 265" fill="none" xmlns="http://www.w3.org/2000/svg">
<path d="M60.3726 110.871C61.9508 68.2584 95.2909 34.3264 134.944 31.5645C178.543 28.6053 218.788 63.9183 220.76 110.871" fill="#BE0A13"/>
<path d="M72.9982 110.872C74.3791 75.164 102.393 46.3613 135.733 44.1913C172.427 41.6266 206.359 71.4157 207.937 110.872" fill="#EFCD07"/>
<path d="M87.7942 110.87C88.7806 82.8567 110.679 60.5643 136.719 58.7888C165.325 56.816 191.76 80.0948 193.141 110.87" fill="#63A43F"/>
<path d="M125.277 248.769C125.277 257.449 117.583 265.143 108.903 264.945C100.223 264.945 92.5289 257.252 92.5289 248.769C92.5289 240.088 100.026 232.789 108.903 232.592C117.781 232.592 125.277 240.088 125.277 248.769Z" fill="#0561A1"/>
<path d="M170.06 232.591C179.134 232.394 186.434 239.102 186.631 248.176C186.828 257.054 180.121 264.551 171.046 264.945C162.168 265.34 154.869 258.238 154.474 249.163C154.474 240.088 161.182 232.789 170.06 232.591Z" fill="#0560A1"/>
<path d="M103.379 110.674C105.155 95.8778 111.27 83.6465 125.672 77.3335C150.134 66.4832 174.202 81.8709 177.951 110.871C173.61 110.871 169.073 110.871 164.733 110.871C148.951 110.871 132.971 110.871 117.189 110.871C112.454 110.674 107.917 110.674 103.379 110.674Z" fill="#FBFCF8"/>
<path d="M222.338 110.476C226.087 110.279 232.597 110.476 235.162 114.422C237.529 118.17 234.372 123.102 232.005 130.007C226.284 145.592 220.563 161.177 214.645 176.762C209.713 189.98 203.005 194.714 188.801 194.912C159.604 194.912 130.406 194.912 101.209 195.109C98.0527 195.109 92.7262 192.741 92.1344 197.279C91.5425 202.014 94.5017 206.946 99.8282 208.721C102.787 209.708 106.338 209.51 109.495 209.51C134.747 209.51 159.998 209.51 185.25 209.51C191.958 209.51 198.665 210.102 198.468 218.782C198.27 226.673 191.563 227.068 185.447 227.068C158.815 227.068 132.379 227.068 105.747 227.068C91.148 227.068 82.2704 220.755 76.9439 207.537C73.9847 200.238 71.8147 192.742 68.6582 185.639C65.3044 178.34 68.2636 177.748 74.5766 177.748C111.073 177.946 147.372 177.946 183.869 177.748C186.828 177.748 189.985 177.946 192.549 176.959C198.862 174.592 201.427 168.082 201.032 162.755C200.835 158.415 194.522 160.782 190.971 160.782C149.937 160.585 108.903 160.585 68.0663 160.585C60.5697 160.585 54.2568 154.075 54.8487 146.578C55.0459 141.449 59.1888 143.619 61.5561 143.422C84.835 143.224 108.114 143.225 131.393 143.225C153.291 143.225 175.386 142.435 197.284 143.422C208.726 144.014 212.474 139.082 213.066 128.429C189.393 128.429 165.917 128.429 142.243 128.429C113.44 128.429 84.4405 128.231 55.6378 128.626C49.7194 128.626 46.3657 126.85 45.182 121.129C44.9847 119.946 44.1956 118.762 43.801 117.381C34.3316 91.5374 37.6854 93.5101 11.0527 93.7074C5.33164 93.7074 0.202408 92.5238 0.00512863 85.619C-0.19215 77.9252 5.33167 76.9387 11.4473 76.9387C15.9847 76.9387 20.7194 76.9387 25.2568 76.9387C32.9507 76.9387 38.8691 78.517 43.6037 81.6735C48.1412 84.8299 50.3112 88.7755 54.4541 96.864C57.216 102.19 58.9915 106.925 60.1752 110.279C114.23 110.476 168.284 110.476 222.338 110.476Z" fill="#0260A1"/>
<path d="M124.093 110.476H157.039C158.42 110.476 159.012 108.7 157.828 107.911L154.277 105.347C153.685 104.952 153.488 104.163 153.883 103.374L157.236 98.4419C157.828 97.4555 157.236 96.2719 156.053 96.2719L150.134 96.8637C149.345 96.8637 148.753 96.4691 148.753 95.68L148.162 89.7616C147.964 88.5779 146.583 88.1835 145.794 88.9726L141.651 93.1154C141.059 93.7072 140.27 93.7072 139.679 93.1154L135.536 88.9726C134.747 88.1835 133.366 88.5779 133.168 89.7616L132.576 95.68C132.576 96.4691 131.787 97.061 131.196 96.8637L125.277 96.2719C124.094 96.2719 123.304 97.4555 124.093 98.4419L127.447 103.374C127.842 103.966 127.645 104.755 127.053 105.347L123.502 107.911C122.318 108.7 122.91 110.476 124.093 110.476Z" fill="#EECF10"/>
<path d="M141.454 0.591837L145.005 7.69389C145.202 7.89117 145.4 8.08842 145.794 8.2857L153.488 9.46939C154.277 9.66667 154.672 10.6531 154.08 11.2449L148.556 16.7687C148.359 16.966 148.162 17.3606 148.359 17.5578L149.74 25.2517C149.937 26.0408 148.951 26.6327 148.359 26.2382L141.454 22.4898C141.257 22.2925 140.862 22.2925 140.468 22.4898L133.563 26.2382C132.774 26.6327 131.985 26.0408 132.182 25.2517L133.563 17.5578C133.563 17.1633 133.563 16.966 133.366 16.7687L127.842 11.2449C127.25 10.6531 127.645 9.66667 128.434 9.46939L136.128 8.2857C136.522 8.2857 136.719 8.08845 136.917 7.69389L140.468 0.591837C140.073 -0.197279 141.06 -0.197279 141.454 0.591837Z" fill="#EECF10"/>
</svg>
