<svg width="18" height="24" viewBox="0 0 18 24" fill="none" xmlns="http://www.w3.org/2000/svg">
<path d="M9.77085 21.9074C9.47425 22.2412 9.21307 22.5283 8.99993 22.7594C8.7868 22.5284 8.52565 22.2414 8.22909 21.9077C7.39515 20.9694 6.28527 19.6665 5.17743 18.2048C4.06727 16.7399 2.97238 15.1329 2.15863 13.5849C1.33345 12.0151 0.85 10.603 0.85 9.50204C0.85 4.6793 4.54204 0.85 9 0.85C13.458 0.85 17.15 4.6793 17.15 9.50204C17.15 10.6024 16.6666 12.0141 15.8414 13.5838C15.0276 15.1317 13.9327 16.7389 12.8225 18.2039C11.7147 19.6658 10.6048 20.9689 9.77085 21.9074Z" stroke="#0261A3" stroke-width="1.7"/>
<path d="M12.2 9C12.2 10.915 10.731 12.4 9 12.4C7.26902 12.4 5.8 10.915 5.8 9C5.8 7.085 7.26902 5.6 9 5.6C10.731 5.6 12.2 7.085 12.2 9Z" stroke="#0261A3" stroke-width="1.6"/>
</svg>
