<svg width="62" height="71" viewBox="0 0 62 71" fill="none" xmlns="http://www.w3.org/2000/svg">
<g id="Group 92">
<g id="Group 3">
<path id="Vector" d="M23.0848 59.0214C20.4677 57.2013 19.8818 54.1546 18.8272 51.464C17.1866 47.2303 17.2257 47.1907 21.7176 47.1907C30.6234 47.1907 39.5292 47.1907 48.4741 47.1907C49.4115 47.1907 50.3099 47.1907 51.0521 46.5576C52.1458 45.608 52.8489 44.1836 52.6536 42.9174C52.4973 42.0074 50.974 42.5613 50.0756 42.5613C39.1777 42.5613 28.3189 42.5613 17.46 42.5613C15.9757 42.5613 13.9446 40.0686 14.218 38.565C14.3352 37.8528 14.9211 38.1298 15.3117 38.1298C18.5147 38.0902 21.6786 38.0902 24.8815 38.0902C34.1779 38.0902 43.4743 38.0902 52.8098 38.0902C54.4503 38.0902 56.0128 36.3492 55.8565 34.6874C55.7393 33.5795 54.841 34.0939 54.3332 34.0939C45.818 34.0543 37.3028 34.0939 28.7485 34.0939C23.866 34.0939 18.9834 34.0543 14.1008 34.1335C12.929 34.1335 12.3431 33.7774 11.9916 32.6695C11.4447 30.8494 10.7026 29.0688 10.0776 27.2883C9.53076 25.7452 8.51519 24.9142 6.87465 24.9934C5.42941 25.0329 4.02323 25.0329 2.57799 24.9934C1.05463 24.9934 0 24.3207 0 22.6589C0 21.0762 1.09369 20.4827 2.46081 20.4431C4.21854 20.4035 5.97626 20.3244 7.73398 20.4827C10.7807 20.7597 12.929 22.3819 14.0618 25.3099C14.5305 26.5365 14.218 28.9501 15.507 28.9501C16.796 28.9501 19.5303 28.9501 19.5303 28.9501C19.5303 28.9501 21.6261 28.9501 22.6551 28.9501C24.0222 28.9501 25.194 28.9501 26.7564 28.9501C28.3885 28.9501 29.686 28.9501 31.2484 28.9501C32.8108 28.9501 34.4123 28.9106 35.9357 28.9501C37.9278 28.9501 39.8417 28.9501 41.7947 28.9501C42.576 28.9501 43.1619 28.9501 43.9431 28.9501C44.8 28.9501 45.7008 28.9501 46.6773 28.9501C48.0444 28.9501 49.4115 28.9501 50.7787 28.9501C51.8363 28.9501 52.7317 28.9501 53.9035 28.9501C55.1245 28.9501 56.0518 28.9501 57.6143 28.9501C57.7695 28.9501 57.8852 28.9532 58.0049 28.9501C62.614 28.8314 62.4578 29.9789 60.8953 34.0148C59.2548 38.288 57.7705 42.6405 56.169 46.9533C54.9191 50.3561 53.1614 51.6223 49.5678 51.6223C41.0526 51.6223 32.5374 51.6223 24.0222 51.6223C24.3347 54.7481 25.194 55.579 28.1626 55.579C35.1154 55.579 42.0682 55.579 49.0209 55.579C51.0911 55.579 52.1067 56.5287 51.9505 58.1114C51.8333 59.3775 50.8958 59.8128 49.9193 60.2084C47.6538 60.6041 45.8961 60.8019 42.7713 60.8019C40.2323 60.8019 37.6934 60.8019 34.9592 60.8019C32.8889 60.8811 30.7797 60.8811 28.7095 60.9998C26.6783 61.158 24.8034 60.1689 23.0848 59.0214Z" fill="#0261A3"/>
<path id="Vector_2" d="M44.6462 70.1159C42.2635 70.1159 40.4667 68.2562 40.5058 65.8426C40.5448 63.3894 42.3416 61.6485 44.7633 61.6485C47.1851 61.688 48.9428 63.4686 48.9038 65.9218C48.8647 68.4145 47.107 70.1555 44.6462 70.1159Z" fill="#0261A3"/>
<path id="Vector_3" d="M28.5533 70.1555C26.2097 70.1555 24.3348 68.3354 24.2958 65.9613C24.2567 63.5873 26.1707 61.6485 28.6315 61.688C30.9751 61.7276 32.8109 63.5873 32.7719 65.9218C32.7328 68.3354 30.897 70.1555 28.5533 70.1555Z" fill="#0261A3"/>
</g>
<g id="Group 91">
<path id="Vector_4" d="M16.155 28.9807C16.5636 17.8422 25.1955 8.97265 35.4618 8.25071C46.7496 7.4772 57.1691 16.7077 57.6799 28.9807" fill="#BE0A13"/>
<path id="Vector_5" d="M19.4238 28.9808C19.7814 19.6471 27.0342 12.1183 35.666 11.5511C45.1662 10.8807 53.9512 18.6674 54.3599 28.9808" fill="#EFCD07"/>
<path id="Vector_6" d="M23.2546 28.9807C23.51 21.6582 29.1795 15.8311 35.9215 15.367C43.3275 14.8513 50.1717 20.9362 50.5293 28.9807" fill="#63A43F"/>
<path id="Vector_7" d="M27.2896 28.9292C27.7492 25.0617 29.3326 21.8645 33.0611 20.2143C39.3946 17.3781 45.6259 21.4004 46.5963 28.9808C45.4726 28.9808 44.2979 28.9808 43.1742 28.9808C39.0881 28.9808 34.951 28.9808 30.8649 28.9808C29.639 28.9292 28.4643 28.9292 27.2896 28.9292Z" fill="#FBFCF8"/>
<path id="Vector_8" d="M32.6525 28.8777H41.1822C41.5398 28.8777 41.693 28.4136 41.3865 28.2073L40.4672 27.5369C40.314 27.4338 40.2629 27.2275 40.365 27.0213L41.2333 25.7321C41.3866 25.4742 41.2333 25.1648 40.9269 25.1648L39.3946 25.3195C39.1903 25.3195 39.0371 25.2164 39.0371 25.0101L38.8838 23.4631C38.8328 23.1537 38.4752 23.0506 38.2709 23.2569L37.1983 24.3398C37.0451 24.4945 36.8408 24.4945 36.6876 24.3398L35.615 23.2569C35.4107 23.0506 35.0531 23.1537 35.0021 23.4631L34.8488 25.0101C34.8488 25.2164 34.6445 25.3711 34.4913 25.3195L32.959 25.1648C32.6526 25.1648 32.4482 25.4742 32.6525 25.7321L33.5208 27.0213C33.623 27.176 33.5719 27.3822 33.4187 27.5369L32.4993 28.2073C32.1929 28.4136 32.3461 28.8777 32.6525 28.8777Z" fill="#EECF10"/>
<path id="Vector_9" d="M37.1473 0.154702L38.0667 2.01112C38.1178 2.06269 38.1689 2.11425 38.271 2.16582L40.263 2.47522C40.4673 2.52679 40.5694 2.78462 40.4162 2.93933L38.9861 4.38322C38.935 4.43478 38.8839 4.53791 38.935 4.58948L39.2925 6.6006C39.3436 6.80687 39.0882 6.96158 38.935 6.85845L37.1473 5.87866C37.0963 5.82709 36.9941 5.82709 36.892 5.87866L35.1043 6.85845C34.9 6.96158 34.6957 6.80687 34.7468 6.6006L35.1043 4.58948C35.1043 4.48635 35.1043 4.43478 35.0532 4.38322L33.6231 2.93933C33.4699 2.78462 33.572 2.52679 33.7763 2.47522L35.7683 2.16582C35.8704 2.16582 35.9215 2.11426 35.9726 2.01112L36.892 0.154702C36.7898 -0.0515672 37.0452 -0.0515672 37.1473 0.154702Z" fill="#EECF10"/>
</g>
</g>
</svg>
