<svg width="155" height="32" viewBox="0 0 155 32" fill="none" xmlns="http://www.w3.org/2000/svg">
<g clip-path="url(#clip0_932_279)">
<path d="M29.5182 18.0786C29.3233 18.0786 29.1472 18.0451 28.9897 17.9782C28.8349 17.9112 28.7121 17.8148 28.6213 17.6889C28.5306 17.5631 28.4839 17.4144 28.4812 17.243H29.0818C29.0898 17.3582 29.1298 17.4492 29.2019 17.5162C29.2766 17.5832 29.3781 17.6166 29.5062 17.6166C29.637 17.6166 29.7397 17.5858 29.8145 17.5242C29.8892 17.46 29.9266 17.3769 29.9266 17.2752C29.9266 17.1921 29.9012 17.1239 29.8505 17.0703C29.7998 17.0167 29.7357 16.9752 29.6583 16.9458C29.5836 16.9136 29.4795 16.8788 29.346 16.8413C29.1645 16.7878 29.0164 16.7355 28.9016 16.6846C28.7895 16.6311 28.6921 16.5521 28.6093 16.4476C28.5292 16.3405 28.4892 16.1986 28.4892 16.0218C28.4892 15.8558 28.5306 15.7111 28.6133 15.588C28.6961 15.4648 28.8122 15.371 28.9617 15.3068C29.1111 15.2398 29.282 15.2063 29.4742 15.2063C29.7624 15.2063 29.996 15.2773 30.1748 15.4192C30.3563 15.5585 30.4564 15.754 30.4751 16.0057H29.8585C29.8532 15.9093 29.8118 15.8303 29.7344 15.7687C29.6597 15.7045 29.5596 15.6723 29.4341 15.6723C29.3247 15.6723 29.2366 15.7004 29.1699 15.7567C29.1058 15.8129 29.0738 15.8946 29.0738 16.0017C29.0738 16.0767 29.0978 16.1396 29.1458 16.1905C29.1966 16.2387 29.2579 16.2789 29.33 16.311C29.4048 16.3405 29.5089 16.3753 29.6423 16.4155C29.8238 16.4691 29.972 16.5226 30.0867 16.5762C30.2015 16.6297 30.3003 16.7101 30.383 16.8172C30.4658 16.9243 30.5071 17.0649 30.5071 17.239C30.5071 17.389 30.4684 17.5282 30.391 17.6568C30.3136 17.7853 30.2002 17.8885 30.0507 17.9661C29.9012 18.0411 29.7237 18.0786 29.5182 18.0786ZM33.0871 15.825V18.0505H32.5226V17.7693C32.4505 17.8657 32.3557 17.942 32.2383 17.9983C32.1235 18.0518 31.9981 18.0786 31.8619 18.0786C31.6884 18.0786 31.5349 18.0424 31.4015 17.9701C31.268 17.8951 31.1626 17.7867 31.0852 17.6447C31.0104 17.5001 30.9731 17.3287 30.9731 17.1305V15.825H31.5336V17.0502C31.5336 17.227 31.5777 17.3635 31.6657 17.46C31.7538 17.5537 31.8739 17.6006 32.0261 17.6006C32.1809 17.6006 32.3024 17.5537 32.3904 17.46C32.4785 17.3635 32.5226 17.227 32.5226 17.0502V15.825H33.0871ZM34.2007 16.1463C34.2728 16.0446 34.3715 15.9602 34.497 15.8933C34.6251 15.8236 34.7706 15.7888 34.9334 15.7888C35.1229 15.7888 35.2937 15.8357 35.4459 15.9294C35.6007 16.0231 35.7222 16.1571 35.8102 16.3311C35.901 16.5025 35.9464 16.702 35.9464 16.9297C35.9464 17.1573 35.901 17.3595 35.8102 17.5363C35.7222 17.7104 35.6007 17.8456 35.4459 17.942C35.2937 18.0384 35.1229 18.0866 34.9334 18.0866C34.7706 18.0866 34.6265 18.0532 34.501 17.9862C34.3782 17.9192 34.2781 17.8349 34.2007 17.7331V19.111H33.6402V15.825H34.2007V16.1463ZM35.3738 16.9297C35.3738 16.7958 35.3458 16.6806 35.2897 16.5842C35.2364 16.4851 35.1643 16.4101 35.0735 16.3593C34.9855 16.3084 34.8894 16.2829 34.7853 16.2829C34.6838 16.2829 34.5877 16.3097 34.497 16.3633C34.4089 16.4142 34.3368 16.4891 34.2808 16.5882C34.2274 16.6873 34.2007 16.8038 34.2007 16.9377C34.2007 17.0716 34.2274 17.1881 34.2808 17.2872C34.3368 17.3863 34.4089 17.4626 34.497 17.5162C34.5877 17.5671 34.6838 17.5925 34.7853 17.5925C34.8894 17.5925 34.9855 17.5657 35.0735 17.5122C35.1643 17.4586 35.2364 17.3823 35.2897 17.2832C35.3458 17.1841 35.3738 17.0663 35.3738 16.9297ZM38.4157 16.8895C38.4157 16.9699 38.4103 17.0422 38.3997 17.1064H36.7781C36.7915 17.2671 36.8475 17.393 36.9463 17.4841C37.045 17.5751 37.1665 17.6206 37.3106 17.6206C37.5188 17.6206 37.667 17.5309 37.7551 17.3515H38.3596C38.2956 17.5657 38.1728 17.7425 37.9913 17.8818C37.8098 18.0183 37.5869 18.0866 37.3226 18.0866C37.1091 18.0866 36.9169 18.0398 36.7461 17.946C36.5779 17.8496 36.4458 17.7144 36.3497 17.5403C36.2563 17.3662 36.2096 17.1654 36.2096 16.9377C36.2096 16.7074 36.2563 16.5052 36.3497 16.3311C36.4431 16.1571 36.5739 16.0231 36.7421 15.9294C36.9102 15.8357 37.1038 15.7888 37.3226 15.7888C37.5335 15.7888 37.7217 15.8343 37.8872 15.9254C38.0553 16.0165 38.1848 16.1463 38.2756 16.3151C38.369 16.4811 38.4157 16.6726 38.4157 16.8895ZM37.8351 16.7288C37.8325 16.5842 37.7804 16.4691 37.679 16.3834C37.5775 16.295 37.4534 16.2508 37.3066 16.2508C37.1678 16.2508 37.0504 16.2936 36.9543 16.3793C36.8608 16.4624 36.8035 16.5789 36.7821 16.7288H37.8351ZM39.3854 16.1704C39.4574 16.0526 39.5508 15.9602 39.6656 15.8933C39.7831 15.8263 39.9165 15.7928 40.066 15.7928V16.3834H39.9179C39.7417 16.3834 39.6082 16.4249 39.5175 16.5079C39.4294 16.5909 39.3854 16.7355 39.3854 16.9417V18.0505H38.8248V15.825H39.3854V16.1704ZM43.1982 15.7928C43.4704 15.7928 43.6893 15.8772 43.8548 16.0459C44.023 16.212 44.1071 16.445 44.1071 16.7449V18.0505H43.5465V16.8212C43.5465 16.6471 43.5025 16.5146 43.4144 16.4235C43.3263 16.3298 43.2062 16.2829 43.0541 16.2829C42.9019 16.2829 42.7805 16.3298 42.6897 16.4235C42.6016 16.5146 42.5576 16.6471 42.5576 16.8212V18.0505H41.997V16.8212C41.997 16.6471 41.953 16.5146 41.8649 16.4235C41.7768 16.3298 41.6567 16.2829 41.5046 16.2829C41.3498 16.2829 41.227 16.3298 41.1362 16.4235C41.0481 16.5146 41.0041 16.6471 41.0041 16.8212V18.0505H40.4436V15.825H41.0041V16.0941C41.0762 16.0004 41.1682 15.9267 41.2804 15.8732C41.3951 15.8196 41.5206 15.7928 41.6567 15.7928C41.8302 15.7928 41.985 15.8303 42.1212 15.9053C42.2573 15.9776 42.3627 16.0821 42.4375 16.2187C42.5095 16.0901 42.6136 15.987 42.7498 15.9093C42.8886 15.8317 43.038 15.7928 43.1982 15.7928ZM46.701 16.8895C46.701 16.9699 46.6956 17.0422 46.6849 17.1064H45.0634C45.0767 17.2671 45.1328 17.393 45.2316 17.4841C45.3303 17.5751 45.4518 17.6206 45.5959 17.6206C45.8041 17.6206 45.9522 17.5309 46.0403 17.3515H46.6449C46.5809 17.5657 46.4581 17.7425 46.2766 17.8818C46.095 18.0183 45.8722 18.0866 45.6079 18.0866C45.3944 18.0866 45.2022 18.0398 45.0314 17.946C44.8632 17.8496 44.7311 17.7144 44.635 17.5403C44.5415 17.3662 44.4948 17.1654 44.4948 16.9377C44.4948 16.7074 44.5415 16.5052 44.635 16.3311C44.7284 16.1571 44.8592 16.0231 45.0274 15.9294C45.1955 15.8357 45.389 15.7888 45.6079 15.7888C45.8188 15.7888 46.007 15.8343 46.1725 15.9254C46.3406 16.0165 46.4701 16.1463 46.5608 16.3151C46.6542 16.4811 46.701 16.6726 46.701 16.8895ZM46.1204 16.7288C46.1177 16.5842 46.0657 16.4691 45.9643 16.3834C45.8628 16.295 45.7387 16.2508 45.5919 16.2508C45.4531 16.2508 45.3357 16.2936 45.2396 16.3793C45.1461 16.4624 45.0887 16.5789 45.0674 16.7288H46.1204ZM47.6706 16.1704C47.7427 16.0526 47.8361 15.9602 47.9509 15.8933C48.0683 15.8263 48.2018 15.7928 48.3513 15.7928V16.3834H48.2032C48.027 16.3834 47.8935 16.4249 47.8028 16.5079C47.7147 16.5909 47.6706 16.7355 47.6706 16.9417V18.0505H47.1101V15.825H47.6706V16.1704ZM48.5847 16.9377C48.5847 16.7074 48.6314 16.5065 48.7248 16.3351C48.8182 16.1611 48.9477 16.0272 49.1132 15.9334C49.2787 15.837 49.4682 15.7888 49.6817 15.7888C49.9567 15.7888 50.1835 15.8584 50.3624 15.9977C50.5439 16.1343 50.6654 16.3271 50.7267 16.5762H50.1222C50.0901 16.4798 50.0354 16.4048 49.958 16.3512C49.8833 16.295 49.7898 16.2669 49.6777 16.2669C49.5176 16.2669 49.3908 16.3258 49.2974 16.4436C49.204 16.5588 49.1572 16.7235 49.1572 16.9377C49.1572 17.1493 49.204 17.314 49.2974 17.4318C49.3908 17.547 49.5176 17.6046 49.6777 17.6046C49.9046 17.6046 50.0528 17.5028 50.1222 17.2993H50.7267C50.6654 17.5403 50.5439 17.7318 50.3624 17.8737C50.1809 18.0157 49.954 18.0866 49.6817 18.0866C49.4682 18.0866 49.2787 18.0398 49.1132 17.946C48.9477 17.8496 48.8182 17.7157 48.7248 17.5443C48.6314 17.3702 48.5847 17.168 48.5847 16.9377ZM50.9932 16.9297C50.9932 16.7047 51.0373 16.5052 51.1254 16.3311C51.2161 16.1571 51.3376 16.0231 51.4897 15.9294C51.6445 15.8357 51.8167 15.7888 52.0062 15.7888C52.1717 15.7888 52.3158 15.8223 52.4386 15.8892C52.5641 15.9562 52.6642 16.0406 52.7389 16.1423V15.825H53.3035V18.0505H52.7389V17.7251C52.6668 17.8295 52.5668 17.9166 52.4386 17.9862C52.3132 18.0532 52.1677 18.0866 52.0022 18.0866C51.8154 18.0866 51.6445 18.0384 51.4897 17.942C51.3376 17.8456 51.2161 17.7104 51.1254 17.5363C51.0373 17.3595 50.9932 17.1573 50.9932 16.9297ZM52.7389 16.9377C52.7389 16.8011 52.7122 16.6846 52.6588 16.5882C52.6055 16.4891 52.5334 16.4142 52.4426 16.3633C52.3519 16.3097 52.2545 16.2829 52.1504 16.2829C52.0463 16.2829 51.9502 16.3084 51.8621 16.3593C51.774 16.4101 51.7019 16.4851 51.6459 16.5842C51.5925 16.6806 51.5658 16.7958 51.5658 16.9297C51.5658 17.0636 51.5925 17.1814 51.6459 17.2832C51.7019 17.3823 51.774 17.4586 51.8621 17.5122C51.9528 17.5657 52.0489 17.5925 52.1504 17.5925C52.2545 17.5925 52.3519 17.5671 52.4426 17.5162C52.5334 17.4626 52.6055 17.3876 52.6588 17.2912C52.7122 17.1921 52.7389 17.0743 52.7389 16.9377ZM53.7068 16.9297C53.7068 16.7047 53.7509 16.5052 53.839 16.3311C53.9296 16.1571 54.0524 16.0231 54.2073 15.9294C54.362 15.8357 54.5341 15.7888 54.7238 15.7888C54.868 15.7888 55.0053 15.821 55.1362 15.8852C55.2668 15.9468 55.3709 16.0298 55.4485 16.1343V15.0778H56.0171V18.0505H55.4485V17.7211C55.3789 17.8309 55.2816 17.9192 55.1562 17.9862C55.0306 18.0532 54.8852 18.0866 54.7198 18.0866C54.5329 18.0866 54.362 18.0384 54.2073 17.942C54.0524 17.8456 53.9296 17.7104 53.839 17.5363C53.7509 17.3595 53.7068 17.1573 53.7068 16.9297ZM55.4525 16.9377C55.4525 16.8011 55.4257 16.6846 55.3724 16.5882C55.3189 16.4891 55.2468 16.4142 55.1562 16.3633C55.0654 16.3097 54.9681 16.2829 54.864 16.2829C54.7599 16.2829 54.6638 16.3084 54.5757 16.3593C54.4876 16.4101 54.4155 16.4851 54.3595 16.5842C54.3059 16.6806 54.2794 16.7958 54.2794 16.9297C54.2794 17.0636 54.3059 17.1814 54.3595 17.2832C54.4155 17.3823 54.4876 17.4586 54.5757 17.5122C54.6663 17.5657 54.7624 17.5925 54.864 17.5925C54.9681 17.5925 55.0654 17.5671 55.1562 17.5162C55.2468 17.4626 55.3189 17.3876 55.3724 17.2912C55.4257 17.1921 55.4525 17.0743 55.4525 16.9377ZM57.5495 18.0866C57.3358 18.0866 57.1436 18.0398 56.973 17.946C56.8021 17.8496 56.6672 17.7144 56.5686 17.5403C56.4725 17.3662 56.4244 17.1654 56.4244 16.9377C56.4244 16.7101 56.4737 16.5092 56.5726 16.3351C56.6739 16.1611 56.8113 16.0272 56.985 15.9334C57.1584 15.837 57.3518 15.7888 57.5655 15.7888C57.779 15.7888 57.9724 15.837 58.1461 15.9334C58.3195 16.0272 58.4556 16.1611 58.5545 16.3351C58.6558 16.5092 58.7066 16.7101 58.7066 16.9377C58.7066 17.1654 58.6546 17.3662 58.5502 17.5403C58.4489 17.7144 58.3103 17.8496 58.1341 17.946C57.9604 18.0398 57.7657 18.0866 57.5495 18.0866ZM57.5495 17.5965C57.6509 17.5965 57.7457 17.5724 57.8338 17.5242C57.9244 17.4733 57.9965 17.3984 58.05 17.2993C58.1033 17.2002 58.1301 17.0797 58.1301 16.9377C58.1301 16.7262 58.074 16.5641 57.9619 16.4516C57.8523 16.3365 57.7177 16.2789 57.5575 16.2789C57.3974 16.2789 57.2625 16.3365 57.1531 16.4516C57.0463 16.5641 56.993 16.7262 56.993 16.9377C56.993 17.1493 57.045 17.3127 57.1491 17.4278C57.2557 17.5403 57.3894 17.5965 57.5495 17.5965Z" fill="white"/>
</g>
<g clip-path="url(#clip1_932_279)">
<rect width="125.87" height="11.1476" transform="translate(28.2771 19.8079)" fill="#132438"/>
<path d="M82.6292 25.3566C82.6041 25.206 82.6041 25.0554 82.5791 24.8796C82.404 24.9047 81.7305 22.1003 82.0786 24.7792C81.9285 25.1307 82.1037 25.5324 81.8785 25.8588C81.8284 27.1142 81.7283 28.3695 81.7033 29.6249C81.7033 30.353 81.403 30.579 80.7274 30.5287C80.3019 30.4785 79.9016 30.5036 79.4762 30.5036C78.8756 30.5287 78.7004 30.3028 78.7254 29.7002C78.8756 26.9133 78.9757 24.1013 79.0758 21.3144C79.1008 20.4105 79.5262 20.0339 80.402 20.059C80.9025 20.0841 81.403 20.059 81.9035 20.059C84.1556 20.059 84.1556 20.059 84.556 22.2433C84.7812 23.5238 85.0065 24.7792 85.3568 26.1099C85.607 24.729 85.8823 23.3229 86.1075 21.942C86.3828 20.2096 86.5079 20.0841 88.2596 20.0841C91.9381 20.1092 91.5377 19.7075 91.6628 23.3229C91.7379 25.3817 91.7879 27.4154 91.9131 29.4491C91.9631 30.2526 91.7629 30.6292 90.9121 30.5287C90.6368 30.4785 90.3366 30.4785 90.0363 30.5287C89.1354 30.6543 88.9102 30.2526 88.9102 29.3989C88.8852 27.2146 88.76 25.0302 88.4347 22.8208C88.1845 24.0762 87.9092 25.3315 87.684 26.5869C87.2086 29.0223 85.582 29.7002 83.3799 28.3946C82.7793 27.4405 82.8544 26.3609 82.6292 25.3566Z" fill="white"/>
<path d="M60.3828 24.8545C60.3828 26.4865 60.3327 27.9929 60.4078 29.4993C60.4328 30.353 60.0574 30.484 59.3318 30.5287C59.1105 30.5287 58.9251 30.5287 58.7062 30.5287C57.7074 30.484 57.2798 30.3279 57.3298 29.1729C57.4299 26.7626 57.3549 24.3272 57.3549 21.8918C57.3549 21.2139 57.1297 20.2599 58.1056 20.1343C59.1065 20.0088 60.2827 19.6322 61.0084 20.8875C61.9593 22.4944 62.9602 24.0511 63.9612 25.6328C63.9612 24.0762 64.0112 22.5446 63.9362 21.0382C63.9111 20.2347 64.1864 20.059 64.9371 20.059C67.0141 20.0339 67.0141 20.0088 67.0141 22.0676C67.0141 24.277 67.0141 26.5116 67.0141 28.721C67.0141 29.3989 67.1643 30.3028 66.2134 30.4283C65.2374 30.5538 64.1113 30.9054 63.4107 29.7253C62.4347 28.1184 61.4338 26.5367 60.3828 24.8545Z" fill="white"/>
<path d="M140.134 25.6328C140.134 23.9506 140.159 22.4693 140.109 20.988C140.109 20.3101 140.259 20.059 141.01 20.059C143.162 20.0339 143.162 20.0088 143.162 22.2182C143.162 24.3775 143.187 26.5618 143.162 28.721C143.162 29.3989 143.387 30.3028 142.386 30.4283C141.41 30.5538 140.284 30.8802 139.584 29.7253C138.658 28.2189 137.707 26.7124 136.606 24.9549C136.606 26.612 136.581 28.0431 136.631 29.4742C136.656 30.2526 136.506 30.579 135.605 30.5538C133.553 30.5036 133.553 30.5539 133.553 28.5202C133.553 26.2605 133.553 24.0008 133.553 21.7663C133.553 21.1135 133.403 20.2347 134.329 20.1594C135.255 20.0841 136.356 19.6322 137.056 20.7369C138.032 22.2935 139.008 23.8502 140.134 25.6328Z" fill="white"/>
<path d="M101.347 25.6579C102.373 26.7375 102.323 28.018 101.873 29.2734C101.447 30.4283 100.296 30.579 99.27 30.6041C97.6435 30.6543 96.0169 30.579 94.3904 30.6041C93.6146 30.6292 93.2893 30.4032 93.3143 29.5245C93.3644 26.6873 93.3644 23.8502 93.3143 21.0131C93.3143 20.285 93.4645 19.9586 94.2652 19.9586C95.7917 19.9837 97.3432 19.8581 98.8696 19.9586C101.647 20.1594 102.523 21.7663 101.372 24.3523C100.997 24.7792 100.771 25.206 101.347 25.6579Z" fill="white"/>
<path d="M154.148 25.2311C154.123 30.0266 151.295 31.985 146.841 30.4284C145.664 30.0266 144.964 29.2232 144.689 28.0683C144.263 26.2605 144.238 24.4277 144.664 22.62C144.964 21.2391 145.79 20.3603 147.216 20.0339C148.442 19.7577 149.693 19.7828 150.919 19.9335C152.646 20.1595 153.647 21.1638 153.972 22.9213C154.148 23.7498 154.123 24.5783 154.148 25.2311Z" fill="white"/>
<path d="M54.252 25.6329C56.0287 26.7125 55.7034 28.5956 56.279 30.102C56.3791 30.328 56.2039 30.5037 55.9537 30.5037C55.0778 30.5037 54.202 30.5289 53.3261 30.5037C52.8757 30.5037 52.8507 30.1271 52.8006 29.8007C52.6255 29.0726 52.4503 28.3445 52.3002 27.5913C52.15 26.7879 51.6245 26.6372 50.9239 26.6623C50.073 26.6874 50.3983 27.3402 50.3483 27.7671C50.3233 27.9679 50.3483 28.1939 50.3483 28.3947C50.3483 30.554 50.3483 30.5037 48.1462 30.5037C47.3204 30.5037 47.0702 30.2527 47.0952 29.4492C47.1452 26.6121 47.1202 23.775 47.0952 20.9379C47.0952 20.3604 47.1703 19.9587 47.8459 19.9587C49.7477 19.9085 51.6746 19.7076 53.5764 20.0591C55.1028 20.3604 55.7034 20.9881 55.9036 22.4192C56.1288 24.0763 55.7785 24.7793 54.252 25.6329Z" fill="white"/>
<path d="M106.577 23.8251C106.577 24.7792 106.577 25.7333 106.577 26.7124C106.577 27.6163 106.852 28.2691 107.903 28.2691C109.004 28.2691 109.18 27.541 109.18 26.6622C109.18 24.8796 109.23 23.0719 109.18 21.2893C109.155 20.4105 109.305 20.0339 110.331 20.059C112.558 20.1343 112.558 20.059 112.558 22.3187C112.558 23.9757 112.608 25.6579 112.483 27.315C112.283 29.5998 111.232 30.5539 108.954 30.7045C108.829 30.7045 108.704 30.7296 108.579 30.7296C104.475 30.8803 103.274 29.7253 103.299 25.5826C103.299 24.026 103.324 22.4944 103.299 20.9378C103.299 20.285 103.524 20.1092 104.175 20.0841C106.627 19.9837 106.627 19.9586 106.627 22.3438C106.577 22.8208 106.577 23.3229 106.577 23.8251Z" fill="white"/>
<path d="M28.2771 25.2312C28.2771 23.775 28.3021 22.2936 28.2771 20.8374C28.2771 20.285 28.3772 19.9837 29.0028 19.9586C30.9547 19.8582 32.9065 19.7076 34.8584 20.0591C36.0846 20.285 36.7852 20.988 36.9604 22.2183C37.0355 22.7958 37.0855 23.3732 37.0605 23.9507C36.9354 25.9593 36.1346 26.7376 34.1077 26.9385C33.2819 27.0138 32.307 26.7627 31.8566 27.3402C31.4562 27.8925 31.5552 28.7462 31.5803 29.5747C31.6053 30.2526 31.4301 30.5037 30.6794 30.5288C28.2771 30.579 28.2771 30.6041 28.2771 28.2189C28.2771 27.2398 28.2771 26.2355 28.2771 25.2312Z" fill="white"/>
<path d="M127.522 22.6451C127.022 24.8545 126.471 27.0639 126.021 29.2985C125.82 30.2777 125.445 30.579 124.444 30.5287C122.342 30.4534 122.342 30.5036 122.893 28.4448C123.543 26.0848 124.244 23.6996 124.87 21.3395C125.12 20.4607 125.57 20.0339 126.546 20.059C130.675 20.1594 129.774 19.5066 130.925 23.3732C131.526 25.3817 132.001 27.4154 132.652 29.3989C132.927 30.2777 132.852 30.579 131.851 30.579C129.574 30.5539 129.599 30.6041 129.074 28.3695C128.648 26.4614 128.198 24.5783 127.747 22.6702C127.697 22.6199 127.622 22.6199 127.522 22.6451Z" fill="white"/>
<path d="M72.8198 22.5948C72.5696 23.6242 72.3444 24.6536 72.0941 25.683C71.7938 26.9886 71.4185 28.2691 71.1933 29.5747C71.0681 30.3028 70.7428 30.5036 70.0422 30.5036C67.5898 30.5538 67.5898 30.579 68.2655 28.1435C68.8911 25.909 69.5417 23.6493 70.1423 21.3897C70.4175 20.3854 70.943 19.9837 72.019 20.0088C75.8227 20.1092 75.1721 19.5317 76.173 23.1221C76.7736 25.2562 77.3491 27.3903 77.9998 29.4993C78.25 30.3028 78.0498 30.5287 77.224 30.5036C74.3713 30.4032 75.072 31.0309 74.3713 28.2691C73.8958 26.386 73.4955 24.4779 73.045 22.5948C72.97 22.5948 72.8949 22.5948 72.8198 22.5948Z" fill="white"/>
<path d="M38.0114 25.2311C38.0114 24.277 37.9863 23.2978 38.0114 22.3438C38.0614 20.8875 38.7871 20.059 40.2385 20.0088C41.865 19.9586 43.4165 20.0732 45.0431 20.0481C45.6208 20.0481 45.6959 20.7309 45.6959 21.3144C45.6959 21.8525 45.6959 22.5195 45.0431 22.5195C44.1172 22.5195 43.2163 22.5446 42.2904 22.5195C41.6398 22.4944 41.2895 22.6953 41.2895 23.4234C41.2895 24.1766 41.815 24.0259 42.2404 24.0511C42.816 24.0762 43.4165 24.1264 43.9921 24.0511C45.1182 23.9004 45.2933 24.4528 45.2433 25.4069C45.2183 26.0847 44.968 26.2856 44.3424 26.2605C43.6417 26.2354 42.916 26.2605 42.2154 26.2354C41.6398 26.2103 41.2645 26.2856 41.2895 27.0137C41.3145 27.6665 41.4897 28.0431 42.2154 28.018C42.9661 27.9929 43.7168 28.018 44.4675 28.018C45.6687 28.018 46.2192 28.8466 45.8438 30.0266C45.7438 30.353 45.5185 30.353 45.2933 30.3781C43.6069 30.484 41.9033 30.3781 40.2124 30.3781C38.7109 30.2777 38.0614 29.5747 38.0114 28.0933C37.9863 27.5912 38.0114 27.089 37.9863 26.5869C38.0114 26.1601 38.0114 25.7081 38.0114 25.2311Z" fill="white"/>
<path d="M118.739 30.6292C118.288 30.6292 117.813 30.6544 117.362 30.6292C115.486 30.4786 114.385 29.5496 113.934 27.7168C113.559 26.1099 113.559 24.478 113.909 22.8711C114.284 21.1136 115.335 20.1344 117.162 19.9335C118.313 19.7829 119.489 19.8331 120.641 19.9837C121.516 20.1093 121.967 20.3353 121.817 21.3647C121.692 22.2936 121.466 22.8711 120.39 22.6451C120.34 22.6451 120.315 22.6451 120.265 22.6451C119.314 22.7707 118.063 22.143 117.488 23.1724C116.812 24.4026 117.037 25.8589 117.362 27.2147C117.488 27.7419 117.913 27.8926 118.413 27.8926C119.214 27.8926 120.015 27.9679 120.791 27.8674C121.942 27.6917 121.892 28.4449 122.042 29.173C122.192 30.0267 121.917 30.3531 121.066 30.5037C120.29 30.6041 119.514 30.6292 118.739 30.6292Z" fill="white"/>
<path d="M81.8784 25.8588C81.8784 24.8545 81.8784 23.8251 81.8784 22.8208C82.454 23.4485 82.479 24.1766 82.5791 24.8796C81.9785 24.9549 82.2037 25.6077 81.8784 25.8588Z" fill="#132438"/>
<path d="M82.6291 25.3566C82.8793 26.3609 83.1045 27.3903 83.3548 28.3946C82.579 27.4908 82.6291 26.4111 82.6291 25.3566Z" fill="#132438"/>
<path d="M101.347 25.6579C101.022 25.4822 100.696 25.3064 100.321 25.0805C100.696 24.8294 101.022 24.5783 101.372 24.3523C101.347 24.7792 101.347 25.2311 101.347 25.6579Z" fill="#132438"/>
<path d="M96.5924 27.2899C96.5173 26.5618 96.4923 25.9592 97.5433 26.0345C98.3691 26.0847 98.8946 26.2354 98.8696 27.2146C98.8696 28.1938 98.3441 28.3444 97.5183 28.3946C96.5924 28.4699 96.4673 28.018 96.5924 27.2899Z" fill="#132438"/>
<path d="M97.4183 22.1429C98.3192 22.0676 98.6445 22.4191 98.6445 23.2225C98.6195 24.1766 97.9939 24.0762 97.3432 24.1264C96.4924 24.2017 96.5675 23.6745 96.5425 23.1221C96.5425 22.4191 96.6676 21.942 97.4183 22.1429Z" fill="#132438"/>
<path d="M150.694 25.2311C150.669 25.8588 150.669 26.4614 150.594 27.0388C150.494 27.7669 150.119 28.2691 149.293 28.2691C148.542 28.2691 148.167 27.8674 148.042 27.1393C147.842 25.8839 147.842 24.6536 148.042 23.3983C148.167 22.6702 148.567 22.2935 149.318 22.2935C150.094 22.2935 150.469 22.7204 150.594 23.3983C150.644 24.026 150.644 24.6536 150.694 25.2311Z" fill="#132438"/>
<path d="M50.3481 23.1723C50.223 22.4693 50.4733 22.1178 51.274 22.1931C51.9997 22.2684 52.6754 22.2433 52.6503 23.3229C52.6253 24.3775 51.9497 24.3272 51.224 24.4026C50.198 24.4779 50.2981 23.8251 50.3481 23.1723Z" fill="#132438"/>
<path d="M31.5802 23.3481C31.6303 22.8208 31.33 22.1178 32.356 22.168C33.2068 22.2182 33.8074 22.4191 33.7823 23.4485C33.7573 24.3523 33.3319 24.6285 32.4561 24.6536C31.2549 24.729 31.6303 23.9255 31.5802 23.3481Z" fill="#132438"/>
</g>
<path d="M10.2198 26.1293C9.06123 25.3235 8.80185 23.9747 8.33495 22.7836C7.60867 20.9093 7.62596 20.8918 9.61459 20.8918C13.5573 20.8918 17.4999 20.8918 21.4599 20.8918C21.8749 20.8918 22.2727 20.8918 22.6012 20.6115C23.0854 20.1911 23.3967 19.5605 23.3102 18.9999C23.241 18.597 22.5666 18.8423 22.1689 18.8423C17.3443 18.8423 12.537 18.8423 7.72972 18.8423C7.07261 18.8423 6.1734 17.7387 6.29445 17.0731C6.34632 16.7578 6.60571 16.8804 6.77863 16.8804C8.19661 16.8629 9.5973 16.8629 11.0153 16.8629C15.1309 16.8629 19.2465 16.8629 23.3794 16.8629C24.1056 16.8629 24.7973 16.0921 24.7282 15.3564C24.6763 14.8659 24.2786 15.0937 24.0538 15.0937C20.284 15.0762 16.5143 15.0937 12.7272 15.0937C10.5657 15.0937 8.40412 15.0762 6.24257 15.1112C5.72379 15.1112 5.46441 14.9535 5.30878 14.4631C5.06668 13.6573 4.73813 12.869 4.46145 12.0808C4.21935 11.3976 3.76975 11.0298 3.04347 11.0648C2.40365 11.0823 1.78112 11.0823 1.1413 11.0648C0.466896 11.0648 0 10.767 0 10.0313C0 9.33062 0.484188 9.06786 1.08942 9.05035C1.86758 9.03283 2.64574 8.9978 3.4239 9.06786C4.77271 9.19048 5.72379 9.90867 6.22528 11.2049C6.43279 11.7479 6.29445 12.8165 6.8651 12.8165C7.43575 12.8165 8.64622 12.8165 8.64622 12.8165C8.64622 12.8165 9.57407 12.8165 10.0296 12.8165C10.6348 12.8165 11.1536 12.8165 11.8453 12.8165C12.5678 12.8165 13.1422 12.8165 13.8339 12.8165C14.5256 12.8165 15.2346 12.799 15.909 12.8165C16.791 12.8165 17.6383 12.8165 18.5029 12.8165C18.8488 12.8165 19.1081 12.8165 19.454 12.8165C19.8334 12.8165 20.2321 12.8165 20.6645 12.8165C21.2697 12.8165 21.8749 12.8165 22.4802 12.8165C22.9484 12.8165 23.3448 12.8165 23.8636 12.8165C24.4041 12.8165 24.8146 12.8165 25.5063 12.8165C25.5751 12.8165 25.6263 12.8178 25.6793 12.8165C27.7198 12.7639 27.6506 13.2719 26.9589 15.0586C26.2326 16.9505 25.5755 18.8773 24.8665 20.7867C24.3132 22.2931 23.535 22.8536 21.9441 22.8536C18.1743 22.8536 14.4046 22.8536 10.6348 22.8536C10.7732 24.2375 11.1536 24.6053 12.4678 24.6053C15.5459 24.6053 18.6239 24.6053 21.702 24.6053C22.6185 24.6053 23.0681 25.0257 22.9989 25.7264C22.9471 26.2869 22.532 26.4796 22.0997 26.6548C21.0968 26.83 20.3186 26.9176 18.9352 26.9176C17.8112 26.9176 16.6872 26.9176 15.4767 26.9176C14.5602 26.9526 13.6264 26.9526 12.7099 27.0051C11.8107 27.0752 10.9807 26.6373 10.2198 26.1293Z" fill="white"/>
<path d="M19.7652 31.0409C18.7103 31.0409 17.9149 30.2176 17.9322 29.1491C17.9495 28.0631 18.7449 27.2923 19.817 27.2923C20.8892 27.3098 21.6673 28.0981 21.65 29.1841C21.6327 30.2877 20.8546 31.0584 19.7652 31.0409Z" fill="white"/>
<path d="M12.6407 31.0584C11.6032 31.0584 10.7732 30.2527 10.7559 29.2017C10.7386 28.1506 11.5859 27.2923 12.6753 27.3098C13.7129 27.3274 14.5256 28.1506 14.5083 29.1841C14.491 30.2527 13.6783 31.0584 12.6407 31.0584Z" fill="white"/>
<path d="M7.15186 12.83C7.33275 7.89891 11.1541 3.97228 15.6991 3.65267C20.6963 3.31023 25.3092 7.39667 25.5353 12.83" fill="#BE0A13"/>
<path d="M8.59912 12.8301C8.7574 8.69796 11.9683 5.36489 15.7897 5.11377C19.9955 4.81699 23.8847 8.2642 24.0656 12.8301" fill="#EFCD07"/>
<path d="M10.2949 12.83C10.408 9.58825 12.9179 7.00856 15.9027 6.80309C19.1814 6.5748 22.2114 9.26864 22.3696 12.83" fill="#63A43F"/>
<path d="M12.0813 12.8072C12.2848 11.095 12.9858 9.6796 14.6364 8.94907C17.4403 7.69346 20.1989 9.47414 20.6286 12.83C20.1311 12.83 19.611 12.83 19.1136 12.83C17.3046 12.83 15.4731 12.83 13.6641 12.83C13.1214 12.8072 12.6014 12.8072 12.0813 12.8072Z" fill="#132438"/>
<path d="M14.4555 12.7844H18.2317C18.39 12.7844 18.4578 12.5789 18.3221 12.4876L17.9151 12.1908C17.8473 12.1452 17.8247 12.0539 17.8699 11.9625L18.2543 11.3918C18.3221 11.2777 18.2543 11.1407 18.1186 11.1407L17.4403 11.2092C17.3498 11.2092 17.282 11.1635 17.282 11.0722L17.2142 10.3873C17.1915 10.2503 17.0333 10.2047 16.9428 10.296L16.468 10.7754C16.4001 10.8439 16.3097 10.8439 16.2418 10.7754L15.767 10.296C15.6765 10.2047 15.5183 10.2503 15.4957 10.3873L15.4278 11.0722C15.4278 11.1635 15.3374 11.232 15.2695 11.2092L14.5912 11.1407C14.4555 11.1407 14.3651 11.2777 14.4555 11.3918L14.8399 11.9625C14.8851 12.031 14.8625 12.1224 14.7947 12.1908L14.3877 12.4876C14.252 12.5789 14.3198 12.7844 14.4555 12.7844Z" fill="#EECF10"/>
<path d="M16.4454 0.0684877L16.8524 0.890342C16.875 0.913171 16.8977 0.935997 16.9429 0.958827L17.8247 1.0958C17.9152 1.11863 17.9604 1.23278 17.8926 1.30127L17.2594 1.94049C17.2368 1.96332 17.2142 2.00897 17.2368 2.0318L17.3951 2.92214C17.4177 3.01346 17.3047 3.08195 17.2368 3.0363L16.4454 2.60253C16.4228 2.57971 16.3776 2.57971 16.3324 2.60253L15.5409 3.0363C15.4505 3.08195 15.36 3.01346 15.3827 2.92214L15.5409 2.0318C15.5409 1.98615 15.5409 1.96332 15.5183 1.94049L14.8852 1.30127C14.8174 1.23278 14.8626 1.11863 14.953 1.0958L15.8349 0.958827C15.8801 0.958827 15.9027 0.936 15.9253 0.890342L16.3324 0.0684877C16.2871 -0.0228292 16.4002 -0.0228292 16.4454 0.0684877Z" fill="#EECF10"/>
<defs>
<clipPath id="clip0_932_279">
<rect width="30.5292" height="4.26824" fill="white" transform="translate(28.2771 15.0375)"/>
</clipPath>
<clipPath id="clip1_932_279">
<rect width="125.87" height="11.1476" fill="white" transform="translate(28.2771 19.8079)"/>
</clipPath>
</defs>
</svg>
