<svg width="349" height="71" viewBox="0 0 349 71" fill="none" xmlns="http://www.w3.org/2000/svg">
<g clip-path="url(#clip0_172_58)">
<path d="M66.6764 40.8363C66.2362 40.8363 65.8383 40.7607 65.4826 40.6095C65.1329 40.4582 64.8555 40.2404 64.6505 39.9561C64.4455 39.6718 64.34 39.3361 64.334 38.9489H65.6906C65.7087 39.209 65.7991 39.4147 65.9619 39.5659C66.1307 39.7172 66.3598 39.7928 66.6492 39.7928C66.9447 39.7928 67.1768 39.7232 67.3456 39.5841C67.5144 39.4389 67.5988 39.2514 67.5988 39.0215C67.5988 38.834 67.5416 38.6797 67.427 38.5587C67.3125 38.4377 67.1678 38.344 66.9929 38.2774C66.8241 38.2048 66.5889 38.1262 66.2875 38.0415C65.8775 37.9205 65.5429 37.8026 65.2836 37.6876C65.0304 37.5666 64.8103 37.3882 64.6234 37.1522C64.4425 36.9103 64.3521 36.5896 64.3521 36.1904C64.3521 35.8153 64.4455 35.4887 64.6324 35.2104C64.8193 34.9321 65.0816 34.7204 65.4193 34.5752C65.7569 34.424 66.1428 34.3484 66.5769 34.3484C67.228 34.3484 67.7556 34.5087 68.1596 34.8293C68.5696 35.1438 68.7957 35.5854 68.8379 36.1541H67.4451C67.433 35.9363 67.3396 35.7579 67.1647 35.6187C66.9959 35.4735 66.7698 35.4009 66.4864 35.4009C66.2392 35.4009 66.0403 35.4645 65.8895 35.5915C65.7448 35.7185 65.6725 35.903 65.6725 36.145C65.6725 36.3144 65.7268 36.4566 65.8353 36.5715C65.9498 36.6804 66.0885 36.7711 66.2513 36.8437C66.4201 36.9103 66.6553 36.9889 66.9567 37.0796C67.3667 37.2006 67.7013 37.3216 67.9606 37.4426C68.2199 37.5636 68.4429 37.7451 68.6299 37.9871C68.8168 38.229 68.9102 38.5466 68.9102 38.9398C68.9102 39.2786 68.8228 39.5932 68.6479 39.8835C68.4731 40.1739 68.2168 40.4068 67.8792 40.5822C67.5416 40.7516 67.1406 40.8363 66.6764 40.8363ZM74.7379 35.7458V40.7728H73.4627V40.1376C73.2999 40.3554 73.0859 40.5278 72.8206 40.6548C72.5613 40.7758 72.278 40.8363 71.9705 40.8363C71.5786 40.8363 71.2319 40.7546 70.9304 40.5913C70.629 40.4219 70.3908 40.1769 70.2159 39.8563C70.0471 39.5296 69.9627 39.1425 69.9627 38.6948V35.7458H71.2289V38.5134C71.2289 38.9126 71.3283 39.2211 71.5273 39.4389C71.7263 39.6506 71.9976 39.7565 72.3413 39.7565C72.691 39.7565 72.9653 39.6506 73.1643 39.4389C73.3632 39.2211 73.4627 38.9126 73.4627 38.5134V35.7458H74.7379ZM77.2533 36.4717C77.4161 36.2418 77.6392 36.0513 77.9226 35.9C78.212 35.7427 78.5406 35.6641 78.9084 35.6641C79.3365 35.6641 79.7223 35.77 80.066 35.9817C80.4157 36.1934 80.69 36.4959 80.889 36.8891C81.094 37.2763 81.1965 37.7269 81.1965 38.2411C81.1965 38.7553 81.094 39.2121 80.889 39.6113C80.69 40.0045 80.4157 40.31 80.066 40.5278C79.7223 40.7456 79.3365 40.8545 78.9084 40.8545C78.5406 40.8545 78.215 40.7789 77.9316 40.6276C77.6543 40.4764 77.4282 40.2858 77.2533 40.0559V43.1684H75.9872V35.7458H77.2533V36.4717ZM79.9032 38.2411C79.9032 37.9387 79.8399 37.6785 79.7133 37.4608C79.5927 37.2369 79.4299 37.0676 79.2249 36.9526C79.0259 36.8377 78.8089 36.7802 78.5737 36.7802C78.3446 36.7802 78.1276 36.8407 77.9226 36.9617C77.7236 37.0766 77.5608 37.246 77.4342 37.4698C77.3136 37.6937 77.2533 37.9568 77.2533 38.2593C77.2533 38.5617 77.3136 38.8249 77.4342 39.0487C77.5608 39.2726 77.7236 39.445 77.9226 39.5659C78.1276 39.6809 78.3446 39.7384 78.5737 39.7384C78.8089 39.7384 79.0259 39.6778 79.2249 39.5569C79.4299 39.4359 79.5927 39.2635 79.7133 39.0396C79.8399 38.8158 79.9032 38.5496 79.9032 38.2411ZM86.7742 38.1504C86.7742 38.3319 86.7621 38.4952 86.738 38.6404H83.0752C83.1054 39.0034 83.232 39.2877 83.4551 39.4934C83.6781 39.699 83.9525 39.8019 84.2781 39.8019C84.7484 39.8019 85.083 39.5992 85.282 39.1939H86.6476C86.5029 39.6778 86.2255 40.0771 85.8155 40.3917C85.4055 40.7002 84.9021 40.8545 84.3052 40.8545C83.8228 40.8545 83.3887 40.7486 83.0029 40.5369C82.623 40.3191 82.3246 40.0136 82.1075 39.6204C81.8965 39.2272 81.791 38.7735 81.791 38.2593C81.791 37.739 81.8965 37.2823 82.1075 36.8891C82.3185 36.4959 82.614 36.1934 82.9938 35.9817C83.3737 35.77 83.8108 35.6641 84.3052 35.6641C84.7815 35.6641 85.2066 35.7669 85.5804 35.9726C85.9602 36.1783 86.2527 36.4717 86.4577 36.8528C86.6687 37.2279 86.7742 37.6604 86.7742 38.1504ZM85.4628 37.7874C85.4568 37.4608 85.3392 37.2006 85.1101 37.0071C84.881 36.8074 84.6006 36.7076 84.269 36.7076C83.9555 36.7076 83.6902 36.8044 83.4732 36.998C83.2621 37.1855 83.1325 37.4487 83.0843 37.7874H85.4628ZM88.9645 36.5261C89.1273 36.26 89.3383 36.0513 89.5976 35.9C89.8629 35.7488 90.1643 35.6732 90.502 35.6732V37.0071H90.1674C89.7694 37.0071 89.4679 37.1008 89.263 37.2884C89.064 37.4759 88.9645 37.8026 88.9645 38.2684V40.7728H87.6984V35.7458H88.9645V36.5261ZM97.577 35.6732C98.192 35.6732 98.6864 35.8637 99.0602 36.2448C99.4401 36.6199 99.63 37.1462 99.63 37.8237V40.7728H98.3638V37.9961C98.3638 37.6029 98.2644 37.3035 98.0654 37.0978C97.8664 36.8861 97.5951 36.7802 97.2514 36.7802C96.9078 36.7802 96.6335 36.8861 96.4284 37.0978C96.2295 37.3035 96.13 37.6029 96.13 37.9961V40.7728H94.8638V37.9961C94.8638 37.6029 94.7644 37.3035 94.5654 37.0978C94.3664 36.8861 94.0951 36.7802 93.7514 36.7802C93.4018 36.7802 93.1244 36.8861 92.9194 37.0978C92.7204 37.3035 92.6209 37.6029 92.6209 37.9961V40.7728H91.3548V35.7458H92.6209V36.3537C92.7837 36.142 92.9917 35.9756 93.245 35.8546C93.5043 35.7337 93.7876 35.6732 94.0951 35.6732C94.487 35.6732 94.8367 35.7579 95.1442 35.9272C95.4517 36.0906 95.6899 36.3265 95.8587 36.635C96.0215 36.3446 96.2566 36.1117 96.5641 35.9363C96.8776 35.7609 97.2153 35.6732 97.577 35.6732ZM105.489 38.1504C105.489 38.3319 105.477 38.4952 105.453 38.6404H101.79C101.82 39.0034 101.947 39.2877 102.17 39.4934C102.393 39.699 102.667 39.8019 102.993 39.8019C103.463 39.8019 103.798 39.5992 103.997 39.1939H105.363C105.218 39.6778 104.94 40.0771 104.531 40.3917C104.12 40.7002 103.617 40.8545 103.02 40.8545C102.538 40.8545 102.104 40.7486 101.718 40.5369C101.338 40.3191 101.04 40.0136 100.822 39.6204C100.611 39.2272 100.506 38.7735 100.506 38.2593C100.506 37.739 100.611 37.2823 100.822 36.8891C101.034 36.4959 101.329 36.1934 101.709 35.9817C102.089 35.77 102.526 35.6641 103.02 35.6641C103.496 35.6641 103.922 35.7669 104.295 35.9726C104.675 36.1783 104.968 36.4717 105.173 36.8528C105.384 37.2279 105.489 37.6604 105.489 38.1504ZM104.178 37.7874C104.172 37.4608 104.054 37.2006 103.825 37.0071C103.596 36.8074 103.316 36.7076 102.984 36.7076C102.67 36.7076 102.405 36.8044 102.188 36.998C101.977 37.1855 101.847 37.4487 101.799 37.7874H104.178ZM107.679 36.5261C107.842 36.26 108.053 36.0513 108.313 35.9C108.578 35.7488 108.879 35.6732 109.217 35.6732V37.0071H108.882C108.484 37.0071 108.183 37.1008 107.978 37.2884C107.779 37.4759 107.679 37.8026 107.679 38.2684V40.7728H106.413V35.7458H107.679V36.5261ZM109.744 38.2593C109.744 37.739 109.85 37.2853 110.061 36.8982C110.272 36.505 110.564 36.2025 110.938 35.9908C111.312 35.773 111.74 35.6641 112.222 35.6641C112.843 35.6641 113.356 35.8214 113.76 36.1359C114.17 36.4445 114.444 36.88 114.583 37.4426H113.217C113.145 37.2248 113.021 37.0554 112.846 36.9345C112.677 36.8074 112.466 36.7439 112.213 36.7439C111.851 36.7439 111.565 36.877 111.354 37.1432C111.143 37.4033 111.037 37.7753 111.037 38.2593C111.037 38.7372 111.143 39.1092 111.354 39.3754C111.565 39.6355 111.851 39.7656 112.213 39.7656C112.726 39.7656 113.06 39.5357 113.217 39.0759H114.583C114.444 39.6204 114.17 40.0529 113.76 40.3735C113.35 40.6941 112.837 40.8545 112.222 40.8545C111.74 40.8545 111.312 40.7486 110.938 40.5369C110.564 40.3191 110.272 40.0166 110.061 39.6295C109.85 39.2363 109.744 38.7795 109.744 38.2593ZM115.185 38.2411C115.185 37.733 115.284 37.2823 115.483 36.8891C115.688 36.4959 115.962 36.1934 116.306 35.9817C116.656 35.77 117.045 35.6641 117.473 35.6641C117.847 35.6641 118.172 35.7397 118.45 35.8909C118.733 36.0422 118.959 36.2327 119.128 36.4626V35.7458H120.403V40.7728H119.128V40.0378C118.965 40.2737 118.739 40.4703 118.45 40.6276C118.166 40.7789 117.838 40.8545 117.464 40.8545C117.042 40.8545 116.656 40.7456 116.306 40.5278C115.962 40.31 115.688 40.0045 115.483 39.6113C115.284 39.2121 115.185 38.7553 115.185 38.2411ZM119.128 38.2593C119.128 37.9508 119.068 37.6876 118.947 37.4698C118.826 37.246 118.664 37.0766 118.459 36.9617C118.254 36.8407 118.034 36.7802 117.798 36.7802C117.563 36.7802 117.346 36.8377 117.147 36.9526C116.948 37.0676 116.785 37.2369 116.659 37.4608C116.538 37.6785 116.478 37.9387 116.478 38.2411C116.478 38.5436 116.538 38.8098 116.659 39.0396C116.785 39.2635 116.948 39.4359 117.147 39.5569C117.352 39.6778 117.569 39.7384 117.798 39.7384C118.034 39.7384 118.254 39.6809 118.459 39.5659C118.664 39.445 118.826 39.2756 118.947 39.0578C119.068 38.834 119.128 38.5678 119.128 38.2593ZM121.314 38.2411C121.314 37.733 121.414 37.2823 121.613 36.8891C121.817 36.4959 122.095 36.1934 122.445 35.9817C122.794 35.77 123.183 35.6641 123.611 35.6641C123.937 35.6641 124.247 35.7367 124.543 35.8819C124.838 36.021 125.073 36.2085 125.248 36.4445V34.058H126.533V40.7728H125.248V40.0287C125.091 40.2767 124.871 40.4764 124.588 40.6276C124.304 40.7789 123.976 40.8545 123.602 40.8545C123.18 40.8545 122.794 40.7456 122.445 40.5278C122.095 40.31 121.817 40.0045 121.613 39.6113C121.414 39.2121 121.314 38.7553 121.314 38.2411ZM125.257 38.2593C125.257 37.9508 125.197 37.6876 125.076 37.4698C124.956 37.246 124.793 37.0766 124.588 36.9617C124.383 36.8407 124.163 36.7802 123.928 36.7802C123.693 36.7802 123.476 36.8377 123.277 36.9526C123.078 37.0676 122.915 37.2369 122.788 37.4608C122.667 37.6785 122.607 37.9387 122.607 38.2411C122.607 38.5436 122.667 38.8098 122.788 39.0396C122.915 39.2635 123.078 39.4359 123.277 39.5569C123.481 39.6778 123.698 39.7384 123.928 39.7384C124.163 39.7384 124.383 39.6809 124.588 39.5659C124.793 39.445 124.956 39.2756 125.076 39.0578C125.197 38.834 125.257 38.5678 125.257 38.2593ZM129.994 40.8545C129.511 40.8545 129.077 40.7486 128.692 40.5369C128.306 40.3191 128.001 40.0136 127.778 39.6204C127.561 39.2272 127.453 38.7735 127.453 38.2593C127.453 37.7451 127.564 37.2914 127.787 36.8982C128.016 36.505 128.327 36.2025 128.719 35.9908C129.111 35.773 129.548 35.6641 130.03 35.6641C130.512 35.6641 130.949 35.773 131.342 35.9908C131.733 36.2025 132.041 36.505 132.264 36.8982C132.493 37.2914 132.608 37.7451 132.608 38.2593C132.608 38.7735 132.49 39.2272 132.255 39.6204C132.026 40.0136 131.712 40.3191 131.315 40.5369C130.922 40.7486 130.482 40.8545 129.994 40.8545ZM129.994 39.7474C130.223 39.7474 130.437 39.693 130.636 39.5841C130.841 39.4692 131.004 39.2998 131.125 39.0759C131.245 38.8521 131.305 38.5799 131.305 38.2593C131.305 37.7814 131.179 37.4154 130.926 37.1613C130.678 36.9012 130.374 36.7711 130.012 36.7711C129.65 36.7711 129.346 36.9012 129.099 37.1613C128.857 37.4154 128.737 37.7814 128.737 38.2593C128.737 38.7372 128.855 39.1062 129.09 39.3663C129.331 39.6204 129.632 39.7474 129.994 39.7474Z" fill="#0261A3"/>
</g>
<path fill-rule="evenodd" clip-rule="evenodd" d="M331.686 68.7322C341.748 72.2484 348.135 67.8248 348.192 56.9927C348.18 56.6807 348.173 56.351 348.166 56.0072C348.139 54.7262 348.108 53.2507 347.796 51.7751C347.061 47.8052 344.8 45.5367 340.9 45.0262C338.13 44.686 335.304 44.6292 332.534 45.2531C329.312 45.9904 327.447 47.9753 326.769 51.0945C325.808 55.1779 325.864 59.3179 326.825 63.4012C327.447 66.01 329.03 67.8248 331.686 68.7322ZM228.925 57.9567C231.242 60.3954 231.129 63.2877 230.112 66.1234C229.151 68.7322 226.551 69.0724 224.233 69.1292C222.192 69.1922 220.151 69.1677 218.11 69.1432C216.477 69.1236 214.844 69.104 213.211 69.1292C211.459 69.1859 210.724 68.6755 210.78 66.6905C210.893 60.2819 210.893 53.8734 210.78 47.4648C210.78 45.8201 211.119 45.0829 212.928 45.0829C214.306 45.1055 215.694 45.0739 217.083 45.0421C219.169 44.9945 221.259 44.9467 223.329 45.0829C229.603 45.5366 231.581 49.1662 228.981 55.0076C228.133 55.9718 227.625 56.9359 228.925 57.9567ZM136.394 56.1419C136.394 57.2122 136.384 58.2587 136.375 59.2881C136.352 61.8042 136.33 64.219 136.45 66.6338C136.507 68.562 135.659 68.8579 134.02 68.959H132.607C130.351 68.8579 129.385 68.5053 129.498 65.8965C129.656 62.087 129.621 58.2496 129.585 54.4039V54.4036V54.4033V54.4029V54.4026V54.4023V54.4019V54.4016V54.4012V54.4009V54.4006V54.4002V54.3999V54.3996V54.3992V54.3989C129.57 52.7502 129.554 51.1 129.554 49.4498C129.554 49.2135 129.542 48.9623 129.53 48.7055C129.462 47.2979 129.386 45.7197 131.25 45.4799C131.534 45.4443 131.824 45.3998 132.117 45.3548C134.162 45.0409 136.373 44.7013 137.807 47.1813C139.605 50.2199 141.483 53.1791 143.373 56.1586C143.741 56.7381 144.109 57.3183 144.477 57.9C144.477 56.8948 144.486 55.8942 144.496 54.8982V54.8974V54.8966V54.8958V54.8949V54.8941V54.8933V54.8925V54.8917V54.8909V54.8901V54.8893V54.8885V54.8877V54.8869V54.8861C144.519 52.4024 144.541 49.9476 144.42 47.5215C144.364 45.7067 144.986 45.3097 146.681 45.3097L146.849 45.3077C149.099 45.2802 150.23 45.2663 150.799 45.8249C151.373 46.3892 151.373 47.5378 151.373 49.8468V64.8757C151.373 65.0557 151.378 65.2428 151.382 65.4332V65.4334V65.4334V65.4335V65.4336V65.4337V65.4338V65.4339V65.434V65.4341V65.4342V65.4343V65.4344V65.4345V65.4346C151.418 66.8637 151.459 68.482 149.564 68.7322C149.296 68.7666 149.023 68.8086 148.748 68.8511C146.756 69.1576 144.624 69.4857 143.233 67.1442C141.559 64.387 139.852 61.6626 138.087 58.8466L138.086 58.8456L138.086 58.8447C137.528 57.9542 136.964 57.0546 136.394 56.1419ZM186.644 57.2762C186.615 57.099 186.601 56.9218 186.586 56.7365C186.572 56.5661 186.558 56.3889 186.531 56.1986C186.391 56.2186 186.111 55.441 185.842 54.6935C185.349 53.3253 184.892 52.0585 185.401 55.9718C185.249 56.3276 185.244 56.7062 185.24 57.0821C185.235 57.5449 185.229 58.0036 184.949 58.4104C184.903 59.5447 184.84 60.6789 184.777 61.8131C184.682 63.5145 184.587 65.216 184.553 66.9174C184.553 68.562 183.875 69.0724 182.348 68.959C181.63 68.8742 180.942 68.8845 180.239 68.8951C180.003 68.8987 179.764 68.9023 179.522 68.9023C178.166 68.959 177.77 68.4486 177.826 67.0875C178.16 60.9025 178.384 54.6627 178.606 48.4757L178.606 48.4748L178.606 48.4738L178.618 48.1454C178.674 46.1037 179.635 45.253 181.614 45.3097C182.367 45.3475 183.121 45.3349 183.875 45.3223C184.251 45.316 184.628 45.3097 185.005 45.3097C187.561 45.3097 188.833 45.3097 189.581 45.9357C190.321 46.5556 190.547 47.789 190.997 50.2438C191.505 53.1361 192.014 55.9718 192.805 58.9775C192.978 58.0228 193.157 57.0627 193.336 56.1006L193.341 56.0688L193.342 56.0667L193.342 56.0652C193.745 53.8957 194.15 51.7159 194.501 49.5632C195.123 45.65 195.406 45.3664 199.362 45.3664C200.197 45.3721 200.939 45.3681 201.598 45.3645C204.241 45.3502 205.559 45.343 206.232 45.9983C206.901 46.6506 206.932 47.9592 206.992 50.5701C207.006 51.1963 207.023 51.8974 207.05 52.6824C207.091 53.8121 207.129 54.9384 207.166 56.0622L207.167 56.0718C207.284 59.571 207.401 63.0457 207.615 66.5204C207.728 68.3352 207.276 69.1859 205.354 68.959C204.732 68.8456 204.054 68.8456 203.376 68.959C201.341 69.2426 200.832 68.3352 200.832 66.4069C200.775 61.4729 200.493 56.5389 199.758 51.5482C199.57 52.4934 199.375 53.4386 199.18 54.3838C198.791 56.2742 198.401 58.1647 198.062 60.0551C196.988 65.5562 193.314 67.0875 188.34 64.1384C187.403 62.6502 187.194 61.0267 186.987 59.4174C186.894 58.6964 186.802 57.9781 186.644 57.2762ZM316.545 55.0647V55.0681V55.0715V55.075V55.0786V55.0822V55.0858V55.0895V55.0933V55.0971V55.101V55.1049V55.1089V55.1129V55.117C316.542 56.0209 316.538 56.9461 316.538 57.9C313.994 53.8734 311.79 50.3573 309.585 46.8411L309.585 46.841C308.303 44.8187 306.426 45.1058 304.647 45.3779C304.231 45.4415 303.821 45.5043 303.424 45.5366C301.584 45.6863 301.625 47.2406 301.662 48.6162C301.667 48.8042 301.672 48.9889 301.672 49.1662V64.422C301.672 66.6933 301.672 67.8139 302.232 68.3801C302.778 68.9314 303.854 68.9571 305.98 69.0079L306.307 69.0157C308.342 69.0725 308.681 68.3352 308.624 66.5771C308.54 64.1753 308.55 61.7736 308.561 59.1625V59.1623V59.1621V59.1618V59.1616V59.1614V59.1612V59.161V59.1607V59.1605V59.1603V59.16V59.1598V59.1595V59.1593V59.1546V59.1499V59.1452V59.1403V59.1354V59.1304V59.1253V59.1201V59.1148V59.1094V59.104C308.564 58.2191 308.568 57.3101 308.568 56.3688C309.134 57.2731 309.683 58.1479 310.218 59.0001L310.219 59.0018L310.226 59.0131C312.036 61.8968 313.682 64.5205 315.294 67.1442C316.7 69.4613 318.864 69.1388 320.875 68.839C321.128 68.8012 321.379 68.7639 321.625 68.7322C323.541 68.4919 323.468 66.9897 323.401 65.6051C323.389 65.3554 323.377 65.1096 323.377 64.8757C323.415 61.6221 323.402 58.3432 323.39 55.0727C323.384 53.4407 323.377 51.8107 323.377 50.187C323.377 47.6797 323.377 46.4464 322.761 45.847C322.164 45.2667 320.99 45.2806 318.678 45.3078L318.516 45.3097C316.82 45.3097 316.481 45.8769 316.481 47.4081C316.565 49.8976 316.556 52.387 316.545 55.0633V55.0647ZM122.545 57.9002C125.349 59.6041 125.836 62.1939 126.317 64.7604C126.525 65.8673 126.732 66.9698 127.124 67.9951C127.35 68.5056 126.954 68.9026 126.389 68.9026C125.73 68.9026 125.07 68.9089 124.411 68.9152H124.411C123.092 68.9278 121.773 68.9404 120.454 68.9026C119.501 68.9026 119.391 68.1559 119.288 67.4554C119.281 67.4082 119.274 67.3612 119.267 67.3146C118.871 65.6699 118.476 64.0252 118.136 62.3239C117.797 60.509 116.61 60.1688 115.028 60.2255C113.569 60.2685 113.641 61.1287 113.711 61.9624C113.733 62.2269 113.755 62.4887 113.728 62.7208C113.69 63.0254 113.703 63.3554 113.715 63.6767C113.721 63.8342 113.728 63.9895 113.728 64.1387C113.728 66.5428 113.728 67.7343 113.132 68.3245C112.546 68.9045 111.386 68.9039 109.085 68.9027L108.753 68.9026C106.888 68.9026 106.323 68.3354 106.379 66.5206C106.492 60.112 106.436 53.7035 106.379 47.2949C106.379 45.9905 106.549 45.0831 108.075 45.0831C108.992 45.0589 109.911 45.0192 110.832 44.9794C114.226 44.8329 117.64 44.6854 121.019 45.31C124.467 45.9905 125.824 47.4083 126.276 50.641C126.785 54.384 125.993 55.972 122.545 57.9002ZM240.738 60.3387V53.8167C240.738 52.6824 240.738 51.5482 240.851 50.4706C240.851 45.139 240.851 45.139 235.483 45.3594L235.312 45.3664C233.842 45.4232 233.334 45.8201 233.334 47.2947C233.371 49.6367 233.359 51.9536 233.346 54.2788V54.281V54.2831V54.2853V54.2874V54.2896V54.2917V54.2938V54.296V54.2981V54.3002C233.34 55.4588 233.334 56.6196 233.334 57.7866C233.277 67.1442 235.99 69.753 245.26 69.4127C245.402 69.4127 245.543 69.3986 245.684 69.3844C245.826 69.3702 245.967 69.356 246.108 69.356C251.252 69.0157 253.626 66.8606 254.078 61.6998C254.298 58.787 254.278 55.8399 254.259 52.912L254.259 52.9073C254.253 52.0742 254.248 51.2427 254.248 50.4139C254.248 47.8779 254.248 46.644 253.631 46.0233C253.046 45.4351 251.907 45.3979 249.688 45.3253C249.536 45.3204 249.379 45.3152 249.217 45.3097C246.9 45.253 246.56 46.1037 246.617 48.0887C246.692 50.7748 246.667 53.4862 246.642 56.1892V56.1902V56.1916V56.193V56.1944V56.1958V56.1972V56.1986V56.2V56.2014V56.2028V56.2043C246.629 57.5481 246.617 58.8898 246.617 60.2252C246.617 62.2102 246.221 63.8549 243.734 63.8549C241.36 63.8549 240.738 62.3803 240.738 60.3387ZM63.8728 56.9928C63.8728 55.8984 63.8791 54.7978 63.8853 53.695C63.8979 51.4832 63.9105 49.263 63.8728 47.068C63.8728 45.8203 64.0989 45.1397 65.512 45.083C65.9128 45.0624 66.3136 45.0409 66.7144 45.0193C70.7226 44.8037 74.7307 44.5881 78.7388 45.3099C81.5085 45.8203 83.0912 47.4083 83.4868 50.1872C83.6564 51.4916 83.7695 52.796 83.7129 54.1004C83.4303 58.6374 81.6215 60.3955 77.043 60.8492C76.5145 60.8974 75.959 60.8865 75.4111 60.8756C74.025 60.8482 72.6874 60.8218 71.9583 61.7566C71.1717 62.8417 71.2384 64.4416 71.3063 66.0712C71.3165 66.3154 71.3267 66.5602 71.3341 66.8041C71.3906 68.3353 70.9949 68.9025 69.2992 68.9592L69.1313 68.9627C66.5139 69.0177 65.1993 69.0453 64.539 68.4017C63.8728 67.7523 63.8728 66.4194 63.8728 63.7416V56.9928ZM286.938 55.9558L286.939 55.9515C287.313 54.3501 287.687 52.7506 288.049 51.1512C288.276 51.0944 288.445 51.0944 288.558 51.2079C288.718 51.8847 288.878 52.5602 289.037 53.2347L289.049 53.2848L289.05 53.2874C289.902 56.8902 290.748 60.466 291.554 64.0817L291.574 64.1689C292.153 66.6295 292.438 67.8417 293.203 68.4454C293.946 69.0315 295.141 69.0441 297.497 69.0689L297.828 69.0725C300.089 69.0725 300.259 68.3919 299.637 66.4069C298.772 63.7695 298.044 61.0928 297.315 58.4115C296.805 56.5379 296.295 54.6621 295.737 52.7958C295.345 51.4791 295.058 50.3944 294.822 49.5009L294.822 49.5007C294.278 47.4428 294.002 46.3994 293.325 45.8716C292.628 45.3288 291.506 45.3316 289.23 45.3374C288.307 45.3398 287.195 45.3426 285.845 45.3097C283.641 45.253 282.623 46.2171 282.058 48.2021C281.192 51.4689 280.262 54.7569 279.334 58.0402C278.747 60.1149 278.161 62.1876 277.592 64.2519L277.569 64.339C276.965 66.5991 276.667 67.7122 277.094 68.2807C277.509 68.8325 278.606 68.8711 280.769 68.9474L281.097 68.959C283.358 69.0725 284.206 68.3919 284.658 66.1801C285.349 62.7526 286.144 59.3513 286.937 55.9584L286.937 55.9577L286.938 55.957L286.938 55.9564L286.938 55.9558ZM163.668 54.5235L163.667 54.5253C163.399 55.688 163.13 56.8507 162.847 58.0134C162.615 59.0225 162.363 60.025 162.112 61.0253L162.112 61.0254C161.629 62.9486 161.147 64.864 160.813 66.8039C160.53 68.4486 159.795 68.9023 158.212 68.9023L158.044 68.9058C155.403 68.9601 154.064 68.9877 153.565 68.3541C153.053 67.7031 153.427 66.3539 154.186 63.6181L154.199 63.5713C154.567 62.2562 154.939 60.9372 155.312 59.6154L155.315 59.6054L155.325 59.5697L155.326 59.5649C156.38 55.8302 157.44 52.0729 158.438 48.3155C159.06 46.047 160.247 45.1396 162.678 45.1963C163.866 45.2277 164.862 45.2298 165.702 45.2315C167.938 45.2362 169.069 45.2385 169.782 45.7851C170.511 46.3439 170.805 47.4715 171.399 49.7521C171.583 50.4606 171.797 51.2802 172.061 52.2287C172.377 53.3502 172.689 54.4717 173.001 55.5925L173.002 55.595L173.003 55.5978L173.004 55.6005L173.004 55.6033L173.005 55.607C174.034 59.2989 175.061 62.983 176.187 66.6338C176.752 68.4486 176.3 68.959 174.435 68.9023C173.228 68.8598 172.303 68.875 171.585 68.8868C170.371 68.9068 169.753 68.9169 169.374 68.6209C168.982 68.3139 168.847 67.6777 168.571 66.3819L168.571 66.3819C168.431 65.724 168.255 64.896 167.991 63.8549C167.356 61.3383 166.78 58.8019 166.204 56.2691C165.807 54.521 165.411 52.7746 164.995 51.0377H164.487C164.204 52.1996 163.936 53.3616 163.668 54.5235ZM85.8484 54.8291L85.8484 54.8295C85.8546 55.554 85.8609 56.2764 85.8609 56.9926C85.8609 58.0701 85.8609 59.091 85.8044 60.0551C85.8326 60.6222 85.8326 61.1894 85.8326 61.7565C85.8326 62.3236 85.8326 62.8907 85.8609 63.4579C85.9739 66.8039 87.4411 68.3919 90.8326 68.6187C92.105 68.6187 93.3806 68.6453 94.6569 68.6718L94.657 68.6719C97.2118 68.725 99.7693 68.7782 102.31 68.6187C102.345 68.6148 102.38 68.6112 102.415 68.6076C102.887 68.5585 103.343 68.5112 103.553 67.8248C104.401 65.1593 103.157 63.2877 100.444 63.2877C99.879 63.2877 99.3137 63.2814 98.7485 63.2751H98.7484C97.6179 63.2625 96.4875 63.2499 95.357 63.2877C93.7178 63.3444 93.3221 62.4938 93.2656 61.0192C93.2091 59.3745 94.0569 59.2044 95.357 59.2611C96.1483 59.2895 96.9538 59.2895 97.7592 59.2895H97.7593C98.5648 59.2895 99.3703 59.2895 100.162 59.3178C101.575 59.3745 102.14 58.9208 102.196 57.3896C102.31 55.2345 101.914 53.9868 99.3703 54.3271C98.2795 54.4698 97.149 54.413 96.0454 54.3575L96.0452 54.3575L96.0449 54.3574C95.8333 54.3468 95.6227 54.3362 95.4135 54.3271C95.2571 54.3179 95.0947 54.3191 94.9323 54.3204C94.0976 54.3271 93.2656 54.3337 93.2656 52.9093C93.2656 51.2646 94.0569 50.8109 95.5266 50.8676C96.9188 50.9053 98.2859 50.8928 99.6613 50.8803C100.352 50.8739 101.045 50.8676 101.744 50.8676C103.219 50.8676 103.219 49.361 103.219 48.1454C103.219 46.8274 103.049 45.285 101.744 45.285C100.057 45.3111 98.4053 45.2706 96.7565 45.2301C94.8154 45.1825 92.8783 45.135 90.8916 45.1963C87.6131 45.3097 85.9739 47.1813 85.8609 50.4706C85.8231 51.9094 85.8358 53.3735 85.8484 54.8291ZM268.209 69.186C267.872 69.186 267.529 69.1923 267.184 69.1985C266.486 69.2112 265.781 69.224 265.1 69.186C260.861 68.8458 258.374 66.7474 257.357 62.6073C256.509 58.9777 256.509 55.2914 257.3 51.6618C258.148 47.6918 260.522 45.48 264.648 45.0263C267.248 44.6861 269.905 44.7995 272.505 45.1398C274.484 45.4233 275.501 45.9337 275.162 48.259C274.879 50.3574 274.371 51.6618 271.94 51.1513H271.657C270.986 51.24 270.248 51.1623 269.511 51.0847C267.891 50.9142 266.277 50.7442 265.383 52.3423C263.857 55.1212 264.366 58.4106 265.1 61.4731C265.383 62.6641 266.344 63.0043 267.475 63.0043C268.019 63.0043 268.563 63.0197 269.105 63.0351L269.105 63.0351C270.367 63.0708 271.619 63.1062 272.844 62.9476C275.104 62.6026 275.315 63.8428 275.554 65.2532L275.554 65.2542C275.59 65.4661 275.626 65.6819 275.671 65.8967C276.01 67.8249 275.388 68.5622 273.466 68.9025C271.714 69.1293 269.962 69.186 268.209 69.186ZM220.333 58.8074C217.959 58.6373 218.015 59.9984 218.185 61.6431C217.902 63.2877 218.185 64.3086 220.276 64.1384C222.142 64.025 223.329 63.6847 223.329 61.4729C223.385 59.2611 222.198 58.9208 220.333 58.8074ZM220.05 50.0169C222.085 49.8468 222.82 50.6407 222.82 52.4556C222.77 54.3496 221.673 54.4038 220.41 54.4662C220.236 54.4747 220.059 54.4835 219.881 54.4972C218.142 54.6511 218.115 53.6911 218.084 52.5829C218.081 52.4661 218.077 52.3477 218.072 52.2287C218.072 50.6407 218.355 49.5632 220.05 50.0169ZM340.357 58.0133L340.357 58.0101L340.357 58.0072C340.367 57.6723 340.378 57.3341 340.391 56.9926C340.334 56.3274 340.305 55.6328 340.277 54.9237C340.249 54.2422 340.221 53.5474 340.165 52.8525C339.883 51.3213 339.035 50.3572 337.282 50.3572C335.587 50.3572 334.682 51.2079 334.4 52.8525C333.947 55.6882 333.947 58.4671 334.4 61.3028C334.682 62.9475 335.53 63.8549 337.226 63.8549C339.091 63.8549 339.939 62.7206 340.165 61.0759C340.294 60.0876 340.325 59.0667 340.357 58.0133ZM113.728 52.3421C113.445 50.7542 114.01 49.9602 115.819 50.1303C115.943 50.1432 116.066 50.1548 116.188 50.1662C117.68 50.3062 118.98 50.4281 118.928 52.6824C118.877 54.8395 117.62 54.9501 116.166 55.0781L116.166 55.0781C116.014 55.0915 115.861 55.105 115.706 55.1211C113.492 55.2836 113.599 53.9454 113.712 52.5401C113.717 52.4742 113.722 52.4082 113.728 52.3421ZM71.3357 51.9579C71.3467 52.2229 71.3577 52.4897 71.3341 52.7391C71.3581 53.0167 71.3387 53.3174 71.3193 53.6171C71.2475 54.726 71.1766 55.8221 73.3124 55.6882C75.2908 55.6315 76.2517 55.0076 76.3082 52.966C76.3647 50.6407 75.0082 50.187 73.0863 50.0736C71.2541 49.9839 71.2944 50.9577 71.3357 51.9579Z" fill="#0261A3"/>
<path d="M23.0848 59.0215C20.4677 57.2014 19.8818 54.1547 18.8272 51.4641C17.1866 47.2304 17.2257 47.1908 21.7176 47.1908C30.6234 47.1908 39.5292 47.1908 48.4741 47.1908C49.4115 47.1908 50.3099 47.1908 51.0521 46.5577C52.1458 45.6081 52.8489 44.1837 52.6536 42.9175C52.4973 42.0075 50.974 42.5614 50.0756 42.5614C39.1777 42.5614 28.3189 42.5614 17.46 42.5614C15.9757 42.5614 13.9446 40.0686 14.218 38.5651C14.3352 37.8529 14.9211 38.1298 15.3117 38.1298C18.5147 38.0903 21.6786 38.0903 24.8815 38.0903C34.1779 38.0903 43.4743 38.0903 52.8098 38.0903C54.4503 38.0903 56.0128 36.3493 55.8565 34.6875C55.7393 33.5796 54.841 34.094 54.3332 34.094C45.818 34.0544 37.3028 34.094 28.7485 34.094C23.866 34.094 18.9834 34.0544 14.1008 34.1335C12.929 34.1335 12.3431 33.7774 11.9916 32.6695C11.4447 30.8494 10.7026 29.0689 10.0776 27.2883C9.53076 25.7452 8.51519 24.9143 6.87465 24.9934C5.42941 25.033 4.02323 25.033 2.57799 24.9934C1.05463 24.9934 0 24.3208 0 22.659C0 21.0763 1.09369 20.4827 2.46081 20.4432C4.21853 20.4036 5.97626 20.3245 7.73398 20.4827C10.7807 20.7597 12.929 22.382 14.0618 25.31C14.5305 26.5366 14.218 28.9502 15.507 28.9502C16.796 28.9502 19.5303 28.9502 19.5303 28.9502C19.5303 28.9502 21.6261 28.9502 22.6551 28.9502C24.0222 28.9502 25.194 28.9502 26.7564 28.9502C28.3885 28.9502 29.686 28.9502 31.2484 28.9502C32.8108 28.9502 34.4123 28.9106 35.9357 28.9502C37.9278 28.9502 39.8417 28.9502 41.7947 28.9502C42.576 28.9502 43.1619 28.9502 43.9431 28.9502C44.8 28.9502 45.7008 28.9502 46.6773 28.9502C48.0444 28.9502 49.4115 28.9502 50.7787 28.9502C51.8363 28.9502 52.7317 28.9502 53.9035 28.9502C55.1245 28.9502 56.0518 28.9502 57.6143 28.9502C57.7695 28.9502 57.8852 28.9533 58.0049 28.9502C62.614 28.8315 62.4578 29.9789 60.8953 34.0148C59.2548 38.2881 57.7705 42.6405 56.169 46.9534C54.9191 50.3562 53.1614 51.6223 49.5678 51.6223C41.0526 51.6223 32.5374 51.6223 24.0222 51.6223C24.3347 54.7482 25.194 55.5791 28.1626 55.5791C35.1154 55.5791 42.0682 55.5791 49.0209 55.5791C51.0911 55.5791 52.1067 56.5287 51.9505 58.1114C51.8333 59.3776 50.8958 59.8128 49.9193 60.2085C47.6538 60.6042 45.8961 60.802 42.7713 60.802C40.2323 60.802 37.6934 60.802 34.9592 60.802C32.889 60.8811 30.7797 60.8811 28.7095 60.9998C26.6783 61.1581 24.8034 60.1689 23.0848 59.0215Z" fill="#0261A3"/>
<path d="M44.646 70.116C42.2634 70.116 40.4666 68.2563 40.5056 65.8427C40.5447 63.3895 42.3415 61.6486 44.7632 61.6486C47.185 61.6881 48.9427 63.4687 48.9036 65.9218C48.8646 68.4146 47.1069 70.1556 44.646 70.116Z" fill="#0261A3"/>
<path d="M28.5532 70.1555C26.2096 70.1555 24.3347 68.3354 24.2956 65.9614C24.2566 63.5873 26.1705 61.6485 28.6313 61.6881C30.975 61.7277 32.8108 63.5873 32.7718 65.9218C32.7327 68.3354 30.8969 70.1555 28.5532 70.1555Z" fill="#0261A3"/>
<path d="M16.1552 28.9807C16.5638 17.8422 25.1956 8.97265 35.4619 8.25071C46.7497 7.4772 57.1692 16.7077 57.68 28.9807" fill="#BE0A13"/>
<path d="M19.424 28.9808C19.7815 19.6471 27.0343 12.1183 35.6661 11.5511C45.1663 10.8807 53.9514 18.6674 54.36 28.9808" fill="#EFCD07"/>
<path d="M23.2548 28.9808C23.5101 21.6582 29.1796 15.8312 35.9216 15.367C43.3277 14.8514 50.1718 20.9363 50.5294 28.9808" fill="#63A43F"/>
<path d="M27.2897 28.9292C27.7494 25.0617 29.3327 21.8645 33.0613 20.2143C39.3947 17.3781 45.626 21.4004 46.5964 28.9808C45.4728 28.9808 44.298 28.9808 43.1743 28.9808C39.0882 28.9808 34.9511 28.9808 30.865 28.9808C29.6392 28.9292 28.4644 28.9292 27.2897 28.9292Z" fill="white"/>
<path d="M32.6527 28.8777H41.1824C41.5399 28.8777 41.6931 28.4136 41.3867 28.2073L40.4673 27.5369C40.3141 27.4338 40.263 27.2275 40.3652 27.0213L41.2334 25.7321C41.3867 25.4742 41.2334 25.1648 40.927 25.1648L39.3947 25.3195C39.1904 25.3195 39.0372 25.2164 39.0372 25.0101L38.8839 23.4631C38.8329 23.1537 38.4753 23.0506 38.271 23.2569L37.1984 24.3398C37.0452 24.4945 36.8409 24.4945 36.6877 24.3398L35.6151 23.2569C35.4108 23.0506 35.0532 23.1537 35.0022 23.4631L34.8489 25.0101C34.8489 25.2164 34.6446 25.3711 34.4914 25.3195L32.9591 25.1648C32.6527 25.1648 32.4484 25.4742 32.6527 25.7321L33.521 27.0213C33.6231 27.176 33.572 27.3822 33.4188 27.5369L32.4994 28.2073C32.193 28.4136 32.3462 28.8777 32.6527 28.8777Z" fill="#EECF10"/>
<path d="M37.1473 0.154702L38.0667 2.01112C38.1178 2.06269 38.1689 2.11425 38.271 2.16582L40.263 2.47522C40.4673 2.52679 40.5694 2.78462 40.4162 2.93933L38.9861 4.38322C38.935 4.43478 38.8839 4.53791 38.935 4.58948L39.2925 6.6006C39.3436 6.80687 39.0882 6.96158 38.935 6.85845L37.1473 5.87866C37.0963 5.82709 36.9941 5.82709 36.892 5.87866L35.1043 6.85845C34.9 6.96158 34.6957 6.80687 34.7468 6.6006L35.1043 4.58948C35.1043 4.48635 35.1043 4.43478 35.0532 4.38322L33.6231 2.93933C33.4699 2.78462 33.572 2.52679 33.7763 2.47522L35.7683 2.16582C35.8704 2.16582 35.9215 2.11426 35.9726 2.01112L36.892 0.154702C36.7898 -0.0515672 37.0452 -0.0515672 37.1473 0.154702Z" fill="#EECF10"/>
<defs>
<clipPath id="clip0_172_58">
<rect width="68.96" height="9.6412" fill="white" transform="translate(63.8728 33.967)"/>
</clipPath>
</defs>
</svg>
