<svg width="413" height="57" viewBox="0 0 413 57" fill="none" xmlns="http://www.w3.org/2000/svg">
<g clip-path="url(#clip0_164_7)">
<path d="M65.6032 18.1449C64.8113 18.1449 64.0953 18.016 63.4552 17.758C62.826 17.5 62.327 17.1286 61.9582 16.6437C61.5894 16.1588 61.3995 15.5861 61.3887 14.9258H63.8295C63.862 15.3695 64.0248 15.7203 64.3177 15.9782C64.6214 16.2362 65.0336 16.3651 65.5544 16.3651C66.0859 16.3651 66.5036 16.2464 66.8073 16.0092C67.1111 15.7615 67.2629 15.4417 67.2629 15.0496C67.2629 14.7298 67.1599 14.4667 66.9538 14.2603C66.7476 14.054 66.4873 13.894 66.1727 13.7805C65.8689 13.6567 65.4459 13.5226 64.9035 13.3782C64.1658 13.1718 63.5637 12.9706 63.0973 12.7746C62.6416 12.5682 62.2457 12.2638 61.9094 11.8615C61.5839 11.4488 61.4212 10.9019 61.4212 10.221C61.4212 9.58126 61.5894 9.02411 61.9257 8.5495C62.2619 8.07488 62.7338 7.71377 63.3413 7.46614C63.9488 7.2082 64.6431 7.07923 65.4242 7.07923C66.5958 7.07923 67.545 7.35265 68.2718 7.89948C69.0095 8.436 69.4163 9.18919 69.4922 10.159H66.9863C66.9646 9.78761 66.7965 9.48324 66.4819 9.24594C66.1781 8.99831 65.7713 8.8745 65.2615 8.8745C64.8167 8.8745 64.4587 8.98284 64.1875 9.19951C63.9271 9.41618 63.797 9.73086 63.797 10.1436C63.797 10.4325 63.8946 10.6749 64.0899 10.871C64.296 11.0567 64.5455 11.2114 64.8384 11.3353C65.1421 11.4488 65.5652 11.5829 66.1076 11.7376C66.8453 11.944 67.4474 12.1504 67.9138 12.3567C68.3803 12.5631 68.7817 12.8726 69.118 13.2853C69.4543 13.698 69.6224 14.2397 69.6224 14.9103C69.6224 15.4881 69.4651 16.0246 69.1505 16.5199C68.8359 17.0151 68.3749 17.4124 67.7674 17.7116C67.1599 18.0005 66.4385 18.1449 65.6032 18.1449ZM80.1078 9.46261V18.0366H77.8134V16.9532C77.5205 17.3247 77.1354 17.6187 76.6581 17.8354C76.1916 18.0417 75.6818 18.1449 75.1285 18.1449C74.4234 18.1449 73.7996 18.0056 73.2572 17.727C72.7148 17.4381 72.2863 17.0202 71.9717 16.4734C71.6679 15.9163 71.5161 15.256 71.5161 14.4925V9.46261H73.7942V14.1829C73.7942 14.8639 73.9732 15.3901 74.3312 15.7615C74.6892 16.1226 75.1773 16.3032 75.7957 16.3032C76.4249 16.3032 76.9185 16.1226 77.2764 15.7615C77.6344 15.3901 77.8134 14.8639 77.8134 14.1829V9.46261H80.1078ZM84.6336 10.7007C84.9265 10.3087 85.3279 9.98365 85.8378 9.72571C86.3585 9.45745 86.9498 9.32332 87.6114 9.32332C88.3817 9.32332 89.0759 9.50388 89.6943 9.86499C90.3235 10.2261 90.817 10.742 91.175 11.4126C91.5439 12.073 91.7283 12.8416 91.7283 13.7186C91.7283 14.5956 91.5439 15.3746 91.175 16.0556C90.817 16.7262 90.3235 17.2473 89.6943 17.6187C89.0759 17.9901 88.3817 18.1759 87.6114 18.1759C86.9498 18.1759 86.364 18.0469 85.854 17.7889C85.3551 17.531 84.9483 17.206 84.6336 16.8139V22.1224H82.3555V9.46261H84.6336V10.7007ZM89.4014 13.7186C89.4014 13.2028 89.2875 12.7591 89.0596 12.3877C88.8427 12.0059 88.5498 11.717 88.181 11.521C87.823 11.3249 87.4324 11.2269 87.0094 11.2269C86.5972 11.2269 86.2066 11.3301 85.8378 11.5365C85.4798 11.7325 85.1869 12.0214 84.9591 12.4031C84.7421 12.7849 84.6336 13.2337 84.6336 13.7496C84.6336 14.2655 84.7421 14.7143 84.9591 15.096C85.1869 15.4778 85.4798 15.7718 85.8378 15.9782C86.2066 16.1743 86.5972 16.2723 87.0094 16.2723C87.4324 16.2723 87.823 16.169 88.181 15.9627C88.5498 15.7564 88.8427 15.4623 89.0596 15.0806C89.2875 14.6988 89.4014 14.2448 89.4014 13.7186ZM101.764 13.5639C101.764 13.8734 101.742 14.152 101.699 14.3996H95.1086C95.1628 15.0187 95.3907 15.5036 95.7921 15.8544C96.1934 16.2052 96.687 16.3806 97.2728 16.3806C98.119 16.3806 98.7211 16.0349 99.0791 15.3437H101.536C101.276 16.169 100.777 16.85 100.039 17.3866C99.3014 17.9128 98.3956 18.1759 97.3217 18.1759C96.4537 18.1759 95.6727 17.9953 94.9785 17.6342C94.295 17.2627 93.758 16.7417 93.3675 16.0711C92.9878 15.4004 92.798 14.6266 92.798 13.7496C92.798 12.8623 92.9878 12.0833 93.3675 11.4126C93.7472 10.742 94.2788 10.2261 94.9622 9.86499C95.6456 9.50388 96.4321 9.32332 97.3217 9.32332C98.1786 9.32332 98.9434 9.49872 99.616 9.84952C100.299 10.2003 100.826 10.7007 101.194 11.3507C101.574 11.9904 101.764 12.7281 101.764 13.5639ZM99.4045 12.9448C99.3936 12.3877 99.1821 11.944 98.7699 11.6138C98.3576 11.2734 97.8531 11.1031 97.2566 11.1031C96.6924 11.1031 96.2151 11.2682 95.8246 11.5984C95.4449 11.9182 95.2117 12.367 95.1249 12.9448H99.4045ZM105.705 10.7936C105.998 10.3396 106.377 9.98365 106.844 9.72571C107.321 9.46776 107.864 9.33879 108.471 9.33879V11.6138H107.869C107.153 11.6138 106.611 11.7738 106.242 12.0936C105.884 12.4135 105.705 12.9706 105.705 13.7651V18.0366H103.427V9.46261H105.705V10.7936ZM121.201 9.33879C122.307 9.33879 123.197 9.6638 123.869 10.3138C124.553 10.9535 124.895 11.8511 124.895 13.0067V18.0366H122.616V13.3008C122.616 12.6301 122.437 12.1194 122.079 11.7686C121.722 11.4075 121.233 11.2269 120.615 11.2269C119.997 11.2269 119.503 11.4075 119.134 11.7686C118.776 12.1194 118.597 12.6301 118.597 13.3008V18.0366H116.319V13.3008C116.319 12.6301 116.14 12.1194 115.782 11.7686C115.424 11.4075 114.936 11.2269 114.318 11.2269C113.689 11.2269 113.189 11.4075 112.821 11.7686C112.463 12.1194 112.284 12.6301 112.284 13.3008V18.0366H110.006V9.46261H112.284V10.4995C112.577 10.1384 112.951 9.85467 113.406 9.64832C113.873 9.44197 114.383 9.33879 114.936 9.33879C115.641 9.33879 116.27 9.48324 116.824 9.77214C117.377 10.0507 117.805 10.4531 118.109 10.9793C118.402 10.4841 118.825 10.0868 119.378 9.78761C119.942 9.4884 120.55 9.33879 121.201 9.33879ZM135.437 13.5639C135.437 13.8734 135.415 14.152 135.372 14.3996H128.781C128.836 15.0187 129.063 15.5036 129.465 15.8544C129.866 16.2052 130.36 16.3806 130.946 16.3806C131.792 16.3806 132.394 16.0349 132.752 15.3437H135.209C134.948 16.169 134.449 16.85 133.712 17.3866C132.974 17.9128 132.068 18.1759 130.994 18.1759C130.126 18.1759 129.345 17.9953 128.651 17.6342C127.968 17.2627 127.431 16.7417 127.04 16.0711C126.66 15.4004 126.471 14.6266 126.471 13.7496C126.471 12.8623 126.66 12.0833 127.04 11.4126C127.42 10.742 127.951 10.2261 128.635 9.86499C129.318 9.50388 130.105 9.32332 130.994 9.32332C131.851 9.32332 132.616 9.49872 133.289 9.84952C133.972 10.2003 134.498 10.7007 134.867 11.3507C135.247 11.9904 135.437 12.7281 135.437 13.5639ZM133.077 12.9448C133.066 12.3877 132.855 11.944 132.443 11.6138C132.03 11.2734 131.526 11.1031 130.929 11.1031C130.365 11.1031 129.888 11.2682 129.497 11.5984C129.118 11.9182 128.884 12.367 128.798 12.9448H133.077ZM139.378 10.7936C139.67 10.3396 140.05 9.98365 140.517 9.72571C140.994 9.46776 141.536 9.33879 142.144 9.33879V11.6138H141.542C140.826 11.6138 140.283 11.7738 139.915 12.0936C139.557 12.4135 139.378 12.9706 139.378 13.7651V18.0366H137.099V9.46261H139.378V10.7936ZM143.092 13.7496C143.092 12.8623 143.282 12.0885 143.662 11.4281C144.042 10.7575 144.568 10.2416 145.24 9.88047C145.913 9.50904 146.683 9.32332 147.551 9.32332C148.668 9.32332 149.59 9.59157 150.317 10.1281C151.055 10.6543 151.549 11.3972 151.798 12.3567H149.341C149.211 11.9853 148.988 11.6964 148.674 11.49C148.37 11.2734 147.99 11.165 147.535 11.165C146.884 11.165 146.368 11.392 145.989 11.846C145.609 12.2896 145.419 12.9242 145.419 13.7496C145.419 14.5647 145.609 15.1992 145.989 15.6532C146.368 16.0969 146.884 16.3187 147.535 16.3187C148.457 16.3187 149.059 15.9266 149.341 15.1425H151.798C151.549 16.0711 151.055 16.8088 150.317 17.3556C149.58 17.9024 148.657 18.1759 147.551 18.1759C146.683 18.1759 145.913 17.9953 145.24 17.6342C144.568 17.2627 144.042 16.7469 143.662 16.0865C143.282 15.4159 143.092 14.6369 143.092 13.7496ZM152.881 13.7186C152.881 12.852 153.06 12.0833 153.418 11.4126C153.787 10.742 154.281 10.2261 154.899 9.86499C155.528 9.50388 156.228 9.32332 156.998 9.32332C157.671 9.32332 158.256 9.45229 158.755 9.71023C159.265 9.96817 159.672 10.2932 159.976 10.6852V9.46261H162.27V18.0366H159.976V16.783C159.683 17.1854 159.276 17.5207 158.755 17.7889C158.246 18.0469 157.654 18.1759 156.982 18.1759C156.222 18.1759 155.528 17.9901 154.899 17.6187C154.281 17.2473 153.787 16.7262 153.418 16.0556C153.06 15.3746 152.881 14.5956 152.881 13.7186ZM159.976 13.7496C159.976 13.2234 159.867 12.7746 159.65 12.4031C159.433 12.0214 159.141 11.7325 158.772 11.5365C158.403 11.3301 158.007 11.2269 157.584 11.2269C157.161 11.2269 156.77 11.3249 156.412 11.521C156.054 11.717 155.761 12.0059 155.534 12.3877C155.317 12.7591 155.208 13.2028 155.208 13.7186C155.208 14.2345 155.317 14.6885 155.534 15.0806C155.761 15.4623 156.054 15.7564 156.412 15.9627C156.781 16.169 157.172 16.2723 157.584 16.2723C158.007 16.2723 158.403 16.1743 158.772 15.9782C159.141 15.7718 159.433 15.483 159.65 15.1115C159.867 14.7298 159.976 14.2758 159.976 13.7496ZM163.91 13.7186C163.91 12.852 164.089 12.0833 164.447 11.4126C164.815 10.742 165.314 10.2261 165.944 9.86499C166.572 9.50388 167.272 9.32332 168.043 9.32332C168.629 9.32332 169.187 9.44713 169.719 9.69475C170.25 9.93206 170.673 10.2519 170.988 10.6543V6.58398H173.299V18.0366H170.988V16.7675C170.705 17.1905 170.31 17.531 169.8 17.7889C169.29 18.0469 168.699 18.1759 168.026 18.1759C167.267 18.1759 166.572 17.9901 165.944 17.6187C165.314 17.2473 164.815 16.7262 164.447 16.0556C164.089 15.3746 163.91 14.5956 163.91 13.7186ZM171.004 13.7496C171.004 13.2234 170.895 12.7746 170.679 12.4031C170.461 12.0214 170.168 11.7325 169.8 11.5365C169.431 11.3301 169.035 11.2269 168.612 11.2269C168.189 11.2269 167.799 11.3249 167.441 11.521C167.083 11.717 166.79 12.0059 166.562 12.3877C166.344 12.7591 166.237 13.2028 166.237 13.7186C166.237 14.2345 166.344 14.6885 166.562 15.0806C166.79 15.4623 167.083 15.7564 167.441 15.9627C167.809 16.169 168.199 16.2723 168.612 16.2723C169.035 16.2723 169.431 16.1743 169.8 15.9782C170.168 15.7718 170.461 15.483 170.679 15.1115C170.895 14.7298 171.004 14.2758 171.004 13.7496ZM179.527 18.1759C178.658 18.1759 177.877 17.9953 177.184 17.6342C176.489 17.2627 175.941 16.7417 175.54 16.0711C175.15 15.4004 174.954 14.6266 174.954 13.7496C174.954 12.8726 175.155 12.0988 175.556 11.4281C175.968 10.7575 176.527 10.2416 177.232 9.88047C177.937 9.50904 178.723 9.32332 179.592 9.32332C180.459 9.32332 181.246 9.50904 181.951 9.88047C182.656 10.2416 183.209 10.7575 183.611 11.4281C184.023 12.0988 184.23 12.8726 184.23 13.7496C184.23 14.6266 184.018 15.4004 183.594 16.0711C183.182 16.7417 182.619 17.2627 181.903 17.6342C181.197 17.9953 180.406 18.1759 179.527 18.1759ZM179.527 16.2877C179.939 16.2877 180.324 16.1949 180.682 16.0092C181.05 15.8131 181.343 15.5242 181.561 15.1425C181.778 14.7607 181.886 14.2964 181.886 13.7496C181.886 12.9345 181.659 12.3103 181.203 11.8769C180.757 11.4333 180.21 11.2114 179.559 11.2114C178.909 11.2114 178.36 11.4333 177.916 11.8769C177.482 12.3103 177.265 12.9345 177.265 13.7496C177.265 14.5647 177.477 15.1941 177.9 15.6377C178.333 16.0711 178.876 16.2877 179.527 16.2877Z" fill="white"/>
</g>
<g clip-path="url(#clip1_164_7)">
<rect width="351.705" height="31.3622" transform="translate(61.2959 24.97)" fill="#0261A3"/>
<path d="M213.165 40.5805C213.095 40.1567 213.095 39.7329 213.025 39.2384C212.536 39.3091 210.654 31.4194 211.627 38.9559C211.207 39.9448 211.697 41.075 211.067 41.9932C210.928 45.525 210.648 49.0568 210.578 52.5886C210.578 54.637 209.739 55.2727 207.851 55.1315C206.662 54.9902 205.544 55.0608 204.355 55.0608C202.677 55.1315 202.187 54.4957 202.257 52.8005C202.677 44.9599 202.957 37.0487 203.236 29.2082C203.306 26.6653 204.495 25.6058 206.942 25.6764C208.341 25.747 209.739 25.6764 211.137 25.6764C217.43 25.6764 217.43 25.6764 218.549 31.8217C219.178 35.4241 219.808 38.9559 220.787 42.6996C221.486 38.8146 222.255 34.859 222.884 30.9741C223.653 26.1002 224.003 25.747 228.897 25.747C239.176 25.8177 238.057 24.6875 238.407 34.859C238.617 40.6512 238.756 46.3726 239.106 52.0941C239.246 54.3545 238.686 55.414 236.309 55.1315C235.54 54.9902 234.701 54.9902 233.862 55.1315C231.345 55.4846 230.715 54.3545 230.715 51.9529C230.646 45.8076 230.296 39.6623 229.387 33.4463C228.688 36.9781 227.919 40.5099 227.289 44.0417C225.961 50.8933 221.416 52.8005 215.263 49.1274C213.585 46.4433 213.794 43.4059 213.165 40.5805Z" fill="white"/>
<path d="M151.005 39.1678C151.005 43.7591 150.865 47.9973 151.075 52.2354C151.145 54.637 150.096 55.0055 148.069 55.1315C147.45 55.1315 146.932 55.1315 146.321 55.1315C143.53 55.0055 142.335 54.5664 142.475 51.3171C142.755 44.5361 142.545 37.6845 142.545 30.8328C142.545 28.9256 141.915 26.2415 144.642 25.8883C147.439 25.5351 150.726 24.4756 152.753 28.0074C155.41 32.5281 158.207 36.9075 161.004 41.3575C161.004 36.9781 161.144 32.6693 160.934 28.4312C160.864 26.1708 161.633 25.6764 163.731 25.6764C169.534 25.6058 169.534 25.5351 169.534 31.3272C169.534 37.5432 169.534 43.8298 169.534 50.0457C169.534 51.9529 169.954 54.4957 167.297 54.8489C164.57 55.2021 161.424 56.191 159.466 52.8711C156.739 48.3504 153.942 43.9004 151.005 39.1678Z" fill="white"/>
<path d="M373.845 41.3576C373.845 36.625 373.915 32.4575 373.775 28.29C373.775 26.3828 374.195 25.6764 376.292 25.6764C382.306 25.6058 382.306 25.5352 382.306 31.7511C382.306 37.8258 382.376 43.9711 382.306 50.0457C382.306 51.9529 382.935 54.4958 380.138 54.849C377.411 55.2021 374.265 56.1204 372.307 52.8712C369.72 48.633 367.063 44.3949 363.986 39.4504C363.986 44.1123 363.916 48.1386 364.056 52.1648C364.126 54.3545 363.707 55.2728 361.189 55.2021C355.456 55.0609 355.456 55.2021 355.456 49.4807C355.456 43.1234 355.456 36.7662 355.456 30.4797C355.456 28.6431 355.036 26.1709 357.623 25.959C360.21 25.7471 363.287 24.4756 365.245 27.5836C367.972 31.963 370.699 36.3424 373.845 41.3576Z" fill="white"/>
<path d="M265.466 41.428C268.333 44.4654 268.193 48.0678 266.934 51.5996C265.746 54.8488 262.529 55.2726 259.663 55.3433C255.118 55.4845 250.573 55.2726 246.028 55.3433C243.86 55.4139 242.951 54.7782 243.021 52.3059C243.161 44.3241 243.161 36.3423 243.021 28.3604C243.021 26.312 243.441 25.3938 245.678 25.3938C249.944 25.4644 254.279 25.1112 258.544 25.3938C266.305 25.9588 268.752 30.4795 265.536 37.755C264.487 38.9558 263.858 40.1566 265.466 41.428Z" fill="white"/>
<path d="M413.001 40.2274C412.931 53.7189 405.03 59.2284 392.584 54.849C389.298 53.7189 387.34 51.4585 386.571 48.2093C385.382 43.1235 385.312 37.9671 386.501 32.8813C387.34 28.9964 389.647 26.5241 393.633 25.6059C397.059 24.8289 400.555 24.8995 403.981 25.3233C408.806 25.959 411.603 28.7845 412.512 33.729C413.001 36.0599 412.931 38.3909 413.001 40.2274Z" fill="white"/>
<path d="M133.874 41.3576C138.839 44.395 137.93 49.6926 139.538 53.9308C139.818 54.5665 139.328 55.061 138.629 55.061C136.182 55.061 133.734 55.1316 131.287 55.061C130.029 55.061 129.959 54.0014 129.819 53.0832C129.329 51.0347 128.84 48.9863 128.42 46.8672C128.001 44.6069 126.533 44.1831 124.575 44.2537C122.197 44.3243 123.106 46.1609 122.967 47.3617C122.897 47.9268 122.967 48.5625 122.967 49.1276C122.967 55.2022 122.967 55.061 116.813 55.061C114.506 55.061 113.807 54.3546 113.877 52.0943C114.017 44.1124 113.947 36.1306 113.877 28.1488C113.877 26.5241 114.087 25.394 115.974 25.394C121.288 25.2527 126.672 24.6876 131.986 25.6765C136.252 26.5241 137.93 28.29 138.489 32.3163C139.118 36.9782 138.14 38.956 133.874 41.3576Z" fill="white"/>
<path d="M280.081 36.2717C280.081 38.9559 280.081 41.64 280.081 44.3948C280.081 46.9377 280.85 48.7742 283.787 48.7742C286.863 48.7742 287.353 46.7258 287.353 44.2536C287.353 39.2384 287.492 34.1527 287.353 29.1375C287.283 26.6653 287.702 25.6057 290.569 25.6764C296.792 25.8883 296.792 25.6764 296.792 32.0336C296.792 36.6955 296.932 41.4281 296.582 46.0901C296.023 52.5179 293.086 55.2021 286.723 55.6259C286.374 55.6259 286.024 55.6965 285.674 55.6965C274.207 56.1203 270.851 52.8711 270.921 41.2162C270.921 36.8368 270.991 32.528 270.921 28.1486C270.921 26.3121 271.55 25.8176 273.368 25.747C280.221 25.4645 280.221 25.3938 280.221 32.1042C280.081 33.4463 280.081 34.859 280.081 36.2717Z" fill="white"/>
<path d="M61.2959 40.2268C61.2959 36.13 61.3658 31.9625 61.2959 27.8656C61.2959 26.3116 61.5756 25.464 63.3236 25.3934C68.7775 25.1108 74.2314 24.687 79.6852 25.6759C83.1114 26.3116 85.0692 28.2894 85.5587 31.7506C85.7684 33.3752 85.9083 34.9998 85.8383 36.6244C85.4887 42.2753 83.2512 44.465 77.5876 45.0301C75.2802 45.242 72.5563 44.5356 71.2977 46.1602C70.1789 47.7142 70.4556 50.1158 70.5255 52.4468C70.5955 54.354 70.106 55.0603 68.0084 55.131C61.2959 55.2722 61.2959 55.3429 61.2959 48.6325C61.2959 45.8777 61.2959 43.0523 61.2959 40.2268Z" fill="white"/>
<path d="M338.604 32.9518C337.206 39.1677 335.668 45.3836 334.409 51.6702C333.85 54.425 332.801 55.2726 330.004 55.1314C324.131 54.9194 324.131 55.0607 325.669 49.2686C327.487 42.6288 329.445 35.9185 331.193 29.2787C331.892 26.8065 333.151 25.6056 335.877 25.6763C347.414 25.9588 344.897 24.1223 348.114 35.0002C349.792 40.651 351.12 46.3725 352.938 51.9527C353.707 54.425 353.498 55.2726 350.701 55.2726C344.338 55.202 344.408 55.3433 342.94 49.0567C341.751 43.6884 340.492 38.3907 339.234 33.0224C339.094 32.8811 338.884 32.8811 338.604 32.9518Z" fill="white"/>
<path d="M185.756 32.8106C185.057 35.7066 184.427 38.6027 183.728 41.4987C182.889 45.1718 181.84 48.7742 181.211 52.4473C180.861 54.4957 179.952 55.0608 177.995 55.0608C171.142 55.2021 171.142 55.2727 173.03 48.421C174.778 42.1345 176.596 35.7773 178.274 29.42C179.043 26.5946 180.512 25.4645 183.518 25.5351C194.146 25.8176 192.328 24.193 195.125 34.2939C196.803 40.2979 198.412 46.302 200.23 52.2354C200.929 54.4957 200.369 55.1314 198.062 55.0608C190.091 54.7782 192.049 56.5441 190.091 48.7742C188.762 43.4765 187.644 38.1082 186.385 32.8106C186.175 32.8106 185.966 32.8106 185.756 32.8106Z" fill="white"/>
<path d="M88.4957 40.2272C88.4957 37.5431 88.4258 34.7883 88.4957 32.1041C88.6355 28.0073 90.6633 25.6763 94.7187 25.535C99.2636 25.3937 103.599 25.7161 108.144 25.6455C109.758 25.6455 109.968 27.5666 109.968 29.2081C109.968 30.7221 109.968 32.5986 108.144 32.5986C105.557 32.5986 103.039 32.6692 100.452 32.5986C98.6343 32.5279 97.6554 33.093 97.6554 35.1415C97.6554 37.2605 99.1238 36.8367 100.312 36.9073C101.921 36.978 103.599 37.1193 105.207 36.9073C108.353 36.4835 108.843 38.0375 108.703 40.7217C108.633 42.6288 107.934 43.1939 106.186 43.1233C104.228 43.0527 102.2 43.1233 100.243 43.0527C98.6343 42.982 97.5855 43.1939 97.6554 45.2424C97.7253 47.0789 98.2148 48.1384 100.243 48.0678C102.34 47.9972 104.438 48.0678 106.535 48.0678C109.892 48.0678 111.43 50.3988 110.381 53.7186C110.101 54.6369 109.472 54.6369 108.843 54.7075C104.131 55.0054 99.3704 54.7075 94.6457 54.7075C90.4504 54.425 88.6355 52.4472 88.4957 48.2797C88.4258 46.867 88.4957 45.4543 88.4258 44.0416C88.4957 42.8407 88.4957 41.5693 88.4957 40.2272Z" fill="white"/>
<path d="M314.062 55.4141C312.804 55.4141 311.475 55.4847 310.217 55.4141C304.973 54.9903 301.896 52.3767 300.637 47.2203C299.589 42.6996 299.589 38.1083 300.567 33.5877C301.616 28.6432 304.553 25.8884 309.657 25.3233C312.874 24.8995 316.16 25.0407 319.376 25.4646C321.824 25.8177 323.082 26.4535 322.663 29.3495C322.313 31.963 321.684 33.5877 318.677 32.9519C318.537 32.9519 318.467 32.9519 318.328 32.9519C315.671 33.3051 312.174 31.5392 310.566 34.4353C308.678 37.8964 309.308 41.9933 310.217 45.8076C310.566 47.291 311.755 47.7148 313.153 47.7148C315.391 47.7148 317.628 47.9267 319.796 47.6441C323.012 47.1497 322.872 49.2688 323.292 51.3172C323.711 53.7188 322.942 54.6371 320.565 55.0609C318.397 55.3434 316.23 55.4141 314.062 55.4141Z" fill="white"/>
<path d="M211.067 41.9932C211.067 39.1678 211.067 36.2717 211.067 33.4463C212.676 35.2122 212.746 37.2606 213.025 39.2384C211.347 39.4503 211.976 41.2868 211.067 41.9932Z" fill="#0261A3"/>
<path d="M213.165 40.5806C213.864 43.406 214.493 46.3021 215.193 49.1275C213.025 46.5846 213.165 43.5473 213.165 40.5806Z" fill="#0261A3"/>
<path d="M265.466 41.4282C264.557 40.9337 263.648 40.4393 262.6 39.8036C263.648 39.0972 264.557 38.3908 265.536 37.7551C265.466 38.9559 265.466 40.2274 265.466 41.4282Z" fill="#0261A3"/>
<path d="M252.182 46.0194C251.972 43.971 251.902 42.2758 254.839 42.4877C257.146 42.6289 258.615 43.0527 258.545 45.8075C258.545 48.5623 257.076 48.9861 254.769 49.1274C252.182 49.3393 251.832 48.0679 252.182 46.0194Z" fill="#0261A3"/>
<path d="M254.489 31.539C257.006 31.3271 257.915 32.316 257.915 34.5763C257.845 37.2605 256.097 36.9779 254.279 37.1192C251.902 37.3311 252.112 35.8478 252.042 34.2938C252.042 32.316 252.392 30.9739 254.489 31.539Z" fill="#0261A3"/>
<path d="M403.352 40.2273C403.282 41.9932 403.282 43.6884 403.072 45.313C402.792 47.3615 401.744 48.7742 399.436 48.7742C397.338 48.7742 396.29 47.644 395.94 45.5956C395.381 42.0638 395.381 38.6026 395.94 35.0709C396.29 33.0224 397.408 31.9629 399.506 31.9629C401.674 31.9629 402.722 33.1637 403.072 35.0709C403.212 36.8368 403.212 38.6026 403.352 40.2273Z" fill="#0261A3"/>
<path d="M122.967 34.4351C122.617 32.4573 123.317 31.4684 125.554 31.6803C127.582 31.8922 129.47 31.8216 129.4 34.8589C129.33 37.8256 127.442 37.6843 125.414 37.8962C122.548 38.1081 122.827 36.2716 122.967 34.4351Z" fill="#0261A3"/>
<path d="M70.5258 34.9296C70.6656 33.4462 69.8266 31.4684 72.6934 31.6097C75.0707 31.751 76.7488 32.3161 76.6789 35.2121C76.609 37.755 75.4203 38.532 72.9731 38.6026C69.6168 38.8145 70.6656 36.5542 70.5258 34.9296Z" fill="#0261A3"/>
</g>
<path d="M19.3032 47.9423C17.2015 46.4806 16.731 44.034 15.8841 41.8732C14.5666 38.4733 14.598 38.4415 18.2053 38.4415C25.3572 38.4415 32.5091 38.4415 39.6924 38.4415C40.4453 38.4415 41.1667 38.4415 41.7627 37.9331C42.641 37.1705 43.2056 36.0266 43.0488 35.0098C42.9233 34.279 41.7 34.7238 40.9785 34.7238C32.2268 34.7238 23.5065 34.7238 14.7862 34.7238C13.5942 34.7238 11.963 32.722 12.1826 31.5145C12.2767 30.9426 12.7473 31.165 13.0609 31.165C15.6331 31.1332 18.1739 31.1332 20.7461 31.1332C28.2117 31.1332 35.6773 31.1332 43.1743 31.1332C44.4917 31.1332 45.7465 29.7351 45.621 28.4006C45.5269 27.5109 44.8054 27.9239 44.3976 27.9239C37.5594 27.8922 30.7212 27.9239 23.8515 27.9239C19.9305 27.9239 16.0095 27.8922 12.0885 27.9557C11.1475 27.9557 10.677 27.6697 10.3946 26.78C9.95549 25.3184 9.3595 23.8885 8.85761 22.4586C8.41846 21.2194 7.60289 20.5521 6.28543 20.6156C5.12481 20.6474 3.99556 20.6474 2.83494 20.6156C1.61159 20.6156 0.764648 20.0755 0.764648 18.7409C0.764648 17.4699 1.64295 16.9933 2.74084 16.9615C4.1524 16.9297 5.56396 16.8662 6.97553 16.9933C9.42223 17.2157 11.1475 18.5185 12.0572 20.8698C12.4336 21.8549 12.1826 23.7932 13.2178 23.7932C14.2529 23.7932 16.4487 23.7932 16.4487 23.7932C16.4487 23.7932 18.1318 23.7932 18.9581 23.7932C20.056 23.7932 20.9971 23.7932 22.2518 23.7932C23.5624 23.7932 24.6044 23.7932 25.8591 23.7932C27.1138 23.7932 28.3999 23.7614 29.6233 23.7932C31.223 23.7932 32.7601 23.7932 34.3285 23.7932C34.9558 23.7932 35.4264 23.7932 36.0537 23.7932C36.7419 23.7932 37.4653 23.7932 38.2495 23.7932C39.3474 23.7932 40.4453 23.7932 41.5431 23.7932C42.3925 23.7932 43.1115 23.7932 44.0526 23.7932C45.0331 23.7932 45.7778 23.7932 47.0325 23.7932C47.1572 23.7932 47.2501 23.7956 47.3462 23.7932C51.0477 23.6978 50.9222 24.6193 49.6675 27.8604C48.35 31.2921 47.158 34.7874 45.8719 38.2509C44.8682 40.9835 43.4566 42.0003 40.5707 42.0003C33.7325 42.0003 26.8942 42.0003 20.056 42.0003C20.307 44.5106 20.9971 45.1779 23.381 45.1779C28.9645 45.1779 34.5481 45.1779 40.1316 45.1779C41.7941 45.1779 42.6096 45.9405 42.4842 47.2115C42.3901 48.2283 41.6372 48.5778 40.853 48.8956C39.0337 49.2133 37.6221 49.3722 35.1127 49.3722C33.0738 49.3722 31.0348 49.3722 28.8391 49.3722C27.1766 49.4357 25.4827 49.4357 23.8202 49.5311C22.189 49.6582 20.6834 48.8638 19.3032 47.9423Z" fill="white"/>
<path d="M36.6185 56.8516C34.705 56.8516 33.2621 55.3582 33.2935 53.4199C33.3248 51.4499 34.7678 50.0518 36.7126 50.0518C38.6574 50.0835 40.069 51.5134 40.0376 53.4835C40.0062 55.4853 38.5947 56.8834 36.6185 56.8516Z" fill="white"/>
<path d="M23.693 56.8831C21.8109 56.8831 20.3053 55.4215 20.2739 53.515C20.2425 51.6085 21.7796 50.0515 23.7558 50.0832C25.6378 50.115 27.1121 51.6085 27.0808 53.4832C27.0494 55.4215 25.5751 56.8831 23.693 56.8831Z" fill="white"/>
<path d="M13.7412 23.8179C14.0693 14.873 21.0013 7.75015 29.2458 7.17038C38.3106 6.54921 46.6781 13.9619 47.0883 23.8179" fill="#BE0A13"/>
<path d="M16.3672 23.8185C16.6543 16.323 22.4788 10.2769 29.4107 9.82137C37.0399 9.28302 44.0949 15.5362 44.423 23.8185" fill="#EFCD07"/>
<path d="M19.4414 23.819C19.6465 17.9385 24.1994 13.259 29.6137 12.8863C35.5612 12.4722 41.0575 17.3588 41.3447 23.819" fill="#63A43F"/>
<path d="M22.6846 23.7768C23.0537 20.6709 24.3253 18.1033 27.3195 16.7782C32.4057 14.5005 37.4098 17.7306 38.1891 23.8182C37.2867 23.8182 36.3433 23.8182 35.441 23.8182C32.1596 23.8182 28.8372 23.8182 25.5558 23.8182C24.5714 23.7768 23.628 23.7768 22.6846 23.7768Z" fill="#0261A3"/>
<path d="M26.9886 23.7353H33.8385C34.1257 23.7353 34.2487 23.3626 34.0026 23.197L33.2643 22.6586C33.1412 22.5758 33.1002 22.4101 33.1823 22.2445L33.8796 21.2092C34.0026 21.0021 33.8796 20.7537 33.6334 20.7537L32.4029 20.8779C32.2389 20.8779 32.1158 20.7951 32.1158 20.6294L31.9928 19.3871C31.9517 19.1386 31.6646 19.0558 31.5006 19.2214L30.6392 20.0911C30.5161 20.2153 30.3521 20.2153 30.229 20.0911L29.3677 19.2214C29.2036 19.0558 28.9165 19.1386 28.8754 19.3871L28.7524 20.6294C28.7524 20.7951 28.5883 20.9193 28.4653 20.8779L27.2348 20.7537C26.9886 20.7537 26.8246 21.0021 26.9886 21.2092L27.6859 22.2445C27.768 22.3687 27.727 22.5344 27.6039 22.6586L26.8656 23.197C26.6195 23.3626 26.7425 23.7353 26.9886 23.7353Z" fill="#EECF10"/>
<path d="M30.5994 0.668913L31.3377 2.15974C31.3787 2.20115 31.4198 2.24256 31.5018 2.28397L33.1015 2.53244C33.2655 2.57385 33.3476 2.78091 33.2245 2.90514L32.076 4.06468C32.035 4.10609 31.994 4.18891 32.035 4.23032L32.3221 5.84538C32.3632 6.01102 32.1581 6.13527 32.035 6.05245L30.5994 5.26561C30.5584 5.2242 30.4764 5.2242 30.3943 5.26561L28.9587 6.05245C28.7946 6.13527 28.6306 6.01102 28.6716 5.84538L28.9587 4.23032C28.9587 4.1475 28.9587 4.10609 28.9177 4.06468L27.7692 2.90514C27.6462 2.78091 27.7282 2.57385 27.8923 2.53244L29.4919 2.28397C29.574 2.28397 29.615 2.24256 29.656 2.15974L30.3943 0.668913C30.3123 0.503266 30.5174 0.503266 30.5994 0.668913Z" fill="#EECF10"/>
<defs>
<clipPath id="clip0_164_7">
<rect width="124.076" height="16.4437" fill="white" transform="translate(60.5586 6.42896)"/>
</clipPath>
<clipPath id="clip1_164_7">
<rect width="351.705" height="31.3622" fill="white" transform="translate(61.2959 24.97)"/>
</clipPath>
</defs>
</svg>
