<svg width="75" height="76" viewBox="0 0 75 76" fill="none" xmlns="http://www.w3.org/2000/svg">
<path d="M26.6205 63.7449C23.8294 61.8037 23.2045 58.5543 22.0797 55.6847C20.33 51.1693 20.3717 51.1271 25.1625 51.1271C34.6608 51.1271 44.159 51.1271 53.699 51.1271C54.6988 51.1271 55.657 51.1271 56.4485 50.4519C57.6149 49.4391 58.3648 47.9199 58.1565 46.5695C57.9899 45.5989 56.3652 46.1897 55.407 46.1897C43.7841 46.1897 32.2029 46.1897 20.6216 46.1897C19.0386 46.1897 16.8723 43.5312 17.1639 41.9276C17.2889 41.168 17.9138 41.4634 18.3304 41.4634C21.7464 41.4212 25.1208 41.4212 28.5369 41.4212C38.4517 41.4212 48.3666 41.4212 58.3231 41.4212C60.0728 41.4212 61.7392 39.5644 61.5726 37.792C61.4476 36.6104 60.4894 37.159 59.9479 37.159C50.8662 37.1168 41.7845 37.159 32.6611 37.159C27.4537 37.159 22.2463 37.1168 17.0389 37.2012C15.7892 37.2012 15.1643 36.8214 14.7894 35.6398C14.2061 33.6986 13.4146 31.7996 12.7481 29.9006C12.1648 28.2548 11.0817 27.3686 9.33201 27.453C7.79062 27.4952 6.29089 27.4952 4.7495 27.453C3.1248 27.453 2 26.7356 2 24.9632C2 23.2752 3.16646 22.6422 4.62453 22.6C6.49919 22.5578 8.37385 22.4734 10.2485 22.6422C13.4979 22.9376 15.7892 24.6678 16.9973 27.7906C17.4972 29.0988 17.1639 31.673 18.5387 31.673C19.9134 31.673 22.8296 31.673 22.8296 31.673C22.8296 31.673 25.0649 31.673 26.1623 31.673C27.6204 31.673 28.8701 31.673 30.5365 31.673C32.2771 31.673 33.6609 31.673 35.3273 31.673C36.9937 31.673 38.7017 31.6308 40.3264 31.673C42.451 31.673 44.4923 31.673 46.5753 31.673C47.4085 31.673 48.0333 31.673 48.8665 31.673C49.7805 31.673 50.7412 31.673 51.7827 31.673C53.2407 31.673 54.6988 31.673 56.1569 31.673C57.2849 31.673 58.2398 31.673 59.4896 31.673C60.7918 31.673 61.7809 31.673 63.4472 31.673C63.6128 31.673 63.7362 31.6763 63.8638 31.673C68.7796 31.5464 68.613 32.7702 66.9466 37.0746C65.1969 41.6322 63.6139 46.2741 61.9058 50.8739C60.5727 54.5031 58.6981 55.8535 54.8654 55.8535C45.7838 55.8535 36.7021 55.8535 27.6204 55.8535C27.9536 59.1873 28.8701 60.0735 32.0362 60.0735C39.4516 60.0735 46.8669 60.0735 54.2822 60.0735C56.4901 60.0735 57.5733 61.0863 57.4066 62.7743C57.2817 64.1247 56.2819 64.5889 55.2404 65.0109C52.8241 65.4329 50.9495 65.6439 47.6168 65.6439C44.9089 65.6439 42.2011 65.6439 39.2849 65.6439C37.077 65.7283 34.8274 65.7283 32.6195 65.8549C30.4532 66.0237 28.4535 64.9687 26.6205 63.7449Z" fill="white"/>
<path d="M49.6162 75.5775C47.075 75.5775 45.1587 73.5941 45.2004 71.0199C45.242 68.4035 47.1584 66.5468 49.7412 66.5468C52.3241 66.589 54.1987 68.4879 54.1571 71.1043C54.1154 73.7629 52.2408 75.6197 49.6162 75.5775Z" fill="white"/>
<path d="M32.4527 75.6197C29.9532 75.6197 27.9535 73.6785 27.9119 71.1465C27.8702 68.6145 29.9115 66.5468 32.536 66.589C35.0356 66.6312 36.9936 68.6145 36.9519 71.1043C36.9103 73.6785 34.9523 75.6197 32.4527 75.6197Z" fill="white"/>
<path d="M19.2299 31.7056C19.6657 19.8261 28.8718 10.3665 39.8211 9.5965C51.8598 8.77153 62.9725 18.6161 63.5173 31.7056" fill="#BE0A13"/>
<path d="M22.7162 31.7057C23.0975 21.7511 30.8328 13.7214 40.0389 13.1164C50.1711 12.4015 59.5406 20.7061 59.9764 31.7057" fill="#EFCD07"/>
<path d="M26.8019 31.7057C27.0743 23.896 33.1209 17.6812 40.3114 17.1862C48.2102 16.6363 55.5097 23.126 55.891 31.7057" fill="#63A43F"/>
<path d="M31.1052 31.6507C31.5955 27.5259 33.2842 24.116 37.2608 22.3561C44.0156 19.3312 50.6614 23.621 51.6964 31.7057C50.498 31.7057 49.2451 31.7057 48.0467 31.7057C43.6887 31.7057 39.2763 31.7057 34.9184 31.7057C33.611 31.6507 32.3581 31.6507 31.1052 31.6507Z" fill="#0261A3"/>
<path d="M36.825 31.5958H45.9221C46.3035 31.5958 46.4669 31.1008 46.14 30.8808L45.1595 30.1658C44.9961 30.0558 44.9416 29.8359 45.0506 29.6159L45.9766 28.2409C46.14 27.9659 45.9766 27.636 45.6498 27.636L44.0156 27.8009C43.7977 27.8009 43.6342 27.6909 43.6342 27.4709L43.4708 25.821C43.4163 25.491 43.035 25.381 42.8171 25.601L41.6732 26.756C41.5098 26.921 41.2919 26.921 41.1284 26.756L39.9845 25.601C39.7666 25.381 39.3853 25.491 39.3308 25.821L39.1674 27.4709C39.1674 27.6909 38.9495 27.8559 38.786 27.8009L37.1518 27.636C36.825 27.636 36.6071 27.9659 36.825 28.2409L37.751 29.6159C37.86 29.7809 37.8055 30.0009 37.6421 30.1658L36.6616 30.8808C36.3347 31.1008 36.4981 31.5958 36.825 31.5958Z" fill="#EECF10"/>
<path d="M41.6186 0.961899L42.5992 2.94182C42.6536 2.99682 42.7081 3.05181 42.8171 3.10681L44.9416 3.4368C45.1595 3.4918 45.2684 3.76679 45.105 3.93178L43.5797 5.47173C43.5252 5.52673 43.4708 5.63672 43.5252 5.69172L43.9066 7.83663C43.961 8.05662 43.6887 8.22163 43.5252 8.11164L41.6186 7.06666C41.5642 7.01167 41.4552 7.01167 41.3463 7.06666L39.4397 8.11164C39.2218 8.22163 39.0039 8.05662 39.0584 7.83663L39.4397 5.69172C39.4397 5.58172 39.4397 5.52673 39.3852 5.47173L37.8599 3.93178C37.6965 3.76679 37.8055 3.4918 38.0234 3.4368L40.1478 3.10681C40.2568 3.10681 40.3113 3.05182 40.3657 2.94182L41.3463 0.961899C41.2373 0.741908 41.5097 0.741908 41.6186 0.961899Z" fill="#EECF10"/>
</svg>
