<svg width="29" height="22" viewBox="0 0 29 22" fill="none" xmlns="http://www.w3.org/2000/svg">
<path d="M1.38086 11.9881C1.62473 12.2711 1.95548 12.43 2.30035 12.43H26.6996C27.0445 12.43 27.3753 12.2711 27.6191 11.9881C27.863 11.7051 28 11.3214 28 10.9212C28 10.521 27.863 10.1372 27.6191 9.85428C27.3753 9.57132 27.0445 9.41235 26.6996 9.41235H2.30035C1.95548 9.41235 1.62473 9.57132 1.38086 9.85428C1.137 10.1372 1 10.521 1 10.9212C1 11.3214 1.137 11.7051 1.38086 11.9881Z" fill="#0261A3" stroke="#0261A3" stroke-width="2" stroke-miterlimit="16" stroke-linecap="square"/>
<path d="M1.38086 3.94098C1.62473 4.22394 1.95548 4.38291 2.30035 4.38291H26.6996C27.0445 4.38291 27.3753 4.22394 27.6191 3.94098C27.863 3.65802 28 3.27424 28 2.87407C28 2.4739 27.863 2.09012 27.6191 1.80716C27.3753 1.5242 27.0445 1.36523 26.6996 1.36523H2.30035C1.95548 1.36523 1.62473 1.5242 1.38086 1.80716C1.137 2.09012 1 2.4739 1 2.87407C1 3.27424 1.137 3.65802 1.38086 3.94098Z" fill="#0261A3" stroke="#0261A3" stroke-width="2" stroke-miterlimit="16" stroke-linecap="square"/>
<path d="M1.38086 20.0352C1.62473 20.3182 1.95548 20.4771 2.30035 20.4771H26.6996C27.0445 20.4771 27.3753 20.3182 27.6191 20.0352C27.863 19.7523 28 19.3685 28 18.9683C28 18.5681 27.863 18.1844 27.6191 17.9014C27.3753 17.6184 27.0445 17.4595 26.6996 17.4595H2.30035C1.95548 17.4595 1.62473 17.6184 1.38086 17.9014C1.137 18.1844 1 18.5681 1 18.9683C1 19.3685 1.137 19.7523 1.38086 20.0352Z" fill="#0261A3" stroke="#0261A3" stroke-width="2" stroke-miterlimit="16" stroke-linecap="square"/>
</svg>
