<svg width="13" height="12" viewBox="0 0 13 12" fill="none" xmlns="http://www.w3.org/2000/svg">
<path d="M1.83566 0.562269C1.41391 0.770392 0.831867 1.5821 0.618235 2.26031C0.575408 2.3938 0.522062 2.74618 0.506033 3.03996C0.468717 3.72343 0.602206 4.31624 0.970615 5.08512C1.24285 5.65113 1.87298 6.60158 2.49785 7.38123C3.59256 8.75343 4.94348 9.87494 6.22502 10.489C7.22356 10.9644 8.76131 11.4716 9.41273 11.5409C10.3046 11.6318 11.6608 11.039 12.1361 10.3448C12.4459 9.89623 12.6167 8.79626 12.4083 8.60417C12.3017 8.508 10.2778 7.52023 9.87731 7.36545C9.73856 7.3121 9.56751 7.28531 9.49813 7.30684C9.41799 7.32287 9.20987 7.53651 8.9747 7.83003C8.39816 8.55558 8.11516 8.83333 7.96013 8.83333C7.75201 8.83333 6.7159 8.33143 6.13411 7.94699C5.39178 7.45561 4.43607 6.49464 3.91814 5.72025C3.70451 5.40519 3.5337 5.08487 3.5337 5.01549C3.5337 4.94061 3.67245 4.73249 3.90737 4.46025C4.24898 4.05978 4.54802 3.58468 4.54802 3.43491C4.54802 3.40285 4.30233 2.7835 4.0033 2.0572C3.65091 1.21344 3.40522 0.690248 3.31456 0.594075C3.17581 0.455327 3.14902 0.449819 2.61506 0.449819C2.16125 0.450068 2.0225 0.471356 1.83566 0.562269Z" fill="#0261A3"/>
</svg>
