<svg width="15" height="16" viewBox="0 0 15 16" fill="none" xmlns="http://www.w3.org/2000/svg">
<path d="M0.940063 3.31352H10.3114V1.43893C10.3114 1.06108 10.5398 0.71838 10.8913 0.571928C11.2427 0.425475 11.6439 0.507489 11.9133 0.774032L14.7247 3.58592C14.9004 3.76166 15 3.99892 15 4.24789C15 4.49686 14.9004 4.73411 14.7247 4.90985L11.9133 7.72174C11.6439 7.99121 11.2427 8.0703 10.8913 7.92384C10.5398 7.77739 10.3114 7.43762 10.3114 7.05685V5.18811H0.940063C0.42171 5.18811 0.00292854 4.76926 0.00292854 4.25082C0.00292854 3.73237 0.42171 3.31352 0.940063 3.31352ZM14.0599 10.8119C14.5783 10.8119 14.9971 11.2307 14.9971 11.7492C14.9971 12.2676 14.5783 12.6865 14.0599 12.6865H4.6886V14.5611C4.6886 14.9389 4.46017 15.2816 4.10875 15.4281C3.75732 15.5745 3.35611 15.4925 3.08669 15.226L0.275283 12.4141C0.0995705 12.2383 0 12.0011 0 11.7521C0 11.5031 0.0995705 11.2659 0.275283 11.0901L3.08669 8.27826C3.35611 8.00879 3.75732 7.9297 4.10875 8.07616C4.46017 8.22261 4.6886 8.56238 4.6886 8.94315V10.8177H14.0599V10.8119Z" fill="white"/>
</svg>
