<svg width="22" height="20" viewBox="0 0 22 20" fill="none" xmlns="http://www.w3.org/2000/svg">
<path d="M9.92334 0.0495548C5.643 0.633011 2.31193 3.74615 1.49765 7.92164C1.09265 10.0159 1.39308 12.1494 2.3728 14.1218L2.72551 14.8227L1.85036 17.4048C1.36694 18.8199 0.983798 19.9911 0.99258 19.9998C1.00136 20.0086 2.22044 19.6341 3.69664 19.1638L6.38764 18.306L6.90149 18.5499C9.0047 19.5338 11.3387 19.7734 13.5593 19.2248C16.9688 18.3802 19.7121 15.7329 20.6571 12.3716C21.0533 10.9523 21.1187 9.26276 20.827 7.82157C20.1565 4.51688 17.7964 1.76929 14.6003 0.580732C14.1169 0.397751 13.3287 0.193121 12.7322 0.0887642C12.1615 -0.00701523 10.5111 -0.0331554 9.92334 0.0495548ZM12.3619 1.62123C15.571 2.05663 18.297 4.44703 19.1547 7.58202C19.5205 8.91885 19.5379 10.4121 19.2025 11.7359C18.5145 14.444 16.4637 16.6429 13.7987 17.5267C11.5213 18.2844 8.99571 18.023 6.97093 16.8171C6.78365 16.7082 6.61393 16.6167 6.59636 16.6167C6.58329 16.6167 5.86909 16.8389 5.0113 17.1132C4.15781 17.3832 3.45687 17.5921 3.45687 17.5704C3.45687 17.5531 3.68337 16.8694 3.96194 16.0551L4.46702 14.5747L4.24052 14.2351C3.95745 13.8085 3.50017 12.8809 3.33045 12.389C2.00272 8.54002 3.75751 4.28161 7.44128 2.4181C8.96099 1.65187 10.6114 1.38618 12.3619 1.62123Z" fill="white"/>
<path d="M7.47201 5.3876C7.12808 5.55731 6.65344 6.21919 6.47923 6.77222C6.44431 6.88107 6.4008 7.16841 6.38773 7.40796C6.3573 7.96527 6.46616 8.44866 6.76659 9.07562C6.98859 9.53716 7.50244 10.3122 8.01201 10.9479C8.90472 12.0668 10.0064 12.9813 11.0514 13.4821C11.8657 13.8697 13.1197 14.2832 13.6509 14.3398C14.3782 14.4139 15.4841 13.9306 15.8718 13.3645C16.1244 12.9987 16.2637 12.1018 16.0938 11.9451C16.0068 11.8667 14.3563 11.0613 14.0298 10.935C13.9166 10.8915 13.7771 10.8697 13.7206 10.8873C13.6552 10.9003 13.4855 11.0745 13.2937 11.3139C12.8236 11.9055 12.5928 12.132 12.4664 12.132C12.2966 12.132 11.4517 11.7227 10.9773 11.4092C10.3719 11.0086 9.59258 10.225 9.17022 9.59352C8.99601 9.33662 8.85672 9.07542 8.85672 9.01885C8.85672 8.95779 8.96987 8.78808 9.16144 8.56609C9.44002 8.23954 9.68387 7.85214 9.68387 7.73001C9.68387 7.70387 9.48352 7.19884 9.23966 6.6066C8.9523 5.91858 8.75195 5.49196 8.67802 5.41354C8.56487 5.3004 8.54302 5.29591 8.10759 5.29591C7.73752 5.29611 7.62437 5.31347 7.47201 5.3876Z" fill="white"/>
</svg>
