<svg width="13" height="13" viewBox="0 0 13 13" fill="none" xmlns="http://www.w3.org/2000/svg">
<path d="M5.68473 0.0315409C2.96019 0.402951 0.839894 2.38467 0.321584 5.04265C0.0637942 6.3758 0.255024 7.73391 0.878634 8.98945L1.10314 9.43561L0.546094 11.0793C0.238384 11.9801 -0.00549579 12.7257 9.42062e-05 12.7312C0.00568421 12.7368 0.781654 12.4984 1.72129 12.199L3.43417 11.653L3.76125 11.8082C5.09999 12.4346 6.58563 12.5871 7.99912 12.2379C10.1693 11.7002 11.9155 10.015 12.517 7.87535C12.7692 6.97185 12.8108 5.89636 12.6252 4.97895C12.1984 2.87529 10.6961 1.12627 8.66173 0.369672C8.35402 0.253192 7.85235 0.122931 7.47262 0.0565014C7.1094 -0.00446892 6.05887 -0.0211096 5.68473 0.0315409ZM7.23693 1.03202C9.27962 1.30918 11.0147 2.83083 11.5607 4.82646C11.7936 5.67744 11.8046 6.628 11.5912 7.47066C11.1532 9.19459 9.84785 10.5943 8.15148 11.1569C6.70185 11.6392 5.09427 11.4728 3.80545 10.7052C3.68624 10.6359 3.57821 10.5777 3.56703 10.5777C3.55871 10.5777 3.1041 10.7191 2.5581 10.8937C2.01483 11.0656 1.56867 11.1985 1.56867 11.1848C1.56867 11.1737 1.71284 10.7385 1.89016 10.2202L2.21165 9.27779L2.06748 9.0616C1.8873 8.79003 1.59623 8.19957 1.4882 7.8864C0.643074 5.43629 1.76003 2.72553 4.10484 1.53928C5.07217 1.05152 6.1227 0.88239 7.23693 1.03202Z" fill="#0261A3"/>
<path d="M4.12433 3.42961C3.90541 3.53764 3.60329 3.95897 3.4924 4.31101C3.47017 4.3803 3.44248 4.56321 3.43416 4.7157C3.41479 5.07047 3.48408 5.37818 3.67531 5.77728C3.81662 6.07108 4.1437 6.56443 4.46805 6.96912C5.03628 7.68139 5.7375 8.26353 6.40271 8.58229C6.92102 8.82903 7.71922 9.09228 8.05735 9.12829C8.52028 9.17548 9.22423 8.86777 9.47097 8.50741C9.63178 8.27458 9.72044 7.70362 9.61228 7.60391C9.5569 7.55399 8.50637 7.04127 8.2985 6.96093C8.22648 6.93324 8.13769 6.91933 8.10168 6.93051C8.06008 6.93883 7.95205 7.04972 7.82998 7.20208C7.53072 7.57869 7.38382 7.72286 7.30335 7.72286C7.19532 7.72286 6.65751 7.46234 6.35552 7.26279C5.9702 7.00773 5.47412 6.50892 5.20528 6.10696C5.09439 5.94342 5.00573 5.77715 5.00573 5.74114C5.00573 5.70227 5.07775 5.59424 5.19969 5.45293C5.37701 5.24506 5.53223 4.99845 5.53223 4.92071C5.53223 4.90407 5.4047 4.58258 5.24948 4.20558C5.06657 3.76761 4.93904 3.49604 4.89198 3.44612C4.81996 3.3741 4.80605 3.37124 4.52889 3.37124C4.29333 3.37137 4.22131 3.38242 4.12433 3.42961Z" fill="#0261A3"/>
</svg>
